/* XPM */
static char *_ed1a4f91d4042768db1c82df40b51aajueWg9OpEcCgBTkT[] = {
/* columns rows colors chars-per-pixel */
"64 64 256 2 ",
"   c #040B0B",
".  c #0C0C0D",
"X  c #080507",
"o  c #150909",
"O  c #03170C",
"+  c #0E0E11",
"@  c #060E13",
"#  c #130E12",
"$  c #190D14",
"%  c #0C1314",
"&  c #0C1C1D",
"*  c #061917",
"=  c #131214",
"-  c #131519",
";  c #131B1C",
":  c #1B171A",
">  c #12110F",
",  c #241718",
"<  c #29120F",
"1  c #022414",
"2  c #012B16",
"3  c #04251A",
"4  c #022D1B",
"5  c #0B2B1C",
"6  c #0B241C",
"7  c #01331C",
"8  c #013A1E",
"9  c #043218",
"0  c #0A2113",
"q  c #0A1C21",
"w  c #171D21",
"e  c #281C23",
"r  c #0A2824",
"t  c #132324",
"y  c #122B2B",
"u  c #18282A",
"i  c #033422",
"p  c #0A3423",
"a  c #023C23",
"s  c #0C342B",
"d  c #043B2B",
"f  c #0B3B2C",
"g  c #083728",
"h  c #13362B",
"j  c #0C3D33",
"k  c #133C33",
"l  c #183937",
"z  c #192D30",
"x  c #362729",
"c  c #24393C",
"v  c #2C2D2B",
"b  c #4A3538",
"n  c #54383A",
"m  c #492D2D",
"M  c #6D3B38",
"N  c #592514",
"B  c #014324",
"V  c #02442B",
"C  c #014C2C",
"Z  c #08472B",
"A  c #01542D",
"S  c #094935",
"D  c #13453A",
"F  c #17463A",
"G  c #035432",
"H  c #025B34",
"J  c #045B3A",
"K  c #095739",
"L  c #145037",
"P  c #2D4D3A",
"I  c #02633B",
"U  c #03663A",
"Y  c #0D6E3F",
"T  c #00481F",
"R  c #6A433D",
"E  c #4A3D46",
"W  c #1A4A43",
"Q  c #0B5844",
"!  c #165747",
"~  c #1A584E",
"^  c #254848",
"/  c #25544C",
"(  c #295655",
")  c #335557",
"_  c #34514D",
"`  c #086845",
"'  c #017244",
"]  c #027B4C",
"[  c #077749",
"{  c #186A54",
"}  c #0A7954",
"|  c #157759",
" . c #12684F",
".. c #27685B",
"X. c #2A6E58",
"o. c #1A7C63",
"O. c #2C7065",
"+. c #325F62",
"@. c #584447",
"#. c #524D4C",
"$. c #694A49",
"%. c #685455",
"&. c #775959",
"*. c #734C4D",
"=. c #4B695A",
"-. c #765963",
";. c #685863",
":. c #4B716D",
">. c #766468",
",. c #7B6774",
"<. c #706F6E",
"1. c #60625B",
"2. c #243D41",
"3. c #87595B",
"4. c #93545A",
"5. c #93645B",
"6. c #8F5C67",
"7. c #8A6567",
"8. c #97696A",
"9. c #896D78",
"0. c #9A6B73",
"q. c #87757B",
"w. c #9A7678",
"e. c #98736B",
"r. c #A36D6A",
"t. c #A56974",
"y. c #A47375",
"u. c #A57B7C",
"i. c #AB7C7C",
"p. c #A77777",
"a. c #B27A7C",
"s. c #AC756C",
"d. c #A45C62",
"f. c #A35855",
"g. c #00834D",
"h. c #078757",
"j. c #11885B",
"k. c #06945B",
"l. c #0C8A64",
"z. c #188766",
"x. c #099864",
"c. c #159668",
"v. c #189975",
"b. c #1C8F72",
"n. c #279579",
"m. c #2C8871",
"M. c #06A569",
"N. c #16A776",
"B. c #0AB977",
"V. c #14B778",
"C. c #10AA70",
"Z. c #22A57B",
"A. c #21B576",
"S. c #0BA45F",
"D. c #4F8E70",
"F. c #708272",
"G. c #0FC37C",
"H. c #9B837B",
"J. c #A9827D",
"K. c #B2827E",
"L. c #C6897D",
"P. c #7E7A84",
"I. c #897786",
"U. c #987A88",
"Y. c #836C80",
"T. c #AC7D82",
"R. c #A67B84",
"E. c #B67C83",
"W. c #AF778C",
"Q. c #C27D85",
"!. c #1AB885",
"~. c #15AF81",
"^. c #24B988",
"/. c #2EB08C",
"(. c #2D9780",
"). c #779092",
"_. c #75AAA7",
"`. c #619E95",
"'. c #17CA88",
"]. c #19D48C",
"[. c #14D08B",
"{. c #22C787",
"}. c #27C995",
"|. c #28D798",
" X c #2DD493",
".X c #29E59B",
"XX c #39E4AA",
"oX c #2AE7A2",
"OX c #2BDD99",
"+X c #4CEAB0",
"@X c #87838A",
"#X c #9A838A",
"$X c #8A8994",
"%X c #998795",
"&X c #95939A",
"*X c #8D9699",
"=X c #A58383",
"-X c #AD8383",
";X c #A98889",
":X c #B38284",
">X c #B4858B",
",X c #BB858A",
"<X c #B48B8B",
"1X c #BB8C8D",
"2X c #B78786",
"3X c #B6938E",
"4X c #A98995",
"5X c #B58C92",
"6X c #B98A94",
"7X c #AB9698",
"8X c #B49492",
"9X c #BB9394",
"0X c #B9969A",
"qX c #AD978C",
"wX c #8997A1",
"eX c #9699A6",
"rX c #898EA3",
"tX c #B79BA7",
"yX c #AB98A8",
"uX c #8DA8AE",
"iX c #B2ABB1",
"pX c #A6A19F",
"aX c #C5878B",
"sX c #C48C94",
"dX c #C98C97",
"fX c #C59395",
"gX c #C4949B",
"hX c #C49A9B",
"jX c #CB959A",
"kX c #D3979C",
"lX c #D08E8E",
"zX c #CB9CA4",
"xX c #C69AA4",
"cX c #D49EA6",
"vX c #C28FA0",
"bX c #CAA2A9",
"nX c #D3A3AD",
"mX c #D8A6A9",
"MX c #D4AAB4",
"NX c #DAACB5",
"BX c #D8ABB8",
"VX c #DBB3BC",
"CX c #CBB0B8",
"ZX c #E4ACB4",
"AX c #E6B3BA",
"SX c #F4B9BB",
"DX c #D69EA1",
"FX c #A2B6C5",
"GX c #CBB8C9",
"HX c #E4BAC4",
"JX c #A6C8CA",
"KX c #90C7C9",
"LX c #D6C5D1",
"PX c #E8DCEC",
"IX c #F6ECFC",
"UX c #E3D2DF",
/* pixels */
"x.B.I r r h l.oXZ.L c l c c ~ /.C.W j j z l k j s s d g r f ` } l.| V t h h.'.+XOX .h F c P ! N.^.X.^ ^ ^ ) ^ O.m.+.^ ^ ^ 2.2.l ",
"j.B.` i y t |  X{.! l F l W o.}.~.O.W k l s k S [ k y i r Q |  .] C.l.G d ` l.}..Xj.L F D F F m.'.o.^ ( ) ) ) +.(.O.( ( ^ ^ W W ",
"` !.} 4 y s } XXXXv. .c ^ ~ o.b.o.~ W 2.l s ~ Z.!.f * s u u s w t g k r & t Z n.XXN.L k D D D z.^.m./ ( ) ( +.O.(.m.+.) ^ ^ ~ W ",
"I V.[ y z D c.OXXXZ.| ^ 2.W ( ~ o.! j h j D { x. .; : & # # @ + t u u * * % @ C  X^.Q k ^ W D ..}./.( _ ( +.+.O.m.m.+.+.~ W 2.l ",
"j.x.J r z W } b.v.o.~ D ^ ^ ( o.~.o.l l h k f p X . : #   ; w & * w q * ; : - # K | Q D 2.W W O.}./.m.+.( +.+.+.+.O.( ) ( ^ ^ j ",
"} K i i g s W ` } { ..W ^ ^ O.(.!.b.W k r ; & , w O O > ; = X $ ; $ * q u t q % # 3 t y r j ~ z././.z.../ ) ( +.m.(.O.( ( ^ W W ",
"S h g Z j k ~ o.{ o.(.{ ^ ^ ~ { (.N.Q * % , : % = = >   % o o - ; = - @ w w ; % e q w w w q 2.{ z.n.b.O.( _ ) O./.}.(.^ ( ^ W j ",
"V G S k y j | z.W Q (.l.W ^ W W v.N.l # - , # 0 ; , X O - < + *   . $ # % + X w w & w t z @ q 2.~.}.XX/.O.( ( m.(.}.(.( ^ ( l j ",
"j g K J h k | l.W W l.v.( W W l z.!.k o % #   > = # > . . . > # @ #   = + : @ . # ; & q e q @ y b.b.}.XXZ._ ( { +./.(.( ( W W y ",
"d r K J k S | v.~ j o.v.{ D D W | c.y # % #   . X . > = = + . . X + . = = - # @ X   % u c q q z ~ ~ n.XX}.../ ( ~ (.!.{ W Q W y ",
"a r S ` D f ` N.{ s  .v.{ W l W ~ J O > . o % >   = = % - > + = .     # + = % % = ; ; & z q y q 2.~ | OX XO.W / ( v.^.O.2.D D s ",
"V p S Q L f Q c.o.Q  .b. .W l s F h . > . o > . # - = # - - . = - + X . + % - = : - % q y q q q q j ! ^.XXm.! ! W l.^.b.~ 2.j s ",
"G g d J L h D | c.} | z.Q S W s 6 : # > = o . X . - - = : = + % = >   = : - +   =   % t z z q q @ q d ~.XXo.^ W W b.}.~.| Q j z ",
"J Z Z J G h j Q { } |  .Q j D z   # #   > , > = X = - . + . % = > X % : w % . X . . w t t l q q w y ~ ~. X{ W ^ { z.v.l. .Q d g ",
"K G G K A f f f Z } z.l.} L d ; = = = . > = # - > > > # . + - - > X # : e # + @ = X % t z l q q q s ..^.V.{ ! ! ! Q } | W D S i ",
"Z Z G U C Z f f ` C.'.].^.| d * =   = # = = $ - = $ = = : e , = > . $ : w - # = % - = * y l y q s q D b. .F S L F ! v.N.[ S j r ",
"2 H ' g.[ T 5 9 } B.k.c.'.x.V * = +   . o # - : $ , : x b m m m x < : e e , : , w u z w z q t q j l D o.` z j l D  .N.~. .y g r ",
"G k.G.G.G.S.A Z c.V.' U ^.^.L X . .   X X , , : : x x @.&.-.7.7.*.n e , x b b m x x e z q q q z 2.s l ~.c.F L k W ! l.N.} S d r ",
"j.G.G.S..XA.j.A V.|.j.K ^..X| X # . @ X e &.E x b &.9.4X6XR.U.R.w.w.7.,.q.9.>.*.%.E x v q @ t r r y s ~.^.W W D Q D  .~.v.Q j y ",
"c.].S.U A..Xc.A M.OXc.A N.oXz.X . . X . b R.y.8.R.6XvXMXVXcXxX0XbXbXMXVXMXxX5XR.0.*.@.x w % q y q y j ~.}.` L F k D Q N.~.Q s s ",
"A.G.A.T S..XA.Y k..XV.C j.oXN.0 @ . X w E y.2XjXzXcXnXBXVXBXBXnXmXcXMXMXMXnXzXvX-Xu.#Xb . w z q y q F ^.|.} D l j W S v.!. .s s ",
"S.G.A.Y Y G.G.Y `  X{.[ k.|.N.p * $ # : @.s.E.2XdXzXnXBXBXnXnXNXMXNXMXcXnXMXMXzXzX6X0X7.: % % y s q S N.|.j.V k s d g } [.l.S r ",
"Y A.G.S.j.G.G.Y A C.|.B.V.{.j.V * % #   b a.aXjXxXzXnXMXMXBXNXBXBXNXBXcXbXcXxXhX0X0X0X#X, # % q z l S l..XN.C Z j d D l.'.N.Q j ",
"A A.G.S.S.G.G.Y 8 Y C.G.V.x.H i g @ . X n a.aXkXcXBXHXHXBXBXBXVXHXGXBXHXHXBXbX0XbXhXtX#X: X w q q q d l.|.'. .S f d Q l.M.l.` d ",
"T Y G.G.G.G.S.Z 7 a S ` g.] B d p 7 # @ n E.6X,XU.#X@X%XCXNXZXNXBXbXtX,.;.#.#.#.;.uXiXpXE   $ q q s J C..X{.M.I s d f S ' h.G 4 ",
"T T g.A.M.h.H 8 f 4 B g.G.A.J 7 8 V y + *.T.%.@.c m v x #.#XbXCXxX4X9.%.@.$.,.;.%.1.).iX1.    w r d Q k.c.c.` f g i V ] V.{.[ 2 ",
"9 9 T T U H 8 a i p K k.].].[ 8 p d s & %.*.*.u.5XxX6XR.0.U.bXMXZXgXR.u.>XW.W.4XR.0.).JXwXz u q d d a C ' h.I 7 a g G k.[.oXl.9 ",
"0 9 T T I ` C i 7 8 G [ C.|.g.B a V f : 3.7.w.w.-.b n 0.0.r.nXVXHXxX0.6.U.E - #.%.U.yXJX`.l j s g s i J C.[.] h i g D ` M.|.x.a ",
"9 9 a Z ` [ A 5 i 7 7 a } ].M.Z 7 B C 1 *.2X6.n P.w E %X7.aXkXmXMXgX6X3.8X9.e I.%.*.7XJX_.:.=._ f 7 Z ` x.[.k.s i r i a ' '.V.V ",
"U 8 4 8 V ` I i 5 a 8 4 K ].B.A 5 8 P v *.a.4.3.W.U.6.6.0.E.aXSXmX2XT.t.6.t.W.W.J.#XtXJXKXyXvXdX=.8 a Z G N.B.V i i i 7 J '.'.J ",
"[ p p i 8 ` I p i r 7 7 K G.G.U 8 v a.s.p.sXp.a.R.W.R.W.T.1XNXZXmXhXgXT.W.R.4XR.6XtXyXJXKXtXcXlX0.7 2 7 B c.!.G 4 i a 7 B C.'.' ",
"S.a 4 7 5 H ' B 7 4 i 8 C C..Xk.G P Q.kX2XaXhXfXcXbX6X0XdXcXDXSXmXdXdXdXtXbXzXVXnX0XiXJXiXW.jXdX7.a 5 2 B h.G.` i 6 p 7 a c.[.x.",
"x.S 4 4 3 G ' A 7 7 a a U G.].B.Y P L.zXaXaXmXmXVXVXMXzXmXcXkXZXZXjXgXvXMXzXMXBXMXCXCXiXJXa.kXaX&.9 9 p r ' '.h.7 7 r 7 I B.'.x.",
"x.J 7 7 i J ' I S 7 7 a J j.x.] B L i.lXs.kXhXZXHXHXVXZXkXlXmXZXmXgX6XdXxXzXxXxXZXiXCXFXiXgXaX:XF 2 7 7 i [ ~.M.I V 7 i G h.] J ",
"k.G 7 i a G U H B 8 5 a a A ] ] Z 8 y.2Xa.9XkXAXCXBXZXcXkXcXAXHXAXcXzXdXdXnXBXHXZXCXCXpX*X0XtX<.B 5 5 7 G [ M.x.K a 7 i i V a 2 ",
"Q a 4 7 r a B B 8 7 7 4 Z ' C.B.G 9 #.kXE.aXkXZXHXAXZXdXlXE.vXnXcX>XW.E.W.6XcXHXVXCXiXpXbXHXpX| I f 7 7 f Z G H a 7 7 4 2 4 4 i ",
"B 4 4 7 p p 8 8 V 8 9 7 S [ B.'.Y 9 T K.lXsXkXmXHXHXmXkXE.M t.4XW.0.6.Q.dXvXnXVXnXtXiXpXtXqXX.A C 9 7 7 7 p Z H f 4 4 i i i i i ",
"a 7 i 4 7 a 8 i 8 a f 9 a B ' B.} 9 9 P <XaXhXbXNXHXnXAXmX6XMXxX0XxX6XxXcXxXnXzXbX0XhXqX/ h 8 C i 2 7 7 4 V I g.Z 2 1 4 4 3 2 2 ",
"G 7 7 4 i V 8 8 a 8 8 2 a 7 J G.x.Z 2 9 X.K.aXjXbXVXAXVXtXxXgXW.4XxX0X4X5X;XfXhXlX7XtXH.8 9 K H A 7 7 2 9 a Z U H 9 2 4 4 2 3 4 ",
"L 7 4 4 i V 4 9 p B V 5 7 7 B C.M.B 9 9 H D.aXaXfXbX0X5XnXbXxXvXxX0X6X4X4X7.8.2X2XpXpX=.5 B C U H 4 1 5 7 7 9 I H 8 3 3 4 r 3 3 ",
"` 8 5 5 9 B a 7 9 B B i p 2 a x.B.` 7 5 a ! 2X1XsXi.8.6.7.d.t.t.d.W.4.4.y.u.y.2X;XtX&Xh 7 9 8 A G a 2 2 2 2 2 J U a 6 2 4 3 * 4 ",
"' B 9 2 9 a i 7 7 V B 7 4 7 Z k.[.h.I p 9 f >.aX=Xu.u.u.0.W.dXQ.Q.vXvXW.9XfX>X:X1X0X1.2 5 9 B B A B 2 2 2 4 2 V U B 2 2 4 3 3 3 ",
"[ Z 7 2 7 8 a 8 9 a a 2 7 a S h.x.] G 9 h P #.K.:Xu.2XhX9XxXmXxXgXxXnXvX9X6X:Xi.1X%X).=.F 5 O Z U Z 2 5 5 1 7 B ' H a 2 4 4 * 1 ",
"I G 7 5 4 2 8 a 9 i 8 4 7 a B A C V 9 8 R n $.3.K.u.u.<X9X6X>XE.:X>X6X6X9X5X-X>X=X&X<.1.<._ 4 d A C 2 4 5 3 9 Z U H V 3 6 4 * 1 ",
"' ` C 7 4 2 9 7 9 8 7 5 7 2 8 B B Z T P @.< m $.p.i.J.-X:X6XfXfXgXzXhX1X8X5X=Xw.#X7X#.x b ).! 7 H H T 2 4 4 9 B B B a 1 1 3 1 7 ",
"U I B 9 2 5 4 2 B B 9 4 2 9 Z Z B T A H.*.X < $.p.r.p.K.-X1XzXbXzXkXfX2X1X<Xw.J.=XqXE o < $.wX~ A A Z 1 2 7 2 4 a a a 7 3 1 1 i ",
"B V Z 8 2 2 7 7 L U C 7 2 2 B G 8 9 #.<X3.< X *.K.r.8.p.-X:X2X:X2X=X-X>X=Xe.9.w.:X&X#.X o n @X).{ G J B 2 1 4 p B i Z V 7 1 2 a ",
"U I ` K 8 4 2 a A U C 9 2 5 C A 5 T J.2X&.o X $.J.K.8.7.0.e.3.8.7.3.7.7.7.7.w.;XJ.8X#.  X m %.P._.k.M.[ 8 1 i G B 9 V C 8 0 1 B ",
"' C ` h.G 4 9 7 8 A H 9 1 9 B H T %.J.3X3.o   4.K.K.s.r.7.*.n m b m b $.7.w.u.-XJ.J.*.< , x m $XKXz.k.B.U 2 a C 8 2 9 C V 1 3 8 ",
"' 2 B k.[ r * 4 9 C G 8 0 5 8 B P q.3X3X*.< o 4.J.K.2Xa.y.8.3.$.n R 3.0.J.i.=X:XJ.H.5.x o < @.%XKX_.| !.M.i 5 C T 1 2 Z C 2 3 7 ",
"' 8 7 ] ] B 2 2 2 C J a O 0 9 L <.-X;XJ.R o < s.u.:X2XT.t.y.i.:XK.K.p.p.u.u.E.>X-Xy.5.N < < %.eXuXKX_./.~.V * S B 9 1 8 B 2 O 3 ",
"[ B 1 ` h.C 9 2 2 d S B 9 h 1.i.H.u.J.qXR o < s.J.i.:X,Xp.y.y.T.2XK.y.y.y.T.:XT.i.e.r.m < x -.%XeXuXKXuX`.`.j j S 2 1 Z Z 4 O * ",
"] K * H g.V O 9 O T Y =.5.J.H.s.:Xu.;X8X&.o N r.p.K.2X2X:Xi.e.7.3.5.8.p.i.:X>Xu.T.r.s.n o n w.$X$X_.FX).I._._._.:.W d j 7 1 0 O ",
"g.` 8 I ] B 1 9 P 1.H.K.K.H.s.J.:X=X=X7XH.< < f.a.a.u.E.:X=Xu.y.r.e.p.i.i.:X=Xi.i.8.s.m x %.4X&XI.eXuXeXP.Y.P.P.uX_.`.O.F * O 1 ",
"` ' I I A 9 P H.L.K.K.J.J.H.H.K.R.w.=XtX8X$.< R K.p.u.:X:Xu.u.:XE.T.i.u.:XT.i.y.p.p.7.n %.-.0XrX&X%XuX_.P.6.;.I.).*XrXwXwX=.4 O ",
"9 G J U / <.fXL.J.K.J.s.J.e.e.K.<XH.=X6X8X;XN M p.p.p.i.i.a.a.t.y.p.y.p.:XT.t.t.u.T.3.0.;.,.4XeX&XI._.uX;.-.;.,.I.I.rXrXuXKX_.P ",
"9 T k.m.p.2XqXH.K.qXK.K.K.e.J.;X>X;XH.<X6XLX%.N 5.K.e.p.a.a.p.p.y.y.r.E.E.p.y.s.E.y.I.U.,.%X4XeXpXuXwX$X,.-.@.q.Y.9.9.q.U.U.uXFX",
"9 g.D.J.1XqXqXaXK.qX3X3XJ.e.J.3X;X=XH.-X4XLX;XN *.K.a.y.2X,Xy.p.y.y.p.2X:Xt.y.T.W.Y.tXI.%XyXU.rXwXwX).P.>.-.@.Y.I.U.q.I.9.I.$X).",
"T D.<XaX9X3X;XaX3XJ.9XhXw.7.3X3X:X<X#X<X>XGXLXM M K.1X:X:X1X,Xs.r.s.a.2X:Xi.T.6XW.W.UXP.GXyXU.%XrXeX).I.;.-.E 9.9.U.U.U.U.U.U.wX",
"X.J.aX9XhX3X=X8X3XJ.3XhX8.8.fX9X3X3X=X8X4XtXUXJ.M s.lXaX,XfXfXa.a.K.,XsX,X:X,XsXY.UXGXyXGXU.U.W.eXeXI.Y.-.;.E 9.I.U.U.U.W.R.U.%X",
"J.hXL.qX9X;X;X0X3XJ.<X<X7.p.hX3X;X:X;X0X5XpXUXVXf.L.L.L.dXjXsXfXdXjXjXfXdXaXa.a.iXIXyXGXtXU.U.4X*XeXI.q.-.;.b Y.U.U.#XU.%XU.U.%X",
"L.L.3XpX8X;X=X1X3X<X;Xw.7.<XhX3X;X<X=XqX<XpXLXUXL.L.L.L.kXkXsXgXdXzXjXfXdXaXE.,XPXPXGXFXU.U.#X4XwX&XY.9.,.%.m 9.Y.R.U.%X%X4X#X%X",
"qXqXhXhXfX:XH.sX9X>XK.5.e.hXhX8X<X6X=XqX<X7XCXLXHXhXDXlXlXlXjXsXsXdXgXdXjXsXtXHXIXPXGXI.9.U.4X%XuX$XI.9.,.#.m 9.Y.U.W.%X4XU.;X@X",
"3XL.hXfX9X=Xu.8X5X<XJ.*.J.zXhX9XqX6X-X8XgXU.LXCXPXVXmXkXkXkXsXsXaXfXhXdXdXvXCXIXPXPXiX,.9.=XU.$XuX@XI.9.9.#.b 9.q.U.U.%XU.W.4X%X"
};
