/* XPM */
static char *_fa89ac96e184f94fcec661e36dd5421qSYcXW8sJABjzglM[] = {
/* columns rows colors chars-per-pixel */
"10 10 85 1 ",
"  c #523D3C",
". c #634E4B",
"X c #685352",
"o c #6A5554",
"O c #7B675E",
"+ c #796461",
"@ c #7C6766",
"# c #7D6960",
"$ c #7C6861",
"% c #7F6B62",
"& c #7F6A69",
"* c #867269",
"= c #87736A",
"- c #85706D",
"; c #87736C",
": c #8A766D",
"> c #897471",
", c #8B7673",
"< c #8D7970",
"1 c #8E7A73",
"2 c #8E7978",
"3 c #917D76",
"4 c #917C77",
"5 c #948077",
"6 c #95807D",
"7 c #96817C",
"8 c #97827D",
"9 c #97827F",
"0 c #99857C",
"q c #98847D",
"w c #988380",
"e c #9A8582",
"r c #9B8685",
"t c #9E8986",
"y c #A08C85",
"u c #A18D86",
"i c #A38F86",
"p c #A28E87",
"a c #A08B88",
"s c #A28D88",
"d c #A38E89",
"f c #A48F8A",
"g c #A49089",
"h c #A5908B",
"j c #A5908D",
"k c #A6918C",
"l c #A7938C",
"z c #A7928D",
"x c #A7928F",
"c c #A8948D",
"v c #AA968D",
"b c #A9948F",
"n c #A99491",
"m c #AA9590",
"M c #AB9790",
"N c #AC9891",
"B c #AD9992",
"V c #AD9893",
"C c #AF9A95",
"Z c #AE9996",
"A c #B19D96",
"S c #B19C97",
"D c #B29D98",
"F c #B39E99",
"G c #B49F9A",
"H c #B4A099",
"J c #B6A299",
"K c #B5A19A",
"L c #B6A29B",
"P c #B5A09D",
"I c #B6A19C",
"U c #B7A29F",
"Y c #BAA69F",
"T c #B8A3A0",
"R c #BBA7A0",
"E c #BCA7A2",
"W c #BCA8A1",
"Q c #BEA9A4",
"! c #BFABA4",
"~ c #BFAAA5",
"^ c #C0ACA5",
"/ c #C1ADA6",
"( c #C3AFA8",
") c #C9B5AE",
"_ c #CBB7B0",
/* pixels */
"##=<0zh4+.",
"O=5pJEDfj>",
":0pN!Yzfj-",
"vJAJ(IavI9",
"gCNCEDzDn,",
"1flNIDmCt-",
"pA~!~EICr@",
"ME_)~ETn2o",
"1qggmDteX ",
"#;99fvw9&o"
};
