/* XPM */
static char *_116bc5f892741acdb2ef6feefdc2024f3rWAt6dWWs1LD9g[] = {
/* columns rows colors chars-per-pixel */
"64 64 195 2 ",
"   c #1D070B",
".  c #22090C",
"X  c #240D12",
"o  c #261215",
"O  c #291013",
"+  c #2B151A",
"@  c #2E191E",
"#  c #341B1F",
"$  c #381F22",
"%  c #321D22",
"&  c #3D282F",
"*  c #3B2627",
"=  c #35302C",
"-  c #3D3834",
";  c #422A2C",
":  c #422925",
">  c #47322D",
",  c #432D33",
"<  c #453235",
"1  c #4A3333",
"2  c #4D3B36",
"3  c #47343A",
"4  c #4C353B",
"5  c #4E3C3B",
"6  c #503836",
"7  c #50373D",
"8  c #513A3B",
"9  c #513736",
"0  c #4A423E",
"q  c #55443F",
"w  c #5A413D",
"e  c #61463F",
"r  c #4E3B42",
"t  c #543D42",
"y  c #583F43",
"u  c #4C4743",
"i  c #564245",
"p  c #5A4543",
"a  c #554945",
"s  c #5C4A45",
"d  c #5B454A",
"f  c #5C4A4B",
"g  c #57444A",
"h  c #5E514C",
"j  c #5E4B51",
"k  c #624B46",
"l  c #60474B",
"z  c #624C4D",
"x  c #6B4F4B",
"c  c #64524D",
"v  c #6A524D",
"b  c #634E52",
"n  c #684F55",
"m  c #645353",
"M  c #6B5554",
"N  c #6D5A55",
"B  c #665359",
"V  c #6B565A",
"C  c #6D5B5A",
"Z  c #635C57",
"A  c #725754",
"S  c #725A55",
"D  c #715759",
"F  c #735D5C",
"G  c #795F5B",
"H  c #6E615E",
"J  c #75635D",
"K  c #7B645D",
"L  c #6F5C61",
"P  c #735E62",
"I  c #785F63",
"U  c #6B6662",
"Y  c #756363",
"T  c #7A6563",
"R  c #746965",
"E  c #7D6A64",
"W  c #776269",
"Q  c #7B656A",
"!  c #736B68",
"~  c #7D6B6B",
"^  c #7F706D",
"/  c #7E6A71",
"(  c #7F7671",
")  c #7E7975",
"_  c #816562",
"`  c #826C66",
"'  c #80676C",
"]  c #836C6C",
"[  c #8A6E6B",
"{  c #847067",
"}  c #887267",
"|  c #85726C",
" . c #8A746D",
".. c #8B796F",
"X. c #846D72",
"o. c #896F72",
"O. c #857373",
"+. c #8B7573",
"@. c #867974",
"#. c #8C7A74",
"$. c #867278",
"%. c #8B7579",
"&. c #857C7A",
"*. c #8D7B7A",
"=. c #917573",
"-. c #927C75",
";. c #92777A",
":. c #927D7B",
">. c #997E7D",
",. c #8E817B",
"<. c #928177",
"1. c #95837C",
"2. c #9A847D",
"3. c #96897E",
"4. c #9B8A7E",
"5. c #937D83",
"6. c #987F83",
"7. c #8E8985",
"8. c #958483",
"9. c #9B8583",
"0. c #968984",
"q. c #9C8B83",
"w. c #9B8589",
"e. c #9C8B8A",
"r. c #968889",
"t. c #9D9186",
"y. c #9F918A",
"u. c #9D8A90",
"i. c #A18684",
"p. c #A18C85",
"a. c #A0878A",
"s. c #A28D8A",
"d. c #AA8E8B",
"f. c #A29186",
"g. c #A4938B",
"h. c #A9958D",
"j. c #A6998F",
"k. c #AB998E",
"l. c #B09A8F",
"z. c #A38E91",
"x. c #A59393",
"c. c #AB9592",
"v. c #A79991",
"b. c #AC9B93",
"n. c #AA9698",
"m. c #AD9C9A",
"M. c #A49A98",
"N. c #B19693",
"B. c #B29C95",
"V. c #B29D9A",
"C. c #BA9E9A",
"Z. c #AEA196",
"A. c #AFA19A",
"S. c #B2A196",
"D. c #B4A39B",
"F. c #B9A59D",
"G. c #B5A99C",
"H. c #BBA99E",
"J. c #AEA4A2",
"K. c #B5A3A2",
"L. c #BAA6A1",
"P. c #B7A9A1",
"I. c #BCABA3",
"U. c #BDADA9",
"Y. c #BEB1A6",
"T. c #BEB1A9",
"R. c #C1A6A1",
"E. c #C1ADA4",
"W. c #C2AEA9",
"Q. c #C3B1A6",
"!. c #C1B0A9",
"~. c #C4B3AB",
"^. c #C9B5AD",
"/. c #C6B8AE",
"(. c #CAB9AE",
"). c #C2AFB1",
"_. c #C6B4B1",
"`. c #CAB7B2",
"'. c #C7BAB1",
"]. c #CCBBB2",
"[. c #CCBBB9",
"{. c #D1B5B1",
"}. c #D1BEB5",
"|. c #D2BFB9",
" X c #CEC0B7",
".X c #CFC0B9",
"XX c #D2C1B7",
"oX c #D4C3BA",
"OX c #D9C6BD",
"+X c #DBC9BF",
"@X c #DBC7C0",
"#X c #D7C8C1",
"$X c #DBCAC2",
"%X c #E1CCC4",
"&X c #E5D3C9",
/* pixels */
"! u = - ! M.y.r.@.C T 9.+.:.d.+.e.z.a.%.J C M M _ +.v w 8 k v k k e e x } <.} K J v s c c c h Z N z ] * O X   O ; y y 7 4 7 l n ",
"Z u u a &.J.M.r.s.8.:.>.>.>.N.a.d.V.K.d.;.#.%.+.2.q.] [ _ ] } ] } _ S _ 2.d.2...E J J J J H H C S D ;.8 9 1 ; ; 7 l t 1 4 y D I ",
"U U U ! 0.T.A.e.m.m.s.#.d.i.N.d.a.K.W.K.x.d.x.c.V.K.h.L.B.N.h.k.N.d.2.4.R.^.F.h.q.9.q.f.t.1.@. .%.o.N.X.X.' F I D I V n n V ' ' ",
") 7.,.! ( r.&.Y c ~ 9.E o.G >.>.G *.a.9.#.%.:.1.c.c.d.{.R.V.d.N.R.^.R.R.{.XX^.R.E.U.!./.Y.G.j.j.d.a.L.a.a.a.;.;.;.6.o.o.%.' ' ' ",
"U &.! h h H H h p w S v A x _ 9 9 z F M z v F T >.:.:.W.c.p.-.<.4.R.{.E.E.E.F.F.W.W.E.I.P.Z.v.b.x.e.c.:.:.*.] O.%.#.~ ] o.I L D ",
"Z ! Z 0 5 a h p M ; 9 8 l A [ : 9 p z l p k N Y ` ` E V.-.+.E E _ d.R.F.l.l.k.l.V.b.v.s.9.9.9.e.a.%.%.] T F V P ' Q n V V b n n ",
"! &.Y Z a 0 i 0 2 > x M 8 A h.2.A G F F G E [ =.`  .` B.} #.` K _ l.R.D.k.k.c.B.b.b.g.q.3.4.p.g.s.:.O.] ~ E Y ] %.] P Y P z b L ",
"@.r.,.8.1.^  . .*. . .-.[ i.{.{.a.p.i.e.d.c.C.F.g.b.g.}.s.V.h.q.2.H.}.R.F.F.F.I.I.E.L.b.k.m.D.I.b.e.8.9.8.8.6.a.w.w.;.8.*.V n n ",
",.,.8.0.q.g.s.V.F.D.2.N.{.R.N.d.N.C.N.C.R.{.W.^.(.XXXX%X(.XXXXXX^.XX{.^.}.}.Q.E.E.I.I.E.D.S.L.I.m.m.S.m.m.m.m.m.e.m.a.z.r.Y B M ",
"Z J H c c C J }  .+.=.E.R.d.[ =.=.=.=.=.>.i.d.c.Q.+X}.%X+XXX(.XX(.XX(.Q.].^.V.h.:.2.q.2...#.1.8.q.g.U.m.I.n.m.g.b.m.e.8.8.] / @.",
"5 p p * * 2 w v w k M F.[ _ x _ _ _ _ A _ _ } -.l.XXH.Q.(.Q.l.(.^.(.Q.R.E.F.4.{ E | #.| J K ~ E :.8.P.e.K.8.M.r.v.m.r.r.r.&.*.*.",
"0 p p > 5 N K _ v k A N.A A S _ _ _ _ _ _ [ -.i.Q.XXH.Q.(.H.H.Q.Q.Q.F.F.F.k.-.K ` { #.+.J J E T #.*.D.r.A.1.y.8.r.r.1.r.r.O.~ ! ",
"v M N v _ >.>.2.=.[ >.R.>.[ =.[ >.>.>.>.4.4.l.R.OX{.^.^.Q.Q.(.(.Q.Q.E.E.E.H.h.1.<.+.#.:. .E ] ` ^ 1.A.M.A.t.r.#.e.8.@.@.~ E ~ ! ",
"q.9.1.+.>.l.d.d.N.l.C.R.C.4.4.=.C.C.C.N.R.C.C.{.+XQ.Q.^.(.Q.+X(.^.Q.(.XXXX(.{.E.B.g.c.N.h.s.h.h.f.D.I.U.A.A.M.v.g.0.*.&.] ! &.O.",
"L.W.V.1.2.l.d.l.R.C.C.N.R.C.C.C.C.R.C.C.C.l.l.l.E.C.4.Q.OX(.XX(.^.E.Q.XXQ.(.(.Q.!.~.`.E.K.E.W.L.T. X/.Y.A.T.U.T.y.r.r.8.@.^ *.] ",
"8.c.9.M e =.>.2.>.>.=.=.d.2.d.C.>.d.>.>.4.>.4.4.<.4.<.4.(.Q.H.H.E.S.F.H.G.H.H.S.F.^.`.F.c.F.W.B.v.D.A.y.e.y.t.0.y.r.,.&.Y H ^ Y ",
"v ] ..p 1 J }  .J [ ` ` } } -.l.} _ [  . .-.2.=.} } } =.Q.R.l.l.l.4.4.4.4.f.f.f.s.P.V.6.=.1.>.+.<.3.4.3.4.3.<. .1.0.~ H c a m H ",
"S +.1.N s E  ...E 2.2.<.2.=.2.C.} } } =.-.2.4.-.2.4.2.4.{.Q.l.l.4.4.4.4.4.t.q.f.q.V.c.#.%.*.O.+.4.q.g.f.g.g.q.<.<.q.^ C N h c C ",
"| q.v.#.{ :.<.<. .f.s.f.F.B.C.}.l.i.N.C.l.C.E.F.l.R.l.l.OX(.C.C.G.l.l.k.l.S.k.D.I.}.W.c.V.V.c.K.h.k.k.g.k.k.k.s.1.n.1.+.*.^ ^ { ",
"q.b.I.b.g.S.m.V.b.R.F.F.XX}.^.%X{.F.E.^.R.{.}.Q.Q.(.(.R.+X{.Q.Q.Q.Q. XH.(. XH.~.W.}.W.K.W.U.L.`.H.H.D.k.N.S.F.C.g.I.m.c.V.g.8.8.",
"g.M.P.A.D.T.Y./.].$XXX/.XXQ.D.^.~.F.I.E.F.E.(.E.(.Q.Q.H.(.Q.Q.Q.(.(.(.H.(.(.j.D.s.h.q.9.g.q.w.c.H.E.E.D.F.R.Q.Q.V.~.V.c.m.s.r.8.",
"t.y.b.j.x.A.S.D.I.(.(.H.k.4.<.k.B.h.h.h.h.N.H.R.Q.Q.H.l.Q.H.Q.Q.Q.G.Q.Z.H.S...q.1.-. .| +.| | -.2.k.S.F.F.S.F.D.L.L.d.1.;.*.;.+.",
"0.0.y.0.t.M.g.g.k.Z.D.Z.4.-.1.f.9.q.2.-.q.g.k.H.(.R.H.l.S.l.Q.Q.G.G.Q.4.G.G.~ 1.1.| |  .~ ` { ~ ` 4.l.S.l.l.h.f.L.V.p.=.' ' =.Y ",
",.3.j.y.v.P.D.D.I.D.G.Y.k.f.k.4.p.c.4.1.h.N.B.^.(.R.l.4.S.4.4.S.Z.G.Q.G.I.Y.| q.q...#.*.| ..*.{ { 4.F.F.B.d.d.4.N.d.i.>.' [ =.D ",
"y.A.Z.Z.~.T.U.'.'.'.Q./.}.~.D.B.D.F.V.B.F.D.I.XX(.(.Q.Q.H.G.H.Q.Q.Q.Y.Y.Y.Y.Y.Y.U.!.g.S.P.P.b.B.k.R.F.Q.F.k.E.N.W.V.d.d.5.;.>.;.",
"g.v.v.A.'.T.G.T.T.T.I.I.E.G.G.Q.I.^.~.I.W.I.I.^.~.E.H.E.Q.(.(.(.(.Y.Y.Y./././.Y.'.oXI.~.`.].!./.H.^.H.Q.F.B.^.F.L.N.N.d.a.a.a.i.",
"E 0.t.8.q.v.v.b.f.k.f.<...-.h.Q.c.I.I.V.B.S.b.k.l.h.4.f.Q.Q.Y.Q.G.Z.4.j.j.Z.Z.Z.P.~.Z.A.V.S.V.I.S.S.h.b.h.f.S.g.N.a.9.9.>.>.6.>.",
"Z 0.t.J E f.b.q.1.f.f.1.....f.Q.g.F.D.p.q.k.k.h.k.4...4.G.Q.4.4.4.4.4.4.3.3.3.t.g.D.f.q.q.4.9.g.f.4.4.q.4.p.k.q.E.d.=. .] [ ;.o.",
"J t.1.M N q.B.9.q.B.H.F.B.h.l.E.b.F.b.9.1.g.D.S.D.k.3.4.H.Q.k.4.Z.M.j.j.j.j.M.Z.j.P.Z.y.j.t.4.t.4.4.3.3.3.f.b.g.!.p.E D D G ' I ",
"..g.v.#.E #.h.b.D.I.Q.E.R.D.F.^.P.F.F.v.t.b.I.Q.H.Q.l.Z.(. XG.Q.G.Y.P.G.Z.G.Y.Y.G./.T.D.I.S.G.Z.j.t.4.4.3.j.S.b.L.2.T D D I ' _ ",
"q.F.].W.g.s.B.F.W.W.R.F.H.R.E.}.P.F.Q.'.Y.I.~.(.Q. XQ.Q.XXXXQ.+XT.'.'.T.Y././.G.P.'.~.I.].Q./.Y.G.Z.G.Z.j.Z.D.b.F.f.9.2.6.w.i.6.",
"h.F._./.~.^.L.2.b.B.l.N.B.l.l.F.s.q.F.oX(.P.F.D.S.(.H.S.H.G.S.XXZ.T.G.Z.M.G.G.7.j.D.b.f.Y.D.G.Z.G.G.G.G.Z.v.j.q.m.c.V.K.V.c.d.i.",
"1.=.:.q.b.^.h.s } >.4.4.4.-.} 2.| E f.(.I.k.k.f.g.S.g.4.q.4.4.D.j.y.9.#.1.g.1.c | ..#.J k.1.h.q.f.f.S.I.A.g.4.~ #.,.9.a.>.%.+.] ",
"K E ] } :.B.p.l _ =.2.<.=._ _ _ J N -.S.k.4.t.q.<.<...| <.<.1.k.4.7.#.} { #.E q { ~ E J g...q.2.<.<.Z.k.f.f.:. .J J Y _ Q Q X.] ",
"` ..1.:.9.F.B.} -.4.2.=.-.-.-.>.<.} f.G.k.q.g.f.<.<.4.4.4.f.Z.I.j.g.f.q.1.1.#.K -. .#.-.Q.p.c.k.3.4.Q.H.j.k. .| E N F Y W X.*.5.",
"q.f.V.L.R.`.(.D.C.R.l.l.C.C.R.^.~.G.~.XXH.S.H.G.G.H.~.Q.F.G.(.OX/.~.!.~.P.F.D.S.g.p.b.D.OXD.P.D.S.H.XX(.D.b.*.#.8.%.+.&.%.5.e.a.",
"x.s.v.L.I.P.I.F.Q.Q.Q.{.^.R.F.E.(.Y. XXX~.~.XX(.].(.XXXX^.Q.].XX^.!.!.'.Q.I.`.].!.!./.!.#XE.~.S.H. XG.G.j.Z.S.b.c.p.e.r.:.%.5.5.",
":.|  .1.4.3.9.k.{.^.R.R.R.h.4.l.D.l.H.^.I.(.OX].(.Q.I.Q.(./.Y.F.S.v.B.F.S.S.I./.^.'.!.D.I.P./.S.f.H.3.Z.k.S.P.b.a.w.8.r.O.Y I I ",
"N N N S K K { <.E.F.l.4.2.-.2.f.4.3.k.S.S.E.(.G.b.S.b.S.~.Q.b.k.g.q.f.v.g.v.m.D.S.m.g.1.9.q.j.1.<.f.<.j.Z.G.g.<.#.~ ] O.P n b b ",
"2 s k s c S K { d.d.4...} }  .-.} { 3.g.f.S.H.f.<.f.j.b.I.S.f.k.f.9.q.g.s.f.k.g.S.b.f.<.,...1.E ^ <.^ 3.j.I.<.R C z f M j i t g ",
"c J ~ J K  .#.#.g.b.N.f.4.i.p.4.3...4.j.f.l.H.j.j.k.k.G.Q.E.S.Z.D.b.b.b.g.j.b.b.]./.K.g.9.3.3.1.3.,.( ,.8.P.x.,.~ C V P L b d j ",
"t.b.m.b.Z.F.I.P.].].}.}.}.}.{.Q.^.H.Q.(.~.XX+X X(. XXXoX$XOX(.(.].~.~.T.P.P.E.I.oXoX].~.!.~.~./.Y.Z.Z.y.v..XU.m.x.0.8.e.w.*.5.5.",
"I.P.P.!./.~.~.].}.].}.OX%X%X+XOX&XXXXXOXXX+X&X+XOXOX(. XoXXX(.]. X/. X X'././.Y.].'./.Y.Y.Y.Y.G.G.G.T.Z.t.Y.v.g.n.e.w.e.r.5.5.r.",
"b.f.f.V.D.b.b.F.B.p.p.S.Q.(.^.(.oX~.~.(.~. XoX(.XX(.H.k.S.S.S.D.Z.A.U././././.P.A.b.v.g.g.t.0.1.j.Z.Y.3.J *.! E ( Y W Q L L L $.",
"t.,.,.t.c.q.q.g.<. .#.g.H.Q.E.H.Q.H.H.Q.(.^.(.~.OX XD.f.4.4.4.f.,.1.4.j.Z.I.T.Y.t.t.q.t.j.g.t.0.y.j.T.3.C J ! ! Z j Z B j j L / ",
"1.@.#.8.q.8.<.2... .<.S.(.(.H.F.H.H.Q.^. X^.~. XOXXXD.4.<.<.<.3.| ^ ( @.,.j.Y.P.v.j.j.M.b.j.j.y.t.y.T.Z.,.@.,.^ U L L W P L / w.",
"<.,.<.8.e.f.q.q.4.q.k.Q.XXXXQ.H.Q.Q.^. X X(.Q.XX].(.H.g.f.f.4.f.t.3.3.3.t.A./.Y.~.T.Y.P.G.v.g.j.t.t.T.T.J.e.m.&.$.Q / / / W $.5.",
"q.f.g.v.S.I.I.P.F.H.Q.XX+XOXXX(.(. X(. X X~.(.+X XXX(.Q.Q.~.^.(. XQ./.Y.Y.oX+X X#XOX.X X/.U.P.P.J.Z.J.T.U.n.[.M.7.$.) $./ L / 5.",
"1.1.S.I.I.~.~.^.Q.~.oX(. XXXXXXX].(.W.~.}.~.W.}.~.}.].XXXXoX+XXX#X#XoX.XoX#X.X_.!.#X!.!.P.M.P.m.y.m.7.r.u.*._.8.L W P j L g B V ",
"N ` b.I.F.F.F.F.I.Q.(.Q.Q.(.Q.(.I.K.c.V.E.F.D.I.B.E.I.Q.^.(.(.Q.~.!.T.U.P.T.U.D.P.[.J.e.r.#.r.@.~ 8.Y W Q W u.j r r t - r - r r ",
"> M c.L.D.V.B.D.I.~.~.Q.H.Q. XY.D.v.q.q.c.c.f.g.q.B.B.D.H.H.H.D.P.S.Z.b.m.m.V.m.x.W.c.1.#.O.%.Y Q %.Q Q W / z.b 3 r r 3 r r & r ",
"p ` F.~.L.P.F.P./.].Q.~.Q.G. X XW.F.c.h.V.B.c.g.2.S.S.G.Q.^.Q.E.!.K.P.U.F.P.I.K.m._.D.b.n.e.e.*.*.r.*.5.$.5.K.@.b B L B L B y r ",
"-.i.I.E.F.L.D.S./.].H.(.Q.S. XQ.W.W.W.W.W.~.I.D.b.^.E.H.(.XX(.Q.oX!.`.[./.`.`.L._._.U.U.L.m.x.g.x.s.x.n.X.X.r.%./ / W W / / W / ",
"#.+.9.9.8.9.9.9.b.D.q.Y.H.3.Z.j.g.b.I.W.E.W.I.b.I.oXH.B.I.Q.F.D.P.b.P.I.P.I.I.e.D.m.q.e.v.w.8.e.z.r.n.K.C t d p y t 3 r r j L / ",
"V z F T J E T | *.<.E l.k.N | ^ @.#.8.1.:.9.e.-.L.`.g.#.4.q.<...<.| 1.q.9.b.b.@.*. .` ~ +.| ~ %.] Y w.z.r + o + @ @   X X & , t ",
"z p C P C M M T H E Z j.4.q c h | E E J M K ` J B.L...M E K J N J N ~ +.#.v.m.@.{ ~ E Y ! { Y T V m :.e.< + o + + % o @ + & , t ",
"7 7 b b z f t C J N m r.1.i a c +.E Y F z F | J W.I.-.E ..} E E K | `  .@.F.D.*. .#.*.| %.*.o.O.%.Q w.x.P n y d r t r y r r t V ",
"P D V n F ~ P X.,.*.*.K.V.~ ~ @.a.8.p.q.8.q.f.w.].].b.h.b.v.h.c.g.j.e.d.s./._.b.c.n.V.m.m.V.z.x.x.w.V.L.e.6.5.;.5.5.W W I P P $.",
"%.6.5.%.e.K.K.).U.m.U.[.[.K.F._._.)._.[.oX]._.`.`.|./.`.`.~.^./.oX].`.`.W.|.].W.U.U.~._.[.~.K._.c.a.a.d.x.z.z.6.u.6.5.5.5.' I X.",
"' z.n.w.6.z.u.n.x.8.z.w.x.x.J.[.V.K.V.V.W.D.c.L.c.V.L.`.W.V.H.D.I.I.I.~.L.b.s.e.d.9.c.b.V.n.s.K.:.;.Q W ;.' ;.X./ P I I 5.V y t ",
"4 5.5.W P P L W Y B W c L O.8.M.] @.E ~ :.%.~ :.T | 9.S.b.2.0.9.q.a.c.c.s. .E ] E J E ] +.] _ w.F T x p D l D D l y y n L y & O ",
"+ P I n L P I / C m Y g Y X.8.r.M Y F P %.| J ` s N ` x.k.:.:.2.9.h.B.h.s...] %.] J T ] _ Y Y 8.V F M M D l l n l y y n V d ; # ",
", $.W j L P W W L B W j Q O.r.8.F ~ E ] #.%.T J c J  .v.F.8.:.q.i.B.F.a.g.-.:.9.1.:.:.:.:.%.%.b.>.;.;.w.6.;.I ' _ n l D ' ' l l ",
"y 6.$.L Q Q Q ~ Y L Y j $.*.n.r.%.8.;.&.1.*.` J Y @.:.D.~.s.<.f.s.F.^.c.B.s.s.g.a.q.s.s.a.q.a.U.N.a.c.L.N.N.o.;.' _ n ' 5.6.' ' "
};
