/* XPM */
static char *_540dec198ae418d993659e4dd0b313cbAMqo9cq5ktyqPCa[] = {
/* columns rows colors chars-per-pixel */
"64 64 250 2 ",
"   c #0C0100",
".  c #190A06",
"X  c #1F1211",
"o  c #200E02",
"O  c #23130B",
"+  c #271814",
"@  c #2C1713",
"#  c #34261C",
"$  c #372626",
"%  c #3D342F",
"&  c #2E1B21",
"*  c #4A3828",
"=  c #563D24",
"-  c #5B3934",
";  c #463533",
":  c #633E37",
">  c #4D341C",
",  c #5B452A",
"<  c #584838",
"1  c #4E4130",
"2  c #65482C",
"3  c #7B5428",
"4  c #654C33",
"5  c #694D33",
"6  c #664839",
"7  c #64533C",
"8  c #6C543A",
"9  c #695538",
"0  c #73573C",
"q  c #7F613F",
"w  c #503B47",
"e  c #5A555A",
"r  c #5B4C4D",
"t  c #6A4C46",
"y  c #724D45",
"u  c #6C5B43",
"i  c #675848",
"p  c #745D44",
"a  c #775948",
"s  c #685856",
"d  c #7B5C54",
"f  c #604E5A",
"g  c #6D6249",
"h  c #7A6245",
"j  c #74634B",
"k  c #7C644A",
"l  c #79674A",
"z  c #746554",
"x  c #7C6552",
"c  c #7C6B54",
"v  c #7B6C5B",
"b  c #75685A",
"n  c #7B725A",
"m  c #6F6453",
"M  c #695A64",
"N  c #776B66",
"B  c #7C7164",
"V  c #7E766C",
"C  c #776D71",
"Z  c #885C34",
"A  c #81592A",
"S  c #8A6438",
"D  c #94673D",
"F  c #9D733D",
"G  c #A0773F",
"H  c #835C53",
"J  c #815A4C",
"K  c #85684B",
"L  c #966A44",
"P  c #9C7444",
"I  c #99744A",
"U  c #836C53",
"Y  c #886759",
"T  c #83735B",
"R  c #8D755C",
"E  c #8B7154",
"W  c #987858",
"Q  c #966F50",
"!  c #A37B4C",
"~  c #A47A47",
"^  c #A47B52",
"/  c #8A6B64",
"(  c #936C64",
")  c #9A6F68",
"_  c #877867",
"`  c #937B63",
"'  c #9B746D",
"]  c #9B7A6C",
"[  c #967768",
"{  c #877A76",
"}  c #9B7C74",
"|  c #977D77",
" . c #826A77",
".. c #A27D68",
"X. c #A27E75",
"o. c #9E815D",
"O. c #AA814D",
"+. c #AB8454",
"@. c #A9855A",
"#. c #B38C5C",
"$. c #B18757",
"%. c #BA925B",
"&. c #8C8169",
"*. c #9C846C",
"=. c #988268",
"-. c #8B837B",
";. c #8C8373",
":. c #948373",
">. c #9B8474",
",. c #9D8974",
"<. c #9C827C",
"1. c #97897B",
"2. c #989279",
"3. c #A78868",
"4. c #B38B66",
"5. c #B89469",
"6. c #A48473",
"7. c #A3847B",
"8. c #A38C7B",
"9. c #A98A76",
"0. c #A5927C",
"q. c #AD957C",
"w. c #AC9475",
"e. c #BB9A74",
"r. c #B4937B",
"t. c #B49A7D",
"y. c #B89877",
"u. c #AE8E71",
"i. c #BEA47F",
"p. c #C19C75",
"a. c #C29A6D",
"s. c #C4A175",
"d. c #8D7D85",
"f. c #8D8886",
"g. c #978B85",
"h. c #9B9389",
"j. c #9B9695",
"k. c #978E96",
"l. c #A38A83",
"z. c #AC8B83",
"x. c #A48984",
"c. c #B38D84",
"v. c #A49384",
"b. c #AB9484",
"n. c #AC9B8B",
"m. c #A99788",
"M. c #B39C84",
"N. c #BC9D83",
"B. c #B29D8B",
"V. c #B89889",
"C. c #AC9C92",
"Z. c #A69A96",
"A. c #B59C93",
"S. c #BBA38C",
"D. c #B8A489",
"F. c #A9A399",
"G. c #B4A494",
"H. c #B4A59B",
"J. c #BBA59B",
"K. c #BDAC9B",
"L. c #B8A895",
"P. c #BAB19D",
"I. c #ABA38D",
"U. c #A89CA2",
"Y. c #AAA7A4",
"T. c #B7ABA5",
"R. c #BEBAAD",
"E. c #BBB3A8",
"W. c #ABACB4",
"Q. c #BCB5B1",
"!. c #BDBCB2",
"~. c #B8B7BA",
"^. c #B7AEB6",
"/. c #9E9DA2",
"(. c #C39C8A",
"). c #C3A78A",
"_. c #C4AC94",
"`. c #C4AD9A",
"'. c #C9A994",
"]. c #C5B29D",
"[. c #CAB49C",
"{. c #CCB396",
"}. c #D4BB99",
"|. c #D0B68F",
" X c #C4ADA6",
".X c #C4B4A4",
"XX c #CAB5A3",
"oX c #CCBAA5",
"OX c #C4BCAC",
"+X c #CCBBAB",
"@X c #C5B6A9",
"#X c #D3BDA5",
"$X c #D2BDAB",
"%X c #D5B6A5",
"&X c #C4BCB4",
"*X c #CABDB4",
"=X c #C4BBBA",
"-X c #C6B5B5",
";X c #D5BEB5",
":X c #BFC0B3",
">X c #DAC298",
",X c #D4C1AB",
"<X c #D9C3A9",
"1X c #C4C2B4",
"2X c #CBC3B5",
"3X c #CBC9B5",
"4X c #C5C4BB",
"5X c #CBC4BB",
"6X c #C7C8BC",
"7X c #CBCABD",
"8X c #D4C3B4",
"9X c #DCCAB4",
"0X c #D4C5BA",
"qX c #D3CBBC",
"wX c #DBCCBC",
"eX c #D9C5B6",
"rX c #D4D0BE",
"tX c #C9C2AD",
"yX c #E3CCAE",
"uX c #E0C997",
"iX c #BABCC4",
"pX c #C3BEC2",
"aX c #BDC1CB",
"sX c #BFC5D1",
"dX c #CAC6C2",
"fX c #CBCBC3",
"gX c #C6C6C7",
"hX c #D4CCC3",
"jX c #DBCDC3",
"kX c #D4CDCA",
"lX c #DACFCA",
"zX c #D6C7C1",
"xX c #D5D1C5",
"cX c #DAD2C5",
"vX c #D4D3CC",
"bX c #DAD4CB",
"nX c #DCD9CC",
"mX c #D6D5D2",
"MX c #DBD4D2",
"NX c #D7D8D2",
"BX c #DBDAD3",
"VX c #DBDCD8",
"CX c #CCCCD1",
"ZX c #E3CDC5",
"AX c #E2D4CC",
"SX c #E4D6C8",
"DX c #E2DCD3",
"FX c #E4D8D4",
"GX c #E1CED2",
"HX c #F1E1E2",
/* pixels */
"-X=X^.Q.R.tX].,.T Y ] X.z.T.-XT.T.~.=XQ.Q.1X&XE.R.R.OX!.=X&X=XdXQ.dX4XQ.=XdX5X=X=XdXkXhX5X&X&X1X*X@X XA.c.x.x.<.>.| v..XxXSXnXnX",
"-X=XE.-XR.OX].,.x Y [ } <.C.T.T.T.W.Q.5X*XE.OXqXOX*X*X*X*X&X&X&X&X2X&X1XdX5X*XdXzX*X&X*X0XkX0X*X XT.C.g.| ..[ [ >.:.0..XqXcXnXnX",
"-X=X^.&XOXOX@X,.k Y [ } } z.A.A. XA.C.J.@XXXoX$X[.,XoXoXoXXX.XK.].K.K.oX8X+X.X8XeX*X@X$X8X8XXXJ.Z.v.<.| X.X.X.X.} :.8.T.rXcXnXnX",
"^.=XE.&XR.R.@X0.x d / ' ' d.Z.Z. X`.B.x.b._._.D.D.)._._.).).M.r.w.0.w.D.{._.S.`.'.'.%X'.S.q.8.7.x.| | } d.X.X.X.6.} l.K.0XrXnXDX",
"-X-XQ.=XR.R.@Xn.v d d ' | x.Z.x.c.'.%XN.] ` 3.4.e.5.e.e.e.u.3.^ o.@.@.@.e.e.y.u.r.p.r.u...W W ..} d.d.X.c.X.' ' <.] x..XqXqXbXDX",
"-X=XQ.1XR.R.2XL.Y t d ) x.x.x.x.9.c.(.'.y.W L W 4.#.@.#.#.$.^ P P @.+.O.$.5.$.! 4.^ Q Q ^ ......7.7.X.c.c.(.(.X.} ] z.@XjXcXcXDX",
"-X=XE.&XR.R.3X.X/ t d ) z.z.g.| 6...X.N.(.4.W L 5.#.@.$.+.O.~ ~ G O.G O.#.#.O.+.4.^ Q Q ..4.....X.} } d.d.(.c.X.' ] c.;XAXcXcXDX",
"-X-XQ.&XR.R.qXoX_ a H } z.9.d.| ( ..6...4.y.5.^ 5.#.$.O.O.O.~ P O.G F O.%.$.O.$.a.a.a.a.a.X.^ Y ) Y H Y ) ) ) ) ' [ c.;XSXjXkXAX",
"*X=X&XR.!.tX2X2XC.d y ' | | d.X./ a y R r.(.p.e.5.e.O.D $.#.~ ~ G F F %.%.! $.%.p.a.p.).r.^ H K ) ) ) X.) ( H J d 7. X;XZXZXjXGX",
"*X&X&X:X:X&X1X*XA./ t H / | X.) d x / [ 9.y.i.e.5.5.o.P $.$.~ +.P F O.#.+.P +.s.s.a.p.(.r...( ( ) ) ) ) ) ) ( H ( V.%XZXGXGXMXFX",
"=X&X&XR.R.:X1X2X*X7.t : : : : w b ' 8.8.6.w.t.w.5.5.I I $.+.P ^ I I O.@.$.~ ^ s.s.e.p.(.r.9.X.X.( ( ) H H H H H X.'.pXZXFXbXbXFX",
"-X&X!.R.:X:X1X*X*XA.Y : : - y ' [ <.V.q.6.3.3.3.@.o.I L @.+.L P I S O.5.a.a.#.a.s.e.e.y.V.9.9.c.X.) H H H H Q H c.%XZXZXAXMXkXNX",
"-XOX&X&X:X:X1X2X-XA.' H y : a c.8.,.6.8.,.=.o.3.3.o.q S +.+.~ L L L ^ a.$.^ ~ a.s.e.e.r.r.9.c.c.c.X.H y : J ( ) (.;XZXZXlXbXkXmX",
"*X&X&X!.:X:X1X1XpXA.' ( y - : d ,.R R =.3.o.o.@.#.O.S S ~ ^ ^ D L L 4.^ D ~ D a.e.e.p.t.r.r.9.9.d.) H y J ( X.c.A.;XZXZXAXFXVXVX",
"*X*X1X1X1X4X=X*XZXA.d.) d y H H E E K o.o.o.o.@.o.O.F S Z ~ ~ S L L ..D Z ~ ~ 4.5.a.a.y.r.r.X.X.X.X.) ) ) X.(.%X(.pXZXjXbXBXVXmX",
"*X&X*X4X4X4X5XpX;XJ.x.H - y ( H 0 E R E K E o.o.I O.F 3 3 D ~ Z Z Z ^ Z L a.^ $.#.5.e.p.y.u.4.X.X.X.c.X.) ) d.'.(.ZXAXzXbXNXvXkX",
"*X2X5X5X5XdXdX=X;XQ.x.| / : a H K K k U ` *.*.` R a W @.3 Z O.3 3 ! I S @.e.5.3.u.i.N.y.t.y.9.9.p.c.c.X.Y a |  X XeXAXAXbXlXlXkX",
"*X&X=X*X5X4X4X*X*XT.l.g./ t y y 0 a E ` ,.n.m.v.T p =.3.S S O.3 A o.W I y.i.w.3.u.).).'.{.'.(.N.(.d.c.X./ Y x.+X+XzXZXAXlXlXbXbX",
"*X*X*X=X5X5X=X5X&XE.m.l.) y 6 5 K E ` ] ,.0.v.b.` v 9.t.E L P 3 3 I W 4.}.|.w.t.D._.{._.'.).N.(.V.(.X.' / } A.;X;XjXZXlXkXlXGXFX",
"5X*X5X5XdX5X5X=X5XE.v.8.[ d J J K R =.,.l.A.T..X,._ w.N.W L I 3 3 K W y.<X{.r.S.{.#X[._.`.'.'.{.(.(.(.X.7.V.`.%X0XZXlXjXjXbXFXMX",
"5X5X5X5X4X5X4X&X7XE.0.,.] E W E E ` ,.0.n.H.T.K.1._ 0.t.o.L o.D S I o.t.<X_.w.B.`.XX`.L.[.%X%X%X'.'.'.'.'.}.#X$X8XZXAXAXlXbXMXMX",
"*X*X*X=X4X5X1X&X:XP.2.,.*.W ] W R *.b.D.G.H.F.C.1.;.0.b.o.o.o.o.U =.=.M.#X].v.B.+X,XoX+X9X<X[.`.%X>X}.<X<XyX;X$X8XjXcXbXbXMXMXlX",
"5X*X1X2X4X1X1XOXtXL.=.=.` W o.R E *.b.v.1.-.-.-.N B ,.2.=.=.3.o.R 3.9.0.XX`.l.h.H.K.J..XwXSX8X>X>X|.>XuXyX%X%XeX8XjXlXjXlXbXMXlX",
"5X5X2X4X5X6X1X1XtXG.&.R E R W E ` *.` s * + O + $ < z R &.w.w.*.W D.t.8.L.H.:._ r r t _ L.qX9X9X>X}.>XyXyX}.$XyXeXjXjXlXlXMXNXkX",
"5X0X5X5X6X6X6X3X:XtX=.g k W I W U Y * . o     % % + b b 8 w.t.3.*.M.B.B.H. X<     . . . < v.tX<X>X>X|.|.<X,X].,XjXjXjXkXbXbXkXvX",
"5X5X5X5X3X6X3X3XtXtX2.l q K q h 4 u * o O .   $ ; + i n p =.*.3.D.b.V.+X X{ $ @ X ; r $ # j G.<X>XuXuX>X>X}.#X8XwXjXjXbXbXkXvXbX",
"0X7X5X7X7X6X6X3X3X3XD.n h 0 2 5 = p = . . .   . &   < B x ` 3.D.t.G.J.;XpXs X .   X @ O * 1.[.D.i.|.>X>XS._.$X8XZXjXcXjXbXxXvXxX",
"7X3X3X7X7X6X3X6X3XrXP.=.a 5 2 5 0 E 4 o . .     X   < _ T R =.3.0.[.$XeX;X; X X     O O # _ ].M.w.%.).|.t.D.+X8XzXjXkXhXkXhXxXkX",
"5X0X7X3X6X6X6X6X3X3XtX0.j 2 5 8 a E 5 @ o o . .     < | :.*.3.u.(.%X;XZX X& X $     X @ 1 2.SXrX5.@.w.|.S.L.8XwXzXlXjXkXkXxXxXxX",
"3X3X6X3X6X6X6X6X3XrX9XI.x 4 8 0 5 a 6 > @ O . O + $ s >.0.t.D.t.'.%X;XZX%XN ; X $ . X $ n P.uXi.w.w.w.i._.XX8XZXZXbXlXbXcXcXnXnX",
"3X3X3X3X6X3X6X3X3X3XrXK._ a d 0 5 2 5 6 - * ; < v m N >.,.6.w.r.'.'.;X X X Xd.; & $ ; b 2.P.|.i.i.i.i.2.S.+X;XjXlXlXbXvXvXxXxXxX",
"5X3X4X7X6X6X6X6XrXtX3X@X>.T Y h 5 = 2 J K d T g.B i 7 Y ` ` ).{.%XV.'.'.d.J.U. Xg.g.1.v.D.D.2.w.P.uX|.2.B.8XZXjXlXkXkXfXxXxXxXxX",
"6X5X6X4XfX6XfX7X6X3X3X3XL.&.c c 0 2 = 2 a ` ` R 5 2 - : H X.'.%X%X(.r.6.6.9.D.XX[.]._.S.0.] 9.B.[.oX@XP.@XqXcXhXqXqXkXhXkXlXMXlX",
"dXdXdXdXfXfXfXfX6X3X3X3XP.2.T c h 2 2 2 9 p K j 0 2 : 3 Q c.(.'.%X'.c.7.*.] t.{._.S.).S.r.w.c._.8X8XtXE.OXrXnXrXhXfXkXkXlXlXMXGX",
"dXdXfXfXfXfX6X6X6X3X3X3XtX2.n l K k U U c E ` ` a ` ) : y X.(.(. Xc.c.(.[.XX].L.L.D.b.b.M.V.).%XeXeX2X&X3XbXbXxXxXxXxXvXbXGXMXMX",
"fXhXfXfXfXfX6XaXrX6X3X3XtXI.V u , 2 0 j p j T R / V.d.y > y X.d.( ( x.@XSXSXoXB.P.M.8.0.n.S.`.oX+X*X2X2XqXnXSXkXxXbXbXnXbXbXMXGX",
"qXhXfXfXfXfXfXfXxX6XfXrX5XP.:.j g p c c v _ 2.h.G.C.A.g.f $ - / y d.-XFXFXzX;X@X2XK.C.G.L.G.G.L.J.E.*XqXcXFXnXxXxXvXxXnXbXbXbXbX",
"fX7XdXhXCXfXfXfXfXCXxX7XhX2XC.{ n g g j b &.m.C.T.H.T.-XA.M : f d. XGXHXHXAXlXFXbXzX+XOXXXL.v.v.A.T.*XbXbXAXbXbXnXnXbXxXbXcXlXcX",
"dXqXfXfXCXfXfXfXCXfXfX6XzX0XT.,.n j c b n ;.j.Z.C.U.T.Z.U.U. .w k.U.^.pXGXGXGXkXFXvX4X&XT.n.v.v.J.-XzXAXDXbXMXBXnXxXnXxXcXxXbXcX",
"7X7X6XhXfXfXfXCXfXkXgX:X5X7XE.h._ n _ &._ { 1.| h.f.d.d.d.d.M w M d.U.iXpXCXCXCXDXfXQ.H.C.2.v.G..X;XZXFXFXcXAXDXBXBXNXnXbXbXcXcX",
"qXdXdXhXfXkXgXfXfXfXfXfXkX4Xj.B v ` &.n m b V -.f.f.-.C M f w w f M  .k./.W.~.~.aXY.h.-.1.m.H.tX.X;XjXAXFXDXFXBXvXNXBXDXDXnXcXcX",
"7X7XdXhXfXfXfXgXvXCX4X4XdX&XG.:.b i i g B _ V V -.-.V N M f M f f f M d.k.Y.W.~.Y./.j.h.F.G.L.@X`.+XwXcXAXMXFXFXbXNXMXNXnXnXnXcX",
"3X7X7XdXfXfXfXaXfXfX6XrXqXOXv.B < < 4 b n b v ;.{ V V N C N  .C V C M C f././././.Y.F.H.E.L.n.D.K..X8XwXAXDXFXNXMXNXMXmXnXnXnXxX",
"7XdXdXdXfXfXfX6X:X6X7XrX5XG.{ i , 4 u j i i g { b N B V { { | { h.f.-.f.f.h.j.f.F.Y.H.H.P.D.b.D.S.].,XwXZXAXMXMXMXmXmXmXvXvXcXnX",
"dX7XdXdXdXgXfXfXxX6X7X:XP.2.n u 0 5 , , 7 g u 7 u i g n / _ _ | ;.;.;.;.;.;.f.-.h.Z.Z.n.G.S.D._._.].,X9XZXbXbXbXVXmXmXmXxXvXvXvX",
"7X7XdX6XfXfXfXfX6XrXrX6XL.2.c g k 8 , , 4 h g 4 < , < < i u c _ m n n n m n V ;.;.h.m.m.B.S.S.'.{.}.,X9XcXbXbXvXCXmXmXCXmXmXmXNX",
"dX7X6X4X:XfXfXfX:X3XrX:XI.&.g p 0 0 3 8 9 2 7 9 , 1 = = 1 , 9 u 7 g g g e m V ;.1.n.G.B.S.S.)._.}.}.>X3XZXAXGXVXVXCXmXmXmXmXmXmX",
"dX5X6XaXfX6XfX6XrXrX3XP.2.g g K 8 5 5 0 9 , , 9 , > = , , , , 5 < 9 g l n V &.2.h.G.G.M.S.S.{.#X,X>X<X9XZXFXFXVXGXVXVXNXmXmXmXNX",
"5XfXfXfX6XfX:X:X7XrX3XD.&.c l K q 0 h K k 4 , = 2 , 2 2 2 , 2 8 8 l R =.*.*.0.D.q.M.M.S._.{.}.{.{.[.oX,XZXDXSXxXvXvXmXmXmXNXxXvX",
"6X6X6X6XfXfXxX6XxXrXtX2.T h l l p p K K h 8 4 2 = = = 2 5 8 q K &.=.2.q.M.w.M.D.t.D._.{.}.,X,X<X>X,X,XoX,XcXSXBXnXNXNXNXNXNXmXvX",
"fX:X6XfX6XfX6XrXrXrXP.=.c h q h u a x U k h a 8 5 5 5 0 p K R W w.0.m.I.B.M.b.M._.[.<X<X,X,X,X#X<X<X,XoX,XwXDXDXnXBXVXNXNXmXvXvX",
":X6X6X6XfXfX7X7X7XtXI.2.c c h h 8 k U K x U U j l c K K R :.w.9.L.K.].oXOX].].XX9X8X9X9X9X,XoX[.}.#XoX,XwXSXDXnXnXNXNXmXmXvXmXmX",
"gX6X7X6X6X6X7X7X3XP.0.n l l h p u j c x x U T c x R _ &.*.M.L.G.K.OXwXwXwXwXwXwXwX8X,X9X9XeX$XoX].oX,X,XeXcXnXnXvXvXvXmXmXNXNXNX",
"fXfX6X6XfX:X:X6XrX:X2.g 9 9 p p p x v b v c v v n :.,.1.8.I.K.L.I.E.0XcXjXkXqXwX0X2XtX0XeX*XoX+X[.#X<X+X.X@XrXDXNXvXNXNXNXNXVXVX",
"6X:XfX6X:X:XfX6X3XP.&.g , 9 0 u c b v n v z b n _ h.I.m.m.L.T.L.Y.Q.hXxXbXlXdX&X@XOX2X0X8X.X@X$X#X<X$X].K.@XrXDXvXvXNXvXNXNXNXVX",
":XfX:XaXfXfX7XxX:XP.&.g 9 9 p p T b v B v z b B _ C.T.G.F.OX2X1XT.Q.5XfXkXfX!.Y.j.Y.&XhX0X@X*XwXyX$X_.].+XcXbXcXNXvXvXvXfXvXvXNX",
"fXfXfXfXxXfXfXrX6XL.n g c h g 9 n N B V B m n V h.;.F.!.F.E.xX:XZ.kXvX~.4X^./.Y.Y.1XY.Y.*X*X0X$X_.S.[.9XSXcXbXDXvXvXvXvXNXNXVXVX",
"6XxX:XfXfXfX7X7X:XI.g 7 g 9 9 4 7 < 7 m n V V V &.V j.:XE.E.:XfXZ.gXgX~.aX~.W.~.W.W.h.g.v.g.n.b.S.#X9XeX+XOX3XxXxXNXvXvXvXNXNXNX",
":XfX6XfX:XxX7X7X6XI.g 7 g 9 h h 7 < < i b V B n N V h.:X!.F.E.:XY.iX~.~.aXaX~.aXiXW.k.g.g.g.C.A.[.9XyX+XL.T.2XxXnXNXvXvXvXvXNXNX",
":X6X6X7X7XsX7X7XrXI.m i l 0 h l m g 7 < m B b e N ;.h.F.!.Y./.:X~.~.~.aXsXaX~.aXiXY.k.j.h.m.J.XX9XyX#X`.K.+XqXxXxXvXvXNXNXNXNXNX",
":XfXfXfXfXfX7XxX1XI.g 9 g 4 9 9 9 7 < 1 r m n n N 2.f.h.Y.E./.Y.=X~.aXaXCXsXaXaXsX/./.Y.Z.C.'.XX$X{.L.`.OX0XrXcXvXfXvXvXvXvXvXvX",
":X:XfXfXfX6XfX7X1XF.n g g 4 9 , < < 1 * 1 g V V V f.2.f.Y.E.Y.F.=X~.gXgXCXsXaXaXiXf.f.j.C.A.A.A.N.D.L.].tXtXrXnXvXvXCXvXsXvX6XsX",
":X:X6X6X6X6X6X7X3XR.&.c n l h 9 < , * 1 1 i m &.;.2.f.h.F.Y.Y.Y.iXdXgXaXaXsXsXiXW.e s { g.x.8.q.M.D._.L.P.3XrXnXvXvXvXvXvXfXfXfX",
"W.:X:X6X6X1X6X7XtXOX;.n E E R h 7 1 * 1 1 < e b f.;.h.j.F./.F.T.~.pXaXiXiXaXaXW.W.e e C -.c.b.b._.[._.b.P.rXnXxXxXNXNXNXNXNXNXNX"
};
