/* XPM */
static char *_5a127a9984047cfa69d9298355e33f6XS6xoP8s2USqK9e7[] = {
/* columns rows colors chars-per-pixel */
"64 64 200 2 ",
"   c #352D22",
".  c #362F29",
"X  c #383025",
"o  c #39352C",
"O  c #3F3631",
"+  c #3F3830",
"@  c #433A2E",
"#  c #40362C",
"$  c #443B33",
"%  c #493F35",
"&  c #47423B",
"*  c #4D453A",
"=  c #4C4A3D",
"-  c #494136",
";  c #50463A",
":  c #51483E",
">  c #4E4642",
",  c #4F4A43",
"<  c #534C44",
"1  c #534D48",
"2  c #5B5246",
"3  c #5A534B",
"4  c #5D5A4E",
"5  c #57524C",
"6  c #5E5653",
"7  c #5F5852",
"8  c #62574C",
"9  c #625A4E",
"0  c #655C52",
"q  c #695F53",
"w  c #655D59",
"e  c #6B604E",
"r  c #676155",
"t  c #6C6155",
"y  c #6C645B",
"u  c #6E695D",
"i  c #666259",
"p  c #766654",
"a  c #786652",
"s  c #746957",
"d  c #7B6955",
"f  c #71675C",
"g  c #73695D",
"h  c #7A6B5A",
"j  c #7C715F",
"k  c #6E6663",
"l  c #6B6863",
"z  c #746C62",
"x  c #796E62",
"c  c #747165",
"v  c #7B7265",
"b  c #77716A",
"n  c #7C756A",
"m  c #7E796E",
"M  c #7B7670",
"N  c #817565",
"B  c #82766B",
"V  c #837A6D",
"C  c #897E6D",
"Z  c #817771",
"A  c #847C73",
"S  c #8A7E73",
"D  c #867E7A",
"F  c #897E78",
"G  c #8A806E",
"H  c #868275",
"J  c #8B8275",
"K  c #868179",
"L  c #8D847A",
"P  c #8F897C",
"I  c #918574",
"U  c #938976",
"Y  c #91867B",
"T  c #948A7D",
"R  c #9A8D7D",
"E  c #9C907D",
"W  c #8E8682",
"Q  c #8E8A83",
"!  c #918680",
"~  c #948C82",
"^  c #998E83",
"/  c #998F88",
"(  c #959184",
")  c #9C9285",
"_  c #979289",
"`  c #9D948A",
"'  c #9D998C",
"]  c #9E9693",
"[  c #9E9991",
"{  c #A29686",
"}  c #A39886",
"|  c #A1968B",
" . c #A49A8D",
".. c #A99D8E",
"X. c #A59C92",
"o. c #A99E93",
"O. c #A69D9B",
"+. c #AB9E98",
"@. c #A9A08F",
"#. c #B1A28D",
"$. c #A5A194",
"%. c #ABA295",
"&. c #A7A29A",
"*. c #ACA49A",
"=. c #AEAA9D",
"-. c #B2A595",
";. c #B5A996",
":. c #B1A69B",
">. c #B4A99C",
",. c #BAAD9C",
"<. c #BAAB96",
"1. c #B7B09E",
"2. c #BCB19E",
"3. c #ABA6A1",
"4. c #AFAAA0",
"5. c #B2A6A0",
"6. c #B4ACA2",
"7. c #B9AEA3",
"8. c #B5AFA9",
"9. c #B9AFA8",
"0. c #B5B2A4",
"q. c #BCB2A4",
"w. c #BFB8A6",
"e. c #B7B3AA",
"r. c #BDB4AB",
"t. c #BDB9AE",
"y. c #BDB8B2",
"u. c #C2B49E",
"i. c #C2B5A4",
"p. c #C4B9A6",
"a. c #CABBA6",
"s. c #C1B6AA",
"d. c #C4BAAB",
"f. c #CABDAC",
"g. c #C2B7B1",
"h. c #C5BCB2",
"j. c #C9BEB2",
"k. c #CABFB9",
"l. c #C3BEB8",
"z. c #C7C0AE",
"x. c #CCC1AE",
"c. c #D2C3AE",
"v. c #C7C0B6",
"b. c #CCC2B4",
"n. c #C6C0B8",
"m. c #CDC4BA",
"M. c #CEC8BC",
"N. c #D2C5B4",
"B. c #D8C7B4",
"V. c #D3C9B5",
"C. c #D9CAB4",
"Z. c #D1C6BA",
"A. c #D4CABC",
"S. c #D9CDBD",
"D. c #DCD0BF",
"F. c #CDC6C1",
"G. c #CEC9C1",
"H. c #D1C6C0",
"J. c #D5CCC2",
"K. c #DACEC2",
"L. c #D6CDC8",
"P. c #D9CEC8",
"I. c #D7D1C4",
"U. c #DCD2C4",
"Y. c #DDD4CA",
"T. c #DFD9CD",
"R. c #DFD8D0",
"E. c #E1D5C6",
"W. c #E2D8C7",
"Q. c #E1D7CE",
"!. c #E1D6CA",
"~. c #E4DACD",
"^. c #E9DDCD",
"/. c #E0D7D0",
"(. c #E6DCD1",
"). c #E5DCD2",
"_. c #E9DED3",
"`. c #E5DED8",
"'. c #EADFD9",
"]. c #E6E0D4",
"[. c #ECE2D5",
"{. c #EDE4DA",
"}. c #E7E4DC",
"|. c #F2E5D6",
" X c #F1E7DD",
".X c #F1E5DA",
"XX c #F5EBDE",
"oX c #F3E9DD",
"OX c #FAEDDE",
"+X c #EFEBE5",
"@X c #F2E7E1",
"#X c #F4ECE2",
"$X c #F9EEE3",
"%X c #F8EFE8",
"&X c #F7F0E0",
"*X c #FAF1E4",
"=X c #FEF6EC",
"-X c #FFF8EF",
";X c #F4F1EC",
":X c #FFFCF3",
/* pixels */
"e J N j V s j s V N v N N v N C V x T Z k q F F L T F L B ~ B L S C J A V F W A ] Q w 5 c l 4 u r r r u g y t t 3 q y t k k f 0 ",
"{ p.-.^.W.B.i.p.p.a.f.b.N.C.D.W.'.).+.A.k.z J. X:X{. X$X'.$X#X{.XX.XXX#X X X@XY.O.#X] ] ' P 0.P P E E E T I ~ | q.5.5.s.9.X./ O.",
"R %.C 2.f.j.,.i.p.p.p.,.,.q.i.q.m.h.k :.>.* :.m.X.Z :.k.h.M.(.(.S.S.!.^.Q.R.L.g.K }.Q *.Q u 0.0.p.t.t.t.s.r.g.m.r.+.+.6.+.^ ! O.",
"s <.p.p.p.-.d.i.2.p.s.,.,.p.a.i.d.7.+.=.! 8 *.j.6.| d.g.h.g.A.N.Z.N.U.(.)./.R.L.`.G.u ( =.=.' ' ....$.=.>.:.+.| X./ ~ ~ / / / / ",
"V ,.;.,.f.d.f.,.i.f.f.q.q.f.b.p.N.g.Y.r.t t M./. X X[.g.U.H.h.k.J.B.Y.~.Y./._./.G.M.K Q ( 1.' =.=.>.r.d.s.q.6.+.*.o.| o.+.5.+./ ",
"J ..h } -.f.7.;.j.N.N.j.x.b.N.j.d.+.:.q.f 9 (.H.^ m.Q.g.Y.Y.A..XQ.J.K.P.H.H.U.P.].).H X.1.' ' ( ) o.:.$.| ` | X.+./ ^ +.5.` F Z ",
"h p.d._.b.j.j.K.>.,.i.p.b.N.Z.B.6.T S 7.A 2 N.>.B 6.E.!.U.Y.A.$X(.J.A.J.A.A.M.k.m %.u ' $.v 2.V.q.d.r.q.7.i.g.d.A.k.k.k.H.g.5.+.",
"v i.d.7.d.i.f.:.,.>.7.s.d.i.q.r.b.r.q.b.Y 2 r.h.M.j.N.Q.A.Q.Z.I.Q.M.h.m.H.J.M.r.( d.H j U J %.{  .( L T  .*.X.~ L / / Z Z ! ! Z ",
"| | { ........| %.o.R p 8 q t q r r s v B V H U J ^ ' ) | o.) ) 8 z _ B H n n H ^ J V G C V V V T g V L C q ` X.o.` ^ X.5.X./ O.",
".X|.|..X|.|.'.|.E.E.%.S ,.Z.j.S.d.z.j.b.g.d.v.D.XX XD.Y.XXr.` Y.< 8 h.{.~.A.b.>.i.f.V.b.b.Z.E.^.K.!.=X*.7.F @XA.P.=X=X'.).@X@X@X",
"E.P.!.^.^.E.E.!.7.R Y I S 7._.B.T.U.U.T.Y.U.W.^.x.b.V.I.Z.q.q.N.A $ y *.t.>.q.p.q.p.q.>.,.i.p.i.U.M.M.B >.x Y.T X.P.Q.s.9.P.'.).",
"f.k.K.Q.Q.E.P.E..XK.S f >.S.j.J.V.b.b.M.U.Y.D.M.Y.d.>.>.q.b.*.; # 3 1 < T b.z.2.p.p.2.;.,.f.f.,.d.s.q.d.j.y k.d.Z.P.P.g.g.k.k.k.",
"K.K.E._.|.^.E.^.k.!.i.+.j.Z.Z.^.M.V.I.U.U.U.V.z.b.A.z.M.U.b.>.^ > Z / 5.j.r.>.b.2.x.c.i.2.i.j.f.f.j.7.m.q.q m.@X@X.X!.P.P.H.k.H.",
"^.K.S.k.k.k.k.B.!.k.i.i.S.K.j.:.p.V.U.D.V.v.z.z.V.v.a.U.N.s.f.' 1 ~ 9.h.*.d.x.@.x.V.c.x.f.B.B.B.d.Z.A.s.!.S 7.L r.Z.Z.k.H.L.P.).",
".X^.K.K.K.S.P.P.s.B  .7.Z 7.-X_.~.[.|.].~.].[.[.|.|.*X[.I n { % # w D k.k.j.C.B.<.;.;.u.c.C.S.j.S.K.A.B | 8 5.o.L.).'.Q./.'.'.@X",
"k.g.s.g.k.k.g.g.i.i.+.| :.9.s.k.q.=.' ( @.;.=.@.%.1.%.q.,.;.u.a w 9.5.9.d.d.>.i.2.2.u.a.u.:.;.,.,.>.d.` :.g 6.Z.h.g.g.g.H.g.g.k.",
"t B B Z B f x k B B n x x B B x z m c c u 4 ' P U ) R G I R E E } E  .-....... .:.U 9 T 7.*.k.5.q.>.-.>.:.%.o.%.%.:./ 5.i.5.5.F ",
"/ / / 5.9.+.+.o.` ' | X.:.9.s.s.e.y.n.3.c c U.=.V.W.D.x.x.c.a.a.C.B.c.a.S.^.N.Y h. .@ 2 / *X/. X(.~.[.OX$X|.|..X.X$X=X.XP./ g.s.",
"g B F +.9.5.7.7.r.s.q.9.7.7.:.X._ 4.&.K ( u ) v ..0.q.<.2.u.u.a.#.u.u.<.a.D.f.I j.>.: @ 3 *.z s.d.f.V.E.E.J.K.^.~.P.K.k.^.5.k.+.",
"k +.7.5.X.' *. .9.7.6.>.:.*.` Y ( K $.' P 4 b.z.%.p.f.p.i.u.a.a.#.<.a.f.i.a.j.p.s.o.3 2 ` /.5.H.f.p.p.f.N.N.Z.K.P.|.P.Q.^.'.'.+.",
"; A X.+.'  .7.6.6.>.=.*.*.*.o.` =.( =.X.P 4 t.w.*.p.a.p.p.i.a.B.B.i.i.B.N.i.a.f.b.s.3 + k /.@XP.J.B.N.Z.K.U.K.K.E..XP.^.Q.^.Q.+.",
"g A ~ :.*.` o.+.5.>.+. . .+.$.$.6.l.*.H P r P m o.,.q.,.i.i.i.f.f.i.a.c.j.f.f.d.v  .9 A q 5.K.h.I.A.S.E.^.~.K.Z.S.k.k.f.P.+.j.| ",
"S T ^ s.m.s.g.j.r.g.h.g.h.m.H.H.e.0.t.=.v c ~.z.S.Y.E.S.N.f.f.f.f.x.S.S.N.S.W.E.E.d.g -.` 7.P._.~.~.^.[.|.|.E.S.K.E.|.P.B.R s.7.",
"h B Z I T J F n v A L L J Z n z n Z z m n y %.$.| ......%. .R { -.} } ..{ ) ..o.{ S 8 Y g.i.k.i.i.s.i.s.i.7.,.:.7.7...7.g.7.5.S ",
"o.{ o.-.....+.+.5.+.! N F.e.e.l.0.q.q.8.6.6.>.=.q.o.>.q.:.q.s.) G 2.@.$.} E R ) ..#.+.+.......| -.%.;.| { B ..{ { ..{ F F { ....",
"k.B.S.B.K.'.|.K.g.'.Z Z R.+XR.3.{.{.{. X#X X X#XXX=X#X[..X!.>.R %.%.w.&X^.~.~.V.k.f.f.B.^.$X$X.XE.^._.| q.^ N.R S.E.K.f.B.j.f.f.",
"+.-.7.7.s.k.g.] f k.w < 5 b m M 5.5.g.T.).K.A.J.A./.K.m.P.K.6.~ >.$.@.V.d.b.D.b.^.^.E.D.k.k.f.i.s.k.N. .q.N f.R -.i.7.<.u.i.i.a.",
"u.u.i.j.a.s.s.s.X.:.3 o > e.G.+XJ.b.h.v.k.h.m.J.'.Y.{.{.K.).A.L $.S.b.V.A.I.V.Y.k.E.E.E.E.K.B.k.p.j.d.(.C.g -.>.<.f.f.s.i.a.i.a.",
"f.a.a.B.f.k.B.K.).X.< , M +X;Xy.M.J.J.Z.H.P.Q.Y.(.U.).Q.H.{./.o.$.U.A.A.b.b.z.A.E.K.k.B.B.j.a.-.S.Z.j.[.S.v q.p.;.2.i.w.f.f.f.N.",
"i.a.f.c.f.B.a.F *.~ $ & , Q y.5 X.r.K.~.'..XQ.h.r.G.h.r.A.J.6./ >.=.=.I.w.t.M.V.S.k.k.f.B.K.K.B.!.!.K.o.q.v f.{ -.2.2.<.u.i.i.a.",
"k.B.E.D.S.S.7.F +./ # 1 l 3.`.l.)..X.X'.'.'.!.J.A.`.'.).`.k.! y ' $.w.*X|.|.&XT.^.|.OX|.^.^.|.$X.X_.!.| ;.N >.G W.^.W.C.c.c.u.p.",
"..F S { ! F ^ / ! A 5 F &.y.&.y.6.6.6.7.7.>.:.>.6.| X.*.` :.9.^ V =.) } $.$.' } ) { ..+.+.#.../  .{ #.+.%.N E E E } } } } E R } ",
"0 L b D A A A A Y / ..+.:.:.s.g.s.9.t.X.h.L ) L C ..+.F S R ^ } @.E )  ...@.;.;.X.6.0 y g.h.y.M.b.d.s.d.d.7.,.7.i.-.i.7.,.f.i.i.",
"D *.*.@X:X{.Q.).!.Y.K._..X$XXX|.*XT.*.` ).+.A.J u.k.k.a.f.f.f.j.x.x.N.N.S.^.Y.t.~ A.n y L.+XL.l.m.N.K.^.(.^.^._.[.OX|.K.E.7.R d.",
"b *.*.k.m.k.J.T.{..X|.!.!.K.k.f.q.L.A.I.(.L b.q.+.i.a.i.a.a.u.u.#.<.i.i.p.N.x.*.V t.A 0 ' &.Q c :.,.d.j.N.j.N.A.f.S.S.S._.N.:.^.",
"y e.M.{.{./.Y.G.J.)._.!.K.!.!.K.M.t.r.A.~.=.6.b.-.a.i.-.u.u.i.a.<.;.2.p.q.2.q.p.h.X.3 y 6.F.L.y.s.s.i.i.i.s.d.f._.E.E.K.Z.K.N.j.",
"e.l.` r.k.k.P.{.'._.P.k.Z.K.k.7.Y.~.oXY.(. .q.b.5.f.j.a.f.x.V.U.V.z.b.S.N.v.v.f.M.5.0 L @XR.H.).J.Z.N.N.K.U.K.S.K.N.K.A.S.E.E.K.",
"&.M.4.k.A.m.H.J.!.Q.E.K.!.[.|.^.Q.(.A.$..X) A.N { <.i.u.1.<.;.2.<.2.p.p.p.f.>.J n 5.0 y l.~ y +.j.f.j.N.S.K.b.d.i.j.f.q.j.o.C 7.",
"&.#X+X-X=X=X-X@X'..X$X.X|._.|.$X|.|.d.' E.-.|.#.k.E.P.K.D.V.z.z.V.A.U.D.D.T.A.>.6.A.z t m.F.s./.~.(.[.[.[.{.!.A.k.K.A.Z.!.s...A.",
"Z O.W X.` F A F x x N C Y Y Y ~ ( @.}  .| N R #.{ ..{ { } ' E } @.)  . .T T  .*.*.X.y z L ~ | ~ / |  .` ` ) ^ Y ` U { ~ ~  .) ^ ",
"A A D L Q ~ ` `  .o.8  .f.s.>.f.@.} { -.2.2.2.2.2.z.z.2.z.w.x.E 1.S.A.b.T.~.V.A.A.A.M.A.H.P.Z.k.M.d.A.Y.,.2 L L S V n z c n V v ",
"4.y.n.k.r.e.r.m.| +.S :.7.5.U.j.V.p.a.z.x.p.i.z.z.x.D.W.[.W.].z.w.T 1.&X].d.M.oX^.].{.`._..X.X.X[.Y.Y.A.o.4 ..' h.h.d.t.t.q.>.$.",
"3.*.*.X./ / ~ ~ Y F 8 Y ..N i.s.p.i.i.p.2.<.;.2.z.1.0.w.w.1.V.0.I.b.I.T.I.I.b.@.A.J.A.A.Z.K.K.K.m.I.{.].t.z  .A H ~ |  .o.*.q.v.",
"r.8.O.' ] X. .| Y  .8 o.^.+.5.N.<.<.i.x.f.2.2.2.z.w.z.z.z.2.z.P =.A.T.T.Y.z.t.W.b.k.h.N.!..X.X_.{.T.J.0.J * ) ^ r.s.q.6.=.6.0.q.",
"_ ] X.X.' ` +.9.s.A.q ^ d.7.,.u.a.u.a.c.V.C.c.x.w.z.z.w.b.z.b.J u 0.].].{.T.M.M.A.J.J.S.K.E.E.B.I.M.T.].t.u =.$.' ~ ! ' 6.t.6.' ",
"3.6.9.y.r.r.r.q.s...8 ~ S o.j.a.a.u.u.u.<.2.u.p.V.V.z.w.z.S.I.) =.P ' M.M.z.M.D.Q.{..X~.Z.j.f.k.m.h.I.T.t.z *.$.*.6.6.>.=.>.=.*.",
"g.8.5.6.r.r.3.X.F w x j.i.j.D.D.C.C.c.a.z.x.V.V.V.V.D.A.W.T.V.P c ' T.{.T.+X=XT.U.^.[.~.K.K.E._.T.J.Y.I.r.z ' m 0.t.v.0.X.$.q.n.",
"n n b z f y z x x x N N I ^ U G G I U G G G I U U G H G G G J 2 H $.$.' ' E P ' o.| T L T ^ ^ R ~ Q ~ ( L 3 F 4 u g z l z z z y ",
"*.5.j.b.b.s.o.-.q.i.p.i.u.p.c.x.A.U.t.T t % q.p.$.T.W.x.N.S.V.D.N.b.b.f.d.A.A.s.t.m.y _ L K  .b Z n v b m L P ~ ) ` _ $.>.Z L b ",
">.R o.b.f.f.N.p.f.f.p.i.p.z.c.V.>.5.$.<   0 A.o.) b.A.x.S.~.D.E.E.~.[.|.'.^.m.$.L H.L q.A i e.l.q.t.v.h.q.6.r.h.h.r.9.q.q.' $.V ",
"..o.-.N.d.:.f.i.2.2.2.;.<.2.z.2.=.P *.n * t M.Z.b.I.a.-.7.f.j.C.a.f.N.N.N.U.U.b.Y.A.z +.&.X.6.~ X.*.=.>.5.>.*.$.` ( ~ ) ' ) 9.V ",
"x j.:.:.j.,.f.j.f.p.i.2.2.a.z.w.q.h.t.t   f !.A.~.Q.Z.d.f.i.,.i.i.N.E.E.K.E.Q.U.g.$.z _ ' 4.:.6.5.>.6.q.y.d.6.*.>.X.X.$.o.` q.b ",
":.^.7.:.j.i.i.:.V.b.V.x.V.V.c.z.t.T.' 5 = m n.' B.J.M.b.B.A.Z.E.N.N.A.S.b.b.N.k.[.M.m $.o.O.| ~ ' *.>.>.$.'  .X.' ~ ` =.*.) 0.L ",
"B S | j.f.i.J.f.-.>.2.2.z.x.b.x.M.h.H ' $.c ' ' b.h.d.d.d.m.E._.U.f.q.i.d.N.A.s.L q.t %.^ B s.5.>.6.6.9.6.5.6.0.M.d.g.v.6.L o.b ",
"^ | j.[.Z.j.A.b.d.z.b.z.b.V.D.D.T.I.0.z.=.$.M.I.Y.Y.(.{.'.(.~.I.E.N.A.U.U.S.f.;.J %.f o.^ ! g.i.6.*.$.*.6.r.q.6. .*.o.o.o.P X.A ",
"~ ^ ^ I ! ` T T T R L v c s u u u u m m 4 u P H L H J A A J T S I C S S V V I U ) J g x q S t N u z v z u y z v V ! H n A Z ( v ",
"~.Y.].[.].[.g.u ' [.f z *.A y y m m c m m m P ( ( *.*.O.q.+.X.A ) Z.p.j.j.s...:.u.g.f.g.s.f.k.K.b..Xh.M.X.- ( *X). X{.[. XoX].T.",
"T.T.[.[.Y.Y.M.` t.v.0 z :.o.A c =.0.l.t.0.0.t.n.n.5.*.6.s./ ! Z o.o.%.S.b.f.f.;.g.a.a.i.a.f.B.k.K.L z m.0   g Q n 0.I.v.v.I.].{.",
"b.b.Y.R.I.Y.].J.{.*.& < M  .) Q $.$.=.=.0.=.$.[ ' ! ! / ] / O.A S ! { h.7.7.f.d.s.u.u.<.u.s.s.u.M.+.( $.< J m.q.) v.J.t.r.m.J.M.",
"M.M.Y.[.(.[.{.).d.~ 3 L 9.n.r.6.0.=.=.e.t.e.0.$.5.$.O.X. .X.5.D ^ N.q.q.i.i.-.d.f.s.u.u.i.f.a.u.f.6.` v u 3 z >. X{.U.J.J.A.h.v.",
"].I.I.Y.L.m.=.` k.X.> Q 8.! D ] ( $.=.=.$.' [ &.X.Q ' 3.O.~ O.~ T s.+.>.j.j.,.,.f.f.k.f.c.B.B.c.r.n * X $ 2 L T.U.U.J.J.I.J.I.].",
"T.M.z.v.M.q.! b 3.D . Q F.W M O.=.=.e.0.4.=.0.e.G.n.F.n.9.] O.W V H ^ j.i.d.f.i.<.u.a.a.a.a.f.f. .n J L   ~ r.V 0.M.J.M.J.~.(.`.",
"].T.I.T.`./.G.h.R.3.w D O./ W y.=.$.' ' $.=.*.$.Q X.&._ ] / O.L s.k.A.XXS.k.B.S.i.f.f.N.B.B.B.B.>.! $.t.< U t.L T.'.).T.[. X(.T.",
"i u r 4 w y y b w k 6 > 1 k 1 , , = = = = = , 1 7 5 1 5 k 1 6 7 8 V 9 q h v q h a d N a a a d p x n z f 9 < g z z y r u z 0 9 z "
};
