/* XPM */
static char *_b98e1cf67e44e6dd36800c30991d1b0UmmWA0WJ3y65nIZ0[] = {
/* columns rows colors chars-per-pixel */
"85 64 256 2 ",
"   c #010101",
".  c #090903",
"X  c #01020A",
"o  c #020A0C",
"O  c #0B0C0C",
"+  c #070703",
"@  c #160E0E",
"#  c #0C110C",
"$  c #02100D",
"%  c #13130E",
"&  c #16130C",
"*  c #030D14",
"=  c #0A0E13",
"-  c #030B1B",
";  c #041215",
":  c #0C1214",
">  c #021319",
",  c #0A141A",
"<  c #0C1B1F",
"1  c #121413",
"2  c #151913",
"3  c #1B1B15",
"4  c #13161A",
"5  c #181819",
"6  c #130F11",
"7  c #231B1A",
"8  c #1E2217",
"9  c #23241B",
"0  c #26291C",
"q  c #292B1E",
"w  c #242318",
"e  c #332C18",
"r  c #080E26",
"t  c #060D26",
"y  c #0C1425",
"u  c #0D142B",
"i  c #0A1925",
"p  c #141B2B",
"a  c #1A1D2A",
"s  c #161A27",
"d  c #0C1332",
"f  c #111733",
"g  c #141A33",
"h  c #171D39",
"j  c #060B31",
"k  c #201E28",
"l  c #1C2229",
"z  c #1A2234",
"x  c #1D233B",
"c  c #19263B",
"v  c #252422",
"b  c #2C2C23",
"n  c #282827",
"m  c #342C27",
"M  c #2E3125",
"N  c #323325",
"B  c #34352B",
"V  c #36392B",
"C  c #3A3A2E",
"Z  c #3A3629",
"A  c #22253C",
"S  c #262A35",
"D  c #2A3239",
"F  c #3B3532",
"G  c #3C3D32",
"H  c #353737",
"J  c #372F33",
"K  c #423B2A",
"L  c #433D34",
"P  c #473937",
"I  c #4B3A35",
"U  c #43341F",
"Y  c #3E4136",
"T  c #47422D",
"R  c #434235",
"E  c #43443A",
"W  c #4B443B",
"Q  c #4B4A3C",
"!  c #4A4636",
"~  c #534A39",
"^  c #59523B",
"/  c #52412D",
"(  c #65573D",
")  c #1C2443",
"_  c #1B2546",
"`  c #242B43",
"'  c #232948",
"]  c #293548",
"[  c #333C4C",
"{  c #373B44",
"}  c #262B55",
"|  c #2B3755",
" . c #373E52",
".. c #181D42",
"X. c #413D43",
"o. c #633D42",
"O. c #3A444D",
"+. c #39424A",
"@. c #3B4253",
"#. c #3C4657",
"$. c #3D4D64",
"%. c #4C4D43",
"&. c #484645",
"*. c #534C43",
"=. c #574B48",
"-. c #5B5444",
";. c #5B544B",
":. c #575549",
">. c #444B5B",
",. c #454B56",
"<. c #4B545A",
"1. c #5B5654",
"2. c #53504A",
"3. c #64594A",
"4. c #625554",
"5. c #645B53",
"6. c #6B5E5D",
"7. c #695B56",
"8. c #755958",
"9. c #6B494B",
"0. c #776B4C",
"q. c #6C635B",
"w. c #676359",
"e. c #73645D",
"r. c #786859",
"t. c #7B7359",
"y. c #6B644A",
"u. c #4B5564",
"i. c #545D69",
"p. c #4B556A",
"a. c #5B646F",
"s. c #6B6663",
"d. c #726663",
"f. c #736B63",
"g. c #7B6B64",
"h. c #7A6A67",
"j. c #7C746B",
"k. c #797469",
"l. c #717175",
"z. c #655F59",
"x. c #80595E",
"c. c #847658",
"v. c #8D724C",
"b. c #846D6A",
"n. c #856967",
"m. c #85736C",
"M. c #86786A",
"N. c #837571",
"B. c #857C73",
"V. c #8D7A74",
"C. c #8A7A78",
"Z. c #947A78",
"A. c #8F6E72",
"S. c #885F65",
"D. c #988357",
"F. c #96876A",
"G. c #8A8379",
"H. c #94847C",
"J. c #998778",
"K. c #978D71",
"L. c #A69677",
"P. c #AA9570",
"I. c #B9A97B",
"U. c #BDB278",
"Y. c #C4B47B",
"T. c #C3AD7E",
"R. c #747982",
"E. c #978A83",
"W. c #9B938A",
"Q. c #9B9695",
"!. c #93898E",
"~. c #A58A89",
"^. c #A2958D",
"/. c #A59989",
"(. c #AA9C95",
"). c #A89A94",
"_. c #B39999",
"`. c #AE8E91",
"'. c #B8A987",
"]. c #ADA39A",
"[. c #AAA298",
"{. c #B3A59D",
"}. c #B8AA99",
"|. c #BEB494",
" X c #B5AA88",
".X c #ABA6A7",
"XX c #B5AAA3",
"oX c #BBADA5",
"OX c #BAA8A6",
"+X c #BDB3AB",
"@X c #BAB3AA",
"#X c #B8B5B7",
"$X c #9DA2A2",
"%X c #C4AB88",
"&X c #CDB58D",
"*X c #C8B688",
"=X c #D3BB8C",
"-X c #D1B58C",
";X c #C4AD94",
":X c #CCB595",
">X c #CCBB93",
",X c #C8B699",
"<X c #D2B694",
"1X c #D3BB94",
"2X c #D5BD9B",
"3X c #D6BA9A",
"4X c #C3ABA9",
"5X c #C2B5AD",
"6X c #C7B8A9",
"7X c #C5BBB3",
"8X c #CABCB5",
"9X c #CAB9B7",
"0X c #D4BDBA",
"qX c #D2BAA4",
"wX c #D5C196",
"eX c #D9C29A",
"rX c #D7C398",
"tX c #D3C194",
"yX c #DAC3A4",
"uX c #CDC3BA",
"iX c #CBC0B6",
"pX c #D2C5BD",
"aX c #D6C7BC",
"sX c #CFC6A8",
"dX c #E3D1B4",
"fX c #B9BBC3",
"gX c #BDC2C8",
"hX c #D4CBC2",
"jX c #DBCCC5",
"kX c #D8C9C5",
"lX c #DAD1C6",
"zX c #DCD4CB",
"xX c #D7D2CA",
"cX c #DBD8D6",
"vX c #CBC9CA",
"bX c #E4CDCB",
"nX c #E2C9C7",
"mX c #E3D5CD",
"MX c #E7D8CB",
"NX c #EBD4D2",
"BX c #E4DBD3",
"VX c #EADCD4",
"CX c #EADDD9",
"ZX c #F2DCD9",
"AX c #ECE3DA",
"SX c #E8E1DA",
"DX c #F4E4DB",
"FX c #F5E3CB",
"GX c #EAE8E7",
"HX c #FCEBE5",
"JX c #F5ECE6",
"KX c #FCF3EC",
"LX c #FBF2E6",
"PX c #FBF7F3",
"IX c #EEEEF0",
"UX c #DADDE2",
/* pixels */
"                &   Z dXK.0.I.P.P.P.J.P.D.D.D.D.D.D.v.D.v.v.v.v.v.c.t.0.0.t.t.t.-.:.Q T V V H &.%.:.Q V V E Q Y V Y Y V q 0 0 q e 0 N Y Y 0 M Y z.s.Y $   . .             ",
"                .   T sXP.c.T.Y.yXeXeXeXeX1X=XtXtXY.=XY.%X%XT.T.P.J.L.L.K.0.-.^ ^ Q R Y C G G G %.%.Y M q Y Y Y V Y Y V q 0 0 0 0 0 N Y Y Y Y Q %.z.M +                   ",
"                    / sXF.P.=X&X:X:X:X1X1X1X=XtXY.=X=X=X1X3X1X3XyX|. X,XI.t.y.-.~ T Z N C G G G Y Y Y 0 0 Y Y Y V V Y V q 8 8 8 0 0 0 Y V Y Y :.%.:.M     .               ",
"                  . ~ |.D.L.wX1X;X:X:X:X=X=X=X=X=X=X=XeXeX2XyXeX'.F.t.c.0.^ T ( ~ T N N G Y Y G Y Y M 0 0 V Y Y Y Y V V q 8 8 0 0 8 0 e e Y Y ! Y %.v     . .             ",
"+                 . ^ L.D. X&X=X2XqX2XwXwX=XrXrXeXeXeXeXeX3X:X:XK.0.( y.^ K Y ( ~ K N N C E Y Y Y Y q q M Y Y Y Y Y V M q 8 0 M N 0 0 0 q 0 q Y B B 2                     ",
"  +             + + T K.F.|.'.&X3X<X:X1X-X=X=X*XY.=X=X=X<X:X;X;XK.t.0.0.y.Q ^ y.R Z m e Z G E E Y Y Y Y Y Y Y Q ^ Y M V V 0 q V Y N 0 0 q 0 0 q n M %                     ",
"                +   K F.P.rX'.tXyX2XeXeXrXrXrXtXeXrXrX3X3X:X;X|.t.( ^ ^ ~ T Y ! K K Z Z L W 2.:.w.w.w.w.y.w.:.:.Q Y V Y T V V V Y q q q M q q M n M 2   . +   .           ",
"+               .   N F.L.dXI.rX<X3X1X1X1X=XtXwXeXeX=X*XL.K.M.c.( ^ T U Y T ^ ^ K L L ! %.;.w.k.G.G.B.B.G.k.s.w.Y V Y ^ Q V V T N 0 8 q M q q q 8 v #                     ",
"                .   w L.I.>X>XwX1X2X2XeXeXeXwXwXtX*X*XF.F./.c.^ ! Y K K Q -.y.^ V K W *.;.e.B.G.W.K.W.W.$X[.Q.W.B.y.Y Y :.^ Y Y 0 e Y M q q N N E Y 8     .               ",
"                .   e L.I.,X>X1X3X3X2XeXeXrXwXwXtXtX|.c.0.K.t.-.Q ! T V T :.:.Q C K W 3.k.E.).{.#X@X7X7XsX7X@XXX$XG.w.w.:.Y V M N V V N N M N N H G 3                     ",
"                .   e /. X>X*X1X<X3X2X2X1X1XwXwXsXtX X0.( 0.y.-.Q Q T Y Q Q Q Y ! ~ ;.k.W.+XpXhXxXxXaXxXuXuXiX7X|.XXW.G.5.R N e N N N q 0 8 8 0 B B 2   .                 ",
"+               .   e  X X>X*X1X-X3X1X1XrXwXwXwXtX|.|.0.~ 3.^ :.Q Q ^ ^ %.:.^ Y 3.q.G.(.8XbXBXVXBXcXxXxXxXxXiXiX@X@XXXW.k.^ Y V N q 0 0 8 8 8 & 0 n 2     .               ",
"                .   N }.'.>X*X:X<X<X<X1XtXtXtX>X|.|.sXc.^ -.Q ^ Q Q Y Q :.s.k.k.B.W.7XMXVXVXVXVXSXBXzXzXzXxXaXuX+X+X@X[.W.j.;.R Y M q 0 8 w 8 9 9 v %   .                 ",
"  +             . . U |.|.>X*X&X-X<X<X<XtX>X>X>X|.tXsXF.3.-.! %.%.Y Y Y w.W.@XsX].uXVXJXDXVXMXVXBXzXzXzXzXxXxXhXuXiX+X@X{.W.k.-.Q Y q 8 8 8 9 9 9 v %     .               ",
"+               .   K |.|.>X*X&X-X<X>X>XtX*X|.tX|.|.|.k.^ -.Q :.%.O.Y %.B.@XcXcXuXhXmXmXjXkXjXMXzXxXlXhXhXhXhXpXhXhXiX@X@X{.E.k.w.Q Z w 8 8 9 9 9 b #                     ",
"                .   K ;X|.>X%X&X&X:X<X>X*XtXtX*XtX|.|.t.~ ~ Q ;.Y Y :.f.$XaXcXaXhXuX7X@XoX6XaXlXzXxXxXsXhXhXpXuXuXuXiX@XXXXX(.E.k.w.! N 0 q b M v b %                     ",
"                  + I ,X;X:X<X3X<X:X:X<X<X:X<X<X%XdX;X( U y.t.;.5.R *.W.lXzXzXBXSXlXhXzXiX[.).@XsX7XaXhXhXuXpXhXpXuXiX@X@XXX[.Q.G.B.5.R b 9 b m n m 5         +           ",
"                + + I :X|.:X;XqXqX<X:X<X3X3X3X3X3XqX%X8.I ~ 3.-.W ;.j.[.hXBXBXBXAXzXhXhXiX{.(.].@X@XuXuXuXuXpXhXpXuXiX7X@X}.[.W.E.B.q.*.J b n m v m 5   + X   X           ",
"                  + I 6X}.;X;X:X;X:X<X:X<X1X<X3X3X3X;XL.c.~ / =.~ B.@XaXlXBXAXVXAXmXhXhXuXiX@X[.}.@X7X7XiXiXuXpXpXiX7X@X@XXX[./.!.G.k.1.I m n m 9 J 5         X           ",
"                    / 6X;X,X;X:X:X:X:X1X=X<X<X<X<X:XqXqX`.c.6.e.E.7XAXDXSXzXVXVXzXzXlXuXiXuX+X].[.[.@X7XiXuXuXuXpXiX@X@XXX{.[.^.W.E.j.w.*.Z b v v M @   X                 ",
"                    ~ 8X4X4X;X,X&X=X=X=X=X=X=X-X%X2XyX6X}.{.].).lXBXHXKXAXjXjXBXpXjXjX8X+XoX{.(.].XXXX@X7XiXiXiXiX7X@XXX{.[.Q./.W.E.j.s.;.P m 7 7 n 1         +           ",
"      X   X X X X + X.9XoX4X;X;X*X-XY.Y.-XY.-X=X&XyXyX;X}.hXBXBXKXDXAXDXVXpX8XpXuXaXaX8XoX{.{.XXXXXX}.@X+XiXiXiX7X@XXX].[.[.^.W.E.G.j.f.5.W J 7 7 n 1         X           ",
"          X X X X X X.7XOX}._.'.Y.Y.Y.Y.Y.Y.Y.-X:XyXyXqX8XBXJXJXHXHXAXCXMXkX4X^.{.(.).].(.^.).oX@X@X@X@X7XiX7X6X+X@X{.[.[./.W.W.G.C.k.s.5.&.J q 7 v 1                     ",
"+   X   X X X X = X &.#X.X_.^./.'.U.Y.Y.Y.Y.Y.%X:XyXdXdXAXDXJXJXGXKXHXMXlXjX{.g.B.7.5.m.H.H.E.(.iX7X@X@X7X7X7X+X+XXX[.(.^.W.W.E.C.j.h.q.5.*.F b 7 v %       X X           ",
"    + X X X X X - X X..X!.[.[.}.U.U.U.U.Y.T.T.T.1X2XDXaXPXKXSXPXHXHXHXZXNXkX9X4XZ.I 3.~ 7.Z.g._.uXuXiXiXiXiX+X].].[.Q.W.W.W.H.G.C.k.f.s.q.2.F 9 3 v 6         +           ",
"+     X   X X X X X { $XQ..X@X7X*XU.U.U.U.T.*X=X>XdXFXaXLXKXGXKXHXHXHXDXmXpX6XoXE.~ 9.W ;.m.r.{.pXhXuXiX7X7XXX[.W.E.E.H.J.G.G.G.j.k.f.q.5.*.m 7 3 9 1   X X   X           ",
"+ + +   X X X X X X X..XQ..X.XXX X X X*X%XY.I.'.,XdXeXaXAXPXPXLXKXHXHXZXNX0X5XOX_.r.n.=.9.m.M.4XpXlXzXuX@X].^.H.G.B.M.j.j.M.k.k.d.q.q.w.1.&.b 3 3 v 6                     ",
"+ +           X X = <.fX@X@X.X[. XU.U.|.%X%X'.I.'.,XF.MXAXPXPXIXHXHXHXHXZXkX0X6XOXJ.H.e.e.Z.E.8XaXzXzXuXXX/.G.N.k.g.q.e.e.e.q.w.7.w.q.w.;.P v & 7 v 1     X   X           ",
"+ + +         X X X O..X$X@X@X].|.|.}.'.'.'.;XqX'./.c.FXKXIXPXLXHXHXHXDXZXbXaXaX4X`._.~.H.`._.aXjXzXlX+X^.H.j.e.q.6.5.5.5.;.;.*.;.7.q.7.=.L v & 3 v 6     X   +           ",
"+ + +         + X   < s.<.k.j.G.L./. X;X;X;X'.'.}.L./.LXPXJXJXJXHXDXZXNXMXbXnXnXqX0X8X8X8X0XnXMXzXhX7X).B.j.f.w.5.3.5.3.3.;.~ W =.4.7.1.W m 7 & 3 7 6         X           ",
"+ +             ;   o Y 8 Y E R ^ 3.t.F.K.V.c.v.J.F.aXKXKXJXGXGXZXZXNXnXnXnX0X0XaXbXbXNXZXNXZXZXlXiX[.N.e.7.w.5.5.7.q.d.e.q.3.=.%.;.5.=.L 7 3 & 3 v 1     X   +           ",
"  +             o   1 ,.M +.+.C Y N q w e I 3.3.r.M.PXDXJXJXLXAXZXNXnX0X9X4X9XqX0XbXnXMXZXNXCXmXjX7XJ.q.;.3.5.3.e.e.k.B.B.m.d.5.W *.;.*.B 7 @ @ 3 9 %   +                 ",
"                  X > a S S A S ` k k J S k S X.H uXGXAXLXDXDXMXjXkX9X4XOXOX9X9X9XbXNXcXCXGXCX9XhX(.m.8.7.3.4.4.N.C.!.C.j.h.s.l.&.<.:.E b 2 2 8 2 2 . +   + +             ",
"                  X , n c A h A A h A A z h S  .,.vXIXAXHXFXMXaXuX9X+X+X4X9XnXNXNXZXZXbXNXGXSXkXOX~.g.7.9.=.~ o.4.6.h.b.h.d.s.6.%.%.O.Y 8 2 2 2 2 2 $ +   +               ",
"                  X ; a A z x A k h A A A z ] <.i.cXIXGXDXFXMXsX5XXX+X9XkXnXbXZXZXZXbX9X0XbXcXkX(.Z.r.8.9.~ P P m I =.9.6.4.6.i.:.%.Y l 8 # 2 2 : 2 #     + +             ",
"  X               + * s S h g x f A ` ` A `  .u.a.UXIXSXJXAXMXsXoXXXuXCXZXNXnXNXNXNXvX9X9XvX9X#XE.Z.g.r.7.o.P U 7 e P X.=.4.4.4.<.Y b 8 2 2 2 # 2 2 # +     +             ",
"                    * a A g g x k A } A A ]  .u.a.UXGXCXJXMXdX7XOXOXfXnXCXCXNXbXNXNXbXnXpX9X.XQ.Z.A.b.b.r.3.~ I 7 m J P X.=.1.1.1.Y l # 1 2 2 2 2 2 # +     +             ",
"X                 X * s z g g h f A A A h ]  .@.a.UXIXUXAXMXaXsX{..X).`._.0XbXnXnXNXbXbXpXOXE.h.m.b.n.m.g.8.9.I I P P X.o.2.1.1.%.V 8 $ : 2 8 2 2 2 #     + +             ",
"  X                 * p z a f h f A h h _ | #. .>.vXIXCXSXlXaX@X+X+XQ.h.A._.9X4X4X4X4X9X4X).C.6.b.n.g.M.M.g.7.4.9.=.o.&.o.1.1.=.H n % # : 8 2 2 2 2 #       +             ",
"      X             = p g g u g h ..h h ' | $. .] fXUXcXAXzXlXsXxXCXOXR.A._.OX~.`.`._.OXOX`.H.j.M.n.M.V.V.b.g.d.8.4.4.1.1.4.=.,.B 8 : # : : 2 : 2 2 #     + +             ",
"X     +             * a z g u g h A h h | ] ]  .#.l.UXIXUXAXsXBXcXzXkX5XOX_.4X9X`.~.~.`._.`.Z.A.8.n.M.m.V.V.C.m.6.e.6.4.4.6.=.J 1 1 O O 1 1 4 : : H ,       o             ",
"X                 X * p z g f f h ' ..h | | '  .D a.UXUXBXGXzXMXzXxXxX9XOX_._.OX~.A.A.A.Z.Z.A.h.g.n.m.M.V.V.C.N.b.h.6.6.6.4.X.k 4 : = : 1 4 4 4 5 H 1 +     X             ",
"                    > s z p u f f ....) | | ' [ c $.gXUXxXGXAXxXxXcXxX0XOX_.`.`.Z.A.S.A.Z.A.A.A.n.n.m.Z.H.H.Z.C.!.h.6.6.8.X.m @ 5 4 : : 4 5 4 2 l { 4   +   =             ",
"  X               X = s z p u f f ....A @.| _ | ] $.$XGXSXSXAXaXxXzXvXuX4X_.`.~.A.S.S.A.A.A.S.A.g.r.m.J.`.~.E.Z.C.d.6.d.4.P 5 @ 4 4 4 1 5 s l 4 n +.4 X   X X             ",
"                  X * s z i u d i _ .._ | | } ] ] Y R.UXIXBXSXBXxXxXvX9XOX_.`.`.A.S.S.x.x.8.9.x.8.r.m.~._.(.E.H.C.h.h.8.X.7 @ 7 5 5 4 4 5 a l v H &.5 X X   X             ",
"X               + X , s z f u d d ..c _ | | _ ] ] ] #.#XIXSXSXGXcXkXuX+XOX_._._.`.Z.S.o.o.o.o.8.8.8.b./.OX_.E.Z.l.A.l.4.K @ @ 7 5 s s l n J D S +.<.a     X =             ",
"                  X , s z f i d d _ .._ | | _ | c O.l a.cXSXSXSXzXxXvX7X4X_._.`.`.Z.S.x.o.o.9.8.r.8.g.~.).E.C.A.h.b.d.X.7 7 7 n n n n S H { X.&.,.<.s   X   X             ",
"  X             + X * a z i t d d c g _ | | _ | c p.< Y fXSXSXxXcXzXhX9X4XOX`.~.S.S.S.S.S.9.x.8.b.8.e.V.~.C.h.b.6.d.9.P 7 k J J S S S H +.,.,.<.,.1.l     X o             ",
"                    * a g u y r y p c ) _ ' } | } | } f <.#XGXxXvXkXvX0X5X{./.J.J.n.r.r.n.8.n.Z.~.J.Z.M.A.m.j.h.s.l.X.s H { D X.O.+.] D ] +.u.a.u.,.l X   X   +           ",
"X                 X = p z u r r y p x ) _ } } } ..} | g l <.$XgXgXvX9X+XOX}.}.(.J.c.r.r.8.8.h.b.6X_.J.M.g.d.d.d.7.i.{ a { X.{  .#.O.+.] ] +.$.$.u.>.a X X +               ",
"  X               + > a z u r r - y x ` ' _ } } ' } ] A ; ; 2.$XOX#X#XOXOXOX{./.J.V.b.b.n.e.h.n.~.J.A.r.d.d.d.d.&.&.J n X.,. .,.O.O.O.+.] +.#.$.u.,.l X   X   +           ",
"                + X * p h u r r - y c ` ' ) _ } } ' ' ` D < D <.R.!..X.XXX[.E.M.H.M.M.g.g.8.h.h.7.q.e.b.h.d.1.=.k k s v { >.,.,.O.O.O.O.O.O.@.@.>.,.a X   +               ",
"X                 + * l l u r r - r a x _ _ _ _ } ' x ` [ +.D l X.i.b.!.Q.W.G.k.M.j.r.q.6.e.6.8.e.r.h.h.s.=.F 7 6 = 6 4 S +.>.,.O.O.O.O. .#. .#.>. .a X X                 ",
"X                 X * s h s r r - , u h ' ' ' ..h ' ` h A { { l k J X.X.s.j.G.G.M.j.r.e.h.j.d.4.6.4.;.*.L v @ O 6 X , , , S ,.+.,.O.O.O.#.>.>.#.>.X.a X   X               ",
"  X               X = s z u r r r - - p ..} ' h ......g z S c z k k k k D 2.w.k.j.k.k.k.C.C.6.P Z m 7 @ @ 6 O O 6 X 4 = X l <.<.i.<.#.O.#.#.#.#.$.X.h X X X               ",
"  X               X = a h u r r u - - r A ' _ g ' f h A D c l , S S k s 8 D Y E s.s.s.k.C.l.2.7 @ @ . . O 6 6 1 = X : ; X S a.a.a.u.#.@. .#.#.#. . .a X X +               ",
"                  X * a z p u u y - t r z ) _ ) h d f c c i l c A S l l l M Y &.b M B C H m n k O O O O O O = = o = , , o o S <.<.<.i.<.+.+.#. . . .a X X +   +           ",
"X                 + , p z g u f y - - r p c c h f u g ) ) g g c g a p > ; : < 8 + + o O O X X   O o O * = = : ; : * * ; * X < S D +.$.i.#.#.#.[  . .a X +                 ",
"                  X * a S h f g y , - - u g p u t d h ' c p f ` ` z l < $ $ $ $ # # # # : = O X o = o O * = ; = , o o * ; * o * i l +.u.$.u.#.] X.@.a X X                 ",
"  X             +   * a z g g h i y r r y y u t u t h _ h u f ] ] c i i < , $ # $ $ $ o o o X * * o * ; * ; ; ; , * o ; , , * o ; $ S $.$.<.#.@. .@.a X X                 ",
"                    = s z g g h p i u y y y y y f u f c d j g | +.c i i i > $ $ $ $ $ o o X X * * * > * * ; > * ; ; ; ; ; > , , * X z O. . .#. . .@.k X X                 ",
"X                   o s a g p g g p p u i u u p g u f h d j f } $._ i i < > $ $ ; $ $ : > , , y * * * > > * ; > * , , o + o ; ; > * S #.[ ]  . . .@.a X X +               ",
"  X               X = y p u u f i p p y u s i g p u f ) _ d d ..p.] i i < > $ ; + o o o X X X X > * > * ; > > > o > > o o ; o o ; > [ i.>.[ [  . . .a X X                 ",
"                  X X y u y u u y y y i y y i z f u g _ _ d d c $._ > < i > $ > $ o $ ; > ; > - * * > > ; > > > X ; ; o ; < , o o < $.R.i.[ [ [ X. .a X +                 "
};
