/* XPM */
static char *_195119dbf0340c1c0162818859a39c56Jrm7pRRyMyGbjdE[] = {
/* columns rows colors chars-per-pixel */
"64 48 249 2 ",
"   c #020202",
".  c #0B0500",
"X  c #060A03",
"o  c #0A0904",
"O  c #03040B",
"+  c #020A0C",
"@  c #0B0A0B",
"#  c #0D140A",
"$  c #091109",
"%  c #1B1203",
"&  c #12170D",
"*  c #030511",
"=  c #040B13",
"-  c #0C0D13",
";  c #050D1A",
":  c #0A0B15",
">  c #051214",
",  c #0B1315",
"<  c #0B121B",
"1  c #05121A",
"2  c #141B13",
"3  c #1C1C14",
"4  c #13151B",
"5  c #181818",
"6  c #110C0B",
"7  c #231D1A",
"8  c #1D2117",
"9  c #24241C",
"0  c #2C2A1E",
"q  c #25261B",
"w  c #34331F",
"e  c #040C24",
"r  c #060D27",
"t  c #0C1323",
"y  c #0D132D",
"u  c #08162B",
"i  c #151925",
"p  c #11162A",
"a  c #161A2B",
"s  c #1B1E2B",
"d  c #141723",
"f  c #0C1432",
"g  c #0A1835",
"h  c #111631",
"j  c #151A33",
"k  c #131B3B",
"l  c #191E38",
"z  c #1C222D",
"x  c #1D233C",
"c  c #1B2333",
"v  c #232422",
"b  c #262923",
"n  c #2B2C23",
"m  c #2B2B2A",
"M  c #262528",
"N  c #352A25",
"B  c #2F3028",
"V  c #333125",
"C  c #34342B",
"Z  c #39352B",
"A  c #3A3A2D",
"S  c #3A3B27",
"D  c #252C3A",
"F  c #252835",
"G  c #2C323B",
"H  c #3C3C32",
"J  c #383738",
"K  c #302E31",
"L  c #423D33",
"P  c #483B37",
"I  c #493E2D",
"U  c #3E4235",
"Y  c #46452C",
"T  c #444235",
"R  c #45443A",
"E  c #49453B",
"W  c #4A4A38",
"Q  c #554838",
"!  c #5A5339",
"~  c #55402F",
"^  c #62523D",
"/  c #161E43",
"(  c #1C2443",
")  c #1B2549",
"_  c #1F2853",
"`  c #242C4C",
"'  c #242A46",
"]  c #2E3643",
"[  c #2B334C",
"{  c #353B45",
"}  c #3B3C44",
"|  c #363B4B",
" . c #242C53",
".. c #2B3352",
"X. c #333957",
"o. c #3C424D",
"O. c #3E4652",
"+. c #3B4666",
"@. c #4D4B42",
"#. c #41454D",
"$. c #4B4945",
"%. c #554B46",
"&. c #4E5245",
"*. c #545245",
"=. c #5A534C",
"-. c #5A594E",
";. c #56564A",
":. c #444B54",
">. c #464C56",
",. c #4B525C",
"<. c #5B5953",
"1. c #664C47",
"2. c #714D49",
"3. c #64584A",
"4. c #635B55",
"5. c #675956",
"6. c #765C58",
"7. c #73544D",
"8. c #6A6248",
"9. c #6B635D",
"0. c #666359",
"q. c #74655B",
"w. c #7D745B",
"e. c #736A49",
"r. c #4E5361",
"t. c #575B64",
"y. c #434964",
"u. c #6D6361",
"i. c #656664",
"p. c #736561",
"a. c #7D6C6A",
"s. c #776966",
"d. c #7C746E",
"f. c #78756A",
"g. c #636973",
"h. c #7A7675",
"j. c #5E656D",
"k. c #87745C",
"l. c #836D6C",
"z. c #856766",
"x. c #83726E",
"c. c #897867",
"v. c #857572",
"b. c #8C7674",
"n. c #897B76",
"m. c #937A79",
"M. c #90736C",
"N. c #A78C59",
"B. c #AB9059",
"V. c #938669",
"C. c #88827A",
"Z. c #988979",
"A. c #948B71",
"S. c #AA9776",
"D. c #ADA47A",
"F. c #B5A979",
"G. c #B7AA77",
"H. c #998259",
"J. c #C1BB7F",
"K. c #977B83",
"L. c #938C85",
"P. c #9B8785",
"I. c #9A9389",
"U. c #918F8F",
"Y. c #A28C8B",
"T. c #A69889",
"R. c #A49B92",
"E. c #AB9B95",
"W. c #A79795",
"Q. c #B29B9A",
"!. c #A68892",
"~. c #ABA38D",
"^. c #B6A88A",
"/. c #B9B388",
"(. c #ACA39A",
"). c #AAA594",
"_. c #B3A39D",
"`. c #B8AB96",
"'. c #B8B397",
"]. c #B4AAA2",
"[. c #BBAAA5",
"{. c #BDADAA",
"}. c #B8A6A2",
"|. c #BDB2AA",
" X c #B9B4A8",
".X c #ACABAE",
"XX c #C5AD8A",
"oX c #C9B789",
"OX c #D3BD89",
"+X c #C3B394",
"@X c #CDB694",
"#X c #CDB993",
"$X c #C4B49C",
"%X c #CCBA9C",
"&X c #C9B898",
"*X c #D3BB94",
"=X c #D4BC9A",
"-X c #D3B794",
";X c #C1AD92",
":X c #C2ADAB",
">X c #C2B4AD",
",X c #C4B8A7",
"<X c #C5B3B1",
"1X c #C6BAB2",
"2X c #CABCB5",
"3X c #CDBDBA",
"4X c #C8B8B5",
"5X c #D3BDBC",
"6X c #D3B8A3",
"7X c #D8C28C",
"8X c #D4C393",
"9X c #D7C399",
"0X c #CAC08C",
"qX c #DAC4A6",
"wX c #CDC2BA",
"eX c #C8C3B9",
"rX c #D3C5BE",
"tX c #D7C8BC",
"yX c #CCC2AA",
"uX c #E6D3B8",
"iX c #E0C590",
"pX c #D4CBC2",
"aX c #DBCCC5",
"sX c #DDCCCA",
"dX c #D7C6C4",
"fX c #DCD3CB",
"gX c #D5D1C9",
"hX c #DCD8D4",
"jX c #C9CACE",
"kX c #E2CCCB",
"lX c #E2D3CC",
"zX c #E1D8CF",
"xX c #EAD5D3",
"cX c #E4DBD4",
"vX c #ECDBD5",
"bX c #ECDBDA",
"nX c #E5D8D6",
"mX c #F4DDDC",
"MX c #EAE3DA",
"NX c #F5E5DB",
"BX c #F4E5C6",
"VX c #DFDEE5",
"CX c #DEE2E6",
"ZX c #E9E8E8",
"AX c #FBEBE3",
"SX c #F8EAE5",
"DX c #FFF3EA",
"FX c #FFF6EA",
"GX c #FCF8F6",
/* pixels */
"+           . % ,Xc.V.^.^.^.F.B.B.B.B.M.B.k.k.k.M.c.c.k.e.e.! ! W U V A @.&.R V @.H A R T V q 3 q w Z U J U &.t.# X             ",
"O           . % ,XS.S.%X-X-X-X-XiXiXiXiXiXiX=X@X@X^.D.A.e.8.! Y U U A Y W R A B H A A T H 0 8 q q 0 C Z J U ;.<.@ X             ",
"X           % % T.Z.^.9X6X=XqXiXiXJ.J.J.iXiX-X$X^.T.V.w.e.! Y S w w U Y L V 0 q Z A T T Z q q q 0 n n B A U U @.o o             ",
"            % % A.Z.^.#X=X-X-X-XiXJ.J.0XiX-X-X$XV.k.3.! ! Y Y S w w U U A Z V n W E E U C 0 q 0 V n 8 q b B B B o X             ",
"        X   o % V.T.$X=X=X*X*X9X7X0X7X9XqX9X'./.c.q.3.! W Y Y S S H R W ;.-.;.*.-.*.R A Z Z Z n S b 8 q n n z 8 o         O     ",
"O           . % c.`.%X%X=X=X-X=X0X0X0X0X/.D.A.V.8.! Y U W W Y S H W *.0.s.f.d.f.f.9.*.T T E I Z C n q q B C C B o               ",
"+           . % w.`.6X/.=X9X@X*X8X8X8XoXD.V.k.w.Y S w S Y W U S W 4.d.L.~.I.).).I.I.C.9.*.*.E Z C B n B B C A J X               ",
"O           . % c.,X6X@XqXqX=XiX8X8X0XF.H.e.^ 8.! T T W ! &.W U -.n.].eXeXeXwXgXyXwX XL.9.%.L V S C B B n B B C o         O     ",
"      X   . . % A.'.&X+X=X@X@X9X8X8XoX'.V.! 3.3.W W &.;.W U &.i.L.`.gXZXNXhXaXpXwXwXeX`.R.C.*.0 C B q 8 9 9 b M X               ",
"          . . % Z.+X%X+X=X@X@X=X#X8X#X9XV.! ! I ! U U 0.f.C.L.).cXMXcXfXpXpXfXMXpXpXeX|.].T.s.*.U V q 3 3 3 9 8 X X             ",
"O           . % T.'.%X+X-X-XXX*X-XoX@X=XA.^ ^ I -.A U f. XeXeXeXMXMXvXcXfXfXaXpXgXpXpXwX1X XI.d.;.T 0 3 3 9 9 3   X             ",
"      .     . % T.$X%X+X@X@XoX-X-XXXXX;XV.^ e.3.%.L &.R.gXhXgXgX XyXwXaXzXfXrX1XpXpXeX2X1X>X_.I.h.<.U b 9 b n b o               ",
"            o % T.&X&X;X@X@XXX-X-X-X-X-XM.~ 2.1.I %.m.3XbXhXgXgXeX|._._.|.wXpXaXrXrX3X1X>X>X_.R.L.f.&.U m n B n X               ",
"O     X     . % ~.,X$XXX-X@XXX-X-X6X-XqXZ.~ ^ P P b.{.nXZXnXnXnXfXwX_.(.(.>XwXtXrXrXrX1X>X|.].R.I.h.;.U m b n n o             O ",
"            . % E.$X+X^.#X#X@X-X-X-X-XqXXXz.M.6.K.<XbXbXnXbXbXfXrX3X>X[.`.[.|.>XrXrXwX>X:X{.].R.U.C.i.W C 9 9 n                 ",
"      X     . % ~.$X$X^.#X*X@XOX-XXXXXqX6XXX:XQ.sXSXGXbXdXnXfX1X3X>X_.E.W._.{.1X2XeX2X>X X`.(.W.U.C.f.;.A 9 9 n   o             ",
"            @ 5 .X(.'.'./.F.J.0X8X/.9XqX+XqXNXBXDXmXbXnX4X}.].2X[.}.}.[.{.:X<X4XeX4X{.{.].E.R.I.I.h.i.0.$.0 7 9 .       O     . ",
"X           : 5 R.(.(.`././.J.J.G.D.0XuXqXlXAXAXDXAXmXnX2XW.x.q.b.m.P.E.{.<X<X{.3X4X{.}.W.W.U.L.A.h.0.0.$.n 7 7 . . . . .       ",
"            @ 5 R.(.).^.F.F.F.F.0XG.8XBXBXBXAXDXSXAXNXxXrX_.a.~ 1.5.l.!.<XdX5X4X3X{.(.W.U.I.L.L.C.f.i.0.$.N 7 9     .         . ",
"X       O O @ 4 L.U.).)././.J.0X0X/.0XyXlXNXFXNXSXSXMXsXrX1XI.6.%.1.a.!.dXxXkX4X.XW.P.n.L.n.n.n.f.f.i.8.P 9 7 7 . . .   O .   O ",
"        O   * 5 .X]. X X'./././././.^.D.=XAXFXDXDXGXAXlXwX>XE.b.6.s.b.Q.dXxX5X{.I.K.a.p.s.s.i.9.-.0.i.;.U 8 7 7   . O . . O     ",
"      X O   @ - U.U.R.(.).~.`./.'.yX~.Z.yXFXFXNXNXDXAXMXaX5X,X`.Q.Q.Q.4XkXkX<XW.b.a.5.5.5.4.=.$.;.0.0.;.B 3 3 9 .   .     .     ",
"      o O O O : K J &.i.f.A.R.`.I.~.Z.'.MXFXNXAXNXvXxXlXlXtXtXkXkXkXkXxXxX3X!.v.p.6.4.5.9.6.<.$.W -.<.U 9 & 3 v   . .           ",
"      @     . : J o.{ J C U Z P *.! -.).FXFXMXFXNXkX1X<X4X>X2XkXxXmXxXmXkX{.b.=.5.=.4.u.d.h.s.4.W -.-.U 9 6 & 9                 ",
"            O O M F M F N M 7 7 q C =.fXMXZXNXhXzX1X(._.:X,XtXkXxXmXmXxX:XK.p.7.1.1.u.K.K.a.u.s.&.&.W V 3 & & 8     X           ",
"          O O O s M z M F F F F K H i.ZXZXSXSXfX,X'.[.2XkXkXxXNX5XkXxXxX<XK.u.%.%.P P =.9.i.u.5.&.W C 8 # $ & 8   o             ",
"            O * d s s l F x ' F | } h.GXZXZXZXpX X1XtXvXNXvXxXmX5X5X5X5XQ.K.p.1.%.N 7 N P %.=.5.-.U q # # # 2 2 X               ",
"            O O d a a l l x x ' | | g.GXCXhXMX|. X|.1XrXkXkXkXkXkX5XQ.K.b.l.l.a.1.P N N J $.=.=.-.C & $ 2 2 2 2   X X           ",
"            O * s s j j l / / ( X.| g.VXVXVXhX X`.R.P.T.[.2X5X4XkX4X!.x.s.a.l.b.5.4.%.P P %.=.<.o.q $ # 8 2 2 2 X X   X         ",
".           O O s l j k / / _ _ X.:.y.jXVXVXhXeXpX|.I.Z.T.:X}.Q.:XQ.P.b.a.a.l.v.5.6.5.3.=.=.=.;.n # $ & 8 # # 2     X   O       ",
"            O * s j j k / / _  .X.y.[ .XVXZXVXhXMXfX,X~.Q.Q.T.m.K.Y.K.m.a.a.l.b.a.d.s.u.5.5.*.H 8 $ $ & 2 $ & z X X +   X       ",
".           O O a a j k / _  . . .y.F U.VXZXjXZXfXfXwX[._.Q.Y.l.m.M.m.l.a.s.v.K.K.L.v.p.u.5.W q 8 $ # 2 2 $ 8 U                 ",
"            O * s a p y j / ` ..o.c ] j.ZXZXhXhXjXdX5X:X}.K.K.z.m.M.z.z.z.z.M.Y.P.L.v.s.u.=.K 6 5 , ; 4 4 , z o.X               ",
"          O O * s p p p h l ' [ [ D D O..XGXZXgXdXdX5X{.Q.K.K.z.2.2.2.2.2.z.K.;XW.K.v.d.5.P 7 5 i d i z z z G #.+ O O   O     O ",
"            O * s s y r h l ' ` ` [ c o.g.ZXGXhXsXsX5X}.}.!.K.b.2.1.~ 2.1.z.m.Q.P.v.a.l.5.v % M z z z G { o.o.&.O O O O   O     ",
"          O O * s a d y y l '  .' [ D [ ] .XZXZXhXsX5X:XQ.Q.K.l.z.z.2.z.z.M.m.Z.v.a.a.u.$.v 7 K G D D ] :.,.,.>.O O             ",
"            O * s p d r y h x ' ` [ ` o.; j..XhXjXjX1X].E.Y.m.s.l.6.6.l.m.Y.m.M.u.h.a.$.Z J J J #.o.] ] o.,.,.:.O O   O         ",
"            O * s p 4 r y h x ' ` ......; s t.!.{.3X3X|._.R.Z.M.l.6.6.b.Y.Y.v.9.u.a.u.J M } $.} :.O.{ G o.>.>.o.O O O   O       ",
"          O O * s p r r y y x (  . . .x ' p G ,.h.U..X(.).I.A.C.M.p.u.a.n.a.9.5.5.=.J 7 7 J $.$.o.O.o.o.o.>.:.o.O O O     O O   ",
"          . O @ s p 4 r r h / ( ) ) ` g y.' D ] } t.C.L.C.C.f.w.s.5.5.u.u.u.i.a.%.M @ @ 4 m } >.{ o.O.o.O.>.:.o.O O O           ",
"            O * s s p r e e k ` / ) / / ) x c o.s v m P 0.h.C.C.f.K.h.,.P J J M 5 : : - O O v ,.t.o.o.O.:.,.:.G = O     O O     ",
"            O * s a p t * e h /  ._ / / ` x g x c s z B R -.-.;.i.f.i.H 3 5 , @ : @ - 5 4 d { j.j.,.>.O.} o.#.{ = O O           ",
".           O * i p p y e e f k ` ) g g ) ( g c D z t 8 b B b q C H m ,   + + O 4 - - 4 : = z o.r.O.r.r.{ { #.} = O       O     ",
"          O O * d a a p r r r f g g g g ` ( g ( ' j 1 > , , $ $ X > >     + , 1 4 < < ; * O O < c G >.t.>.O.#.{ @ O O           ",
"            O * i a j a p y y f u g u g ) / g ` [ g 1 1 > > + $ + + > + + + + O 1 ; 1 < ; = 1 a 1 < { r.>.:.:.G = O     O O     ",
"            O * i p a j h f f f u g u g k g u ) +.c e t 4 > > , + > > > > > = + 1 ; ; ; ; t t p 1 t ] O.{ { o.{ * O O O         ",
"            O * d d p p h h g u u c u g ) g u g +.x e u t > + , X + + > 1 > 1 1 1 1 ; = ; = ; * 1 z O.,.{ G o.} :         O     ",
"          O O * d t t y y h u u c u u u ) / g g +.( e e t = + > > + + + + + = = > = = = ; r r ; = c t.j.o.G { } = O O           "
};
