/* XPM */
static char *_67b5d9950d6409ab51d8f15430ece6aH8ybnbCagQBT6klP[] = {
/* columns rows colors chars-per-pixel */
"63 64 252 2 ",
"   c #030C04",
".  c #030C09",
"X  c #05130C",
"o  c #09160A",
"O  c #161609",
"+  c #031414",
"@  c #0C1415",
"#  c #021B1B",
"$  c #091A18",
"%  c #141717",
"&  c #0E0B07",
"*  c #271D13",
"=  c #3A1B13",
"-  c #2E0F07",
";  c #0C2318",
":  c #18261B",
">  c #142914",
",  c #24271A",
"<  c #362618",
"1  c #2F3314",
"2  c #082A26",
"3  c #182A27",
"4  c #0B3B2D",
"5  c #0A3629",
"6  c #193629",
"7  c #0C3B33",
"8  c #0C3632",
"9  c #123C34",
"0  c #163C37",
"q  c #24372B",
"w  c #233631",
"e  c #2F3228",
"r  c #001D22",
"t  c #461B16",
"y  c #581B14",
"u  c #4A1409",
"i  c #641D18",
"p  c #47251B",
"a  c #55261B",
"s  c #45301F",
"d  c #63241C",
"f  c #64271C",
"g  c #492922",
"h  c #572B24",
"j  c #49382A",
"k  c #593429",
"l  c #563A37",
"z  c #642B23",
"x  c #6B2B25",
"c  c #68362A",
"v  c #75362D",
"b  c #673B35",
"n  c #773C34",
"m  c #7F2E2D",
"M  c #0D4137",
"N  c #15453A",
"B  c #1B4A3D",
"V  c #174439",
"C  c #1A513F",
"Z  c #254639",
"A  c #314839",
"S  c #584438",
"D  c #4B4934",
"F  c #6B4437",
"G  c #734B3C",
"H  c #7C4D3C",
"J  c #794437",
"K  c #754633",
"L  c #1C4B41",
"P  c #1B4644",
"I  c #1C5243",
"U  c #224C42",
"Y  c #284942",
"T  c #275346",
"R  c #33584A",
"E  c #355D57",
"W  c #30524D",
"Q  c #2E6759",
"!  c #346B5D",
"~  c #3B6859",
"^  c #37664F",
"/  c #366E60",
"(  c #3A6B62",
")  c #3B7365",
"_  c #3A7766",
"`  c #3C5F65",
"'  c #525148",
"]  c #784C44",
"[  c #675346",
"{  c #7B5344",
"}  c #7B544B",
"|  c #785849",
" . c #785D52",
".. c #6A4F4A",
"X. c #4D6A57",
"o. c #7B6458",
"O. c #72674E",
"+. c #466D64",
"@. c #427365",
"#. c #487669",
"$. c #567869",
"%. c #507773",
"&. c #71746B",
"*. c #4D5F63",
"=. c #203F42",
"-. c #8A3936",
";. c #834B3C",
":. c #834639",
">. c #86513F",
",. c #864B45",
"<. c #835344",
"1. c #8C5443",
"2. c #8B594B",
"3. c #88564B",
"4. c #945B4B",
"5. c #945649",
"6. c #875B54",
"7. c #975C52",
"8. c #944F48",
"9. c #99614F",
"0. c #87655A",
"q. c #9B6455",
"w. c #986658",
"e. c #8F7058",
"r. c #A46C5C",
"t. c #A36659",
"y. c #A7725E",
"u. c #896765",
"i. c #976B64",
"p. c #9A7566",
"a. c #8D7870",
"s. c #A86C62",
"d. c #A87766",
"f. c #B37C6B",
"g. c #B4776A",
"h. c #A87C73",
"j. c #B77B72",
"k. c #C47E77",
"l. c #568273",
"z. c #6B8574",
"x. c #988276",
"c. c #8B8978",
"v. c #AA826C",
"b. c #B5826E",
"n. c #AC8472",
"m. c #AA8978",
"M. c #B48473",
"N. c #B48C7B",
"B. c #BB8C7B",
"V. c #B88677",
"C. c #BD927C",
"Z. c #B5927D",
"A. c #AC937D",
"S. c #C38A7B",
"D. c #C3937D",
"F. c #CB947F",
"G. c #6D918F",
"H. c #759F9F",
"J. c #919287",
"K. c #B98D82",
"L. c #A79789",
"P. c #BB9483",
"I. c #B99885",
"U. c #B59D95",
"Y. c #AB938D",
"T. c #8AA799",
"R. c #A9A89A",
"E. c #B5A493",
"W. c #91AFAD",
"Q. c #B3AAA6",
"!. c #B0B1A6",
"~. c #C58D82",
"^. c #C49483",
"/. c #CB9483",
"(. c #C39983",
"). c #CC9A85",
"_. c #C49B8C",
"`. c #CB9C8C",
"'. c #C7958A",
"]. c #D49A8A",
"[. c #CB9E91",
"{. c #D39F93",
"}. c #C7A18C",
"|. c #D3A28E",
" X c #CCA293",
".X c #C6A598",
"XX c #D4A593",
"oX c #D7A899",
"OX c #CEB4AD",
"+X c #E2A799",
"@X c #B7C3B0",
"#X c #89C1BE",
"$X c #CDC4B5",
"%X c #9AC8CC",
"&X c #9ACDD7",
"*X c #9BD5D7",
"=X c #A5D5DA",
"-X c #ABD0D2",
";X c #BEE1DC",
":X c #A4D4E3",
">X c #A4DBE5",
",X c #AADBE4",
"<X c #ABDDE9",
"1X c #A9D6E4",
"2X c #B6DDE6",
"3X c #ACE1EA",
"4X c #B4E2E6",
"5X c #BCE2E5",
"6X c #B4E2EB",
"7X c #BCE3EA",
"8X c #BCE8EB",
"9X c #B3E3F1",
"0X c #9ED2E0",
"qX c #CBC6C6",
"wX c #C5DADA",
"eX c #DBDAD9",
"rX c #D6CBCA",
"tX c #E2DAD5",
"yX c #D3E5DD",
"uX c #E7E3DB",
"iX c #C5DEE6",
"pX c #C3E3E5",
"aX c #C3E4EA",
"sX c #CAE5EA",
"dX c #CCEAEC",
"fX c #C8E9E9",
"gX c #D5EAE6",
"hX c #DCEBE5",
"jX c #D4E6EA",
"kX c #D4EAEC",
"lX c #DCECEC",
"zX c #DAE5E6",
"xX c #D9F2EC",
"cX c #C7E8F0",
"vX c #DBECF2",
"bX c #D6EBF0",
"nX c #DCF2F2",
"mX c #E2ECEC",
"MX c #EAEDEB",
"NX c #E3E8E6",
"BX c #F2EEEC",
"VX c #ECF3ED",
"CX c #E4F3EC",
"ZX c #F1F2ED",
"AX c #E4EEF3",
"SX c #E4F2F2",
"DX c #ECF3F2",
"FX c #ECF8F8",
"GX c #F2F4F2",
"HX c #F6F8F7",
"JX c #F3EFF0",
"KX c #8EBDC3",
/* pixels */
"*X*X=X:X:X:X0X&X&X*X1XW.$.3 3 ; , 1 O O s G e.r.e.e.y.p.r.e.w.q.5.5.>.K c s u O & - & X   X . X % *.W.&X%X&X&X0X0X:X:X:X:X=X&X",
"*X*X1X1X:X0X0X%X*X#X%.8 3 w q $ > & O D e.e.p.d.d.v.v.y.y.p.w.q.9.4.>.>.H K k t - & O , : o X o $ . 3 G.%X%X1X0X:X:X1X1X:X-X=X",
"*X=X1X:X<X:X&X0XH.I # # 3 ; o o   O ..a.x.h.m.n.v.v.v.y.d.y.r.q.t.9.>.4.{ H K b g O O e q : o @ + . + + %.:X%X0X:X:X:X<X,X,X=X",
"=X,X1X1X1X&X0XW.I 5 2 8 ; X   o & [ L.m.m.N.n.n.v.v.p.v.p.d.r.r.t.9.>.>.>.H K c c < * * : : % o @ + + + + G.-X0X0X:X:X1X,X=X=X",
"3X=X<X<X0X&X1XE 2 2 5 ; + o o O j x.L.m.K.K.K.j.b.v.n.v.d.d.r.w.9.5.>.>.;.;.J c k a , O , , ; o . . . . + 2 %X0X:X:X:X>X=X=X,X",
"3X=X<X>X&X1XG.# 5 V 6 ; ; o O < u.x.N.P.K.V.P.V.Z.M.m.V.f.d.d.q.5.9.9.5.;.J n n h k p O % q : o @ .   + + + ` 1X:X:X>X>X2X,X2X",
">X,X<X0X0X&XP # 6 Z > o o o & S i.K.K.V.K.K.m.K.C.V.V.B.M.b.d.r.t.5.>.5.>.:.:.c c z p * * , : o       . + + r H.,X>X>X>X1X2X-X",
",X>X>X>X3XG.r 3 w ; o o   O * O.p.K.K.K.K.'.'.[._.B.K.B.V.M.b.r.t.9.5.9.>.:.:.v c h k < O : 6 $ .       + $ + ` 1X>X>X>X,X=X2X",
"9X<X<X>X0X%.+ 3 : q 6 >   o s o.n.m.N._.P.'.oXoXXX_.^.D.b.b.b.y.9.9.9.4.>.:.:.v c f s s * , q o o & & . + @ r =.=X=X*X3X>X,X2X",
"9X<X<X:X<X%.# $ : A q > o o D O.v.N.P.(._._.+XOXoX[._.D.b.S.S.y.t.9.9.4.>.;.:.:.K c f 1 O , % o .   X . @ r + W ,X>X3X3X>X4X2X",
"<X<X<X>X3XG.# $ ; o : o > O s 0.m.N.I.}._._.oXoXXX[.).C.b.b.b.y.q.9.5.>.>.;.;.K K F K 1 , , ; X   o & @ @ r r %.,X3X3X>X2X1X2X",
"9X9X>X<X9XKX2 r X Z Z > o O e e.m.N.I.}._._..X[._.'.F.F.b.b.b.y.y.q.4.4.>.>.H K K K K p < , > o   o . + + + 2 G.4X>X>X3X,X2X2X",
"2X9X2X9X3X,X+.+ X A q o > > D e.m.N.P._._._. X X[.^.^.~.S.f.y.f.y.w.9.5.1.;.H K K G k j < , O o o . . $ + # P %X4X3X,X3X4X2X2X",
"9X2X<X9X<X6XW.r M Z Z A 1 : e a.A.N.I.[.}.`. X[.{.^.S.B.b.v.v.b.d.d.t.7.>.H G G G G F l p * & o o . $ + # + G.<X3X>X,X4X2X5X5X",
"7X2X9X9X<X<X;X*.; M Z A e > S x.Y.N._. X X X X|.'.D.S.V.d.d.b.B.b.d.s.t.9.2.{ H H G { F j * O o . @ @ + ; =.%X5X=X,X>X,X2X7X5X",
"6X2X2X<X6X<X7X%XB ; : A Z > D x.P.P.I.}. X XXXoX`./.D.V.b.b.b.B.b.g.y.y.w.9.2.| | G G [ F e O O + $ $ $ # H.8X3X=X3X2X<X2X5X5X",
"6X6X2X9X6X6X6XcXW.3 3 w 3 e ' a.P.I.I.U.XXoXoXoXXXC.V.B.b.S.D.b.b.f.y.y.e.e.2.3.| G | | ..l , O + # $ . %.sX2X9X<X2X9X2X2X7X2X",
"6X6X6X7X6X6X9X7XiXW.3 @ q : ' h.I.I.m.m.K.A.A..XP.V.B.M.f.V.S.g.y.y.y.w.4.H G F K K | 6.0.[ < % : @ . &.wX2X7X9X9X9X6X9XaXiXiX",
"5X6X8X2X6X6X8XiXiXjXJ.* O q S L.I.n.m.m.d.i.i.w.e.d.v.b.y.f.g.y.g.4.1.G G F k b F G } | o.| j O % % a.NXiXiXiX9X2X2X9X7XiX2X;X",
"5X5X7X7X4X7X2XcXjXQ.Y.a.1 < o.m.K.n.m.n.i.] ..b G H 9.y.9.y.r.t.4.>.F c h p b l k F } o. .O.[ 1 O l ....R.iXiX1X2X2XaX2X2X2X;X",
"aXaXiX2X5X4X5XsXiXa.K..XO.D m.I.m.m.A.m.Y.N.p.] F a F >.4.y.y.>.<.n k a h b ..} G F {  . .o.O.s g h x b ..qXiXiXiX2XaX7XaX7XpX",
"pX2XiXaX8X;X5XjXqXY.k.i.m.e.I.I.N.m.P.A.0.[ j g < h a F Z.F.y.H z = = t = g h b G | } } 0.0.0.k b F ,.x g Q.jX2XpXaXaX7XaXaXpX",
"iX2XiX7X5X5XaXjXrXx./.+X).Z.}.Z.n.m.| p = = - - k g G p.}.|.b.K u t t ] k - t t t F 6.} 0.0.0.] ] y -.x = W.iXiXsXaXsXiXaXaXaX",
"aXaXaXpX;XpXpXiXrXp.S.].y.C.}.C.Z.e.G p.P.L.6.o.0.{ e.C.D.B.r.v p p ] a.u...} } b h b F  .0.0.6.n i -.i t Q.jXiXsXfXiXaX7XaXpX",
"5X8X7XaXpXpXpXyXeXU.j.k.t.D.D.(.C.B.C.}.[.U.h.u. .6.p.K./.b.t.:.a p } } 6.6.} } ] ] b F 3.0.i.] i -.-.i l rXkX5XpXpXsXcXcXcXaX",
"4X8XaXaXfXfXsXiXNXOXj.].F.|.D.(.F.}.`.P.m.p.i.i.p.V.^.'.].S.d.>.K a K 0.{ G ] ] ] <.H ,.} 0.u.] u i -.y o.VXwXaXsXsXsXcXcXaXfX",
"4X8X8XaXfXsXsXiXjXOXK.j.XXXXD.D.|.|.(._._._._.I._._.~.^.|./.g.1.K k c e.r.0.4.w.0.2.<.<.] 7.i.b x y -.h Y.mXsXaXsXsXdXcXcXsXsX",
"5X8XaXcXdXdXsXsXNXOX[.g.{.oX(.^.(.XXXX X.X X}.I.[._.^.^.|.S.d.2.K F c H s.w.7.w.9.2.;.{ <.u.u.] -.u x h Q.AXbXcXsXdXdXdXcXcXjX",
"fXaXaXfXfXdXdXdXzXOXI.'.'.oXD.P.D.XXoXXXoXXX}.}._._.).^.^.V.j.6.<.J K v w.r.t.5.5.>.>.{ 8.6.u.] n u n l qXzXsXiXdXdXdXdXdXdXkX",
"dXfXfXdXfXdXdXxXAXqX_.+X].{._.^.}.}.|.XXoXXX}.F.).D.D.). X/.V.w.3.n c c q.s.t.9.5.>.>.>.6.u.6.,.y x b l eXlXjXvXkXxXdXdXbXkXzX",
"jXkXdXdXdXfXxXgXzXrX{.oX`.K.`.^.D.F.|.oX|.XX|.|.V.F.).{.oXS.g.s.8.7.:.d v t.r.4.5.>.,.,.,.u.6.,.m 6.x u.NXzXvXiXkXkXdXxXbXkXzX",
"jXkXdXdXfXdXfXgXNXrX[.oXoXI.P._.D.F.F.F.F.XXF.V.b.].].S.S.g.7.5.3.3.5.-.y -.t.9.1.,.2.8.8.u.u...,.,.b Q.MXjXvXbXkXkXdXxXkXzXzX",
"jXsXsXdXgXdXkXlXzXMXQ.E.L.E..X'.F.D.F.F.].].S.b.{.K.b d ,.7.n ,.J t z x x y -.8.:.>.;.7.,.u.6.l ..b ..eXmXgXgXkXjXkXxXkXkXhXNX",
"bXkXkXdXdXkXjXjXzXzXeXR.!.uXOX_.C.D.F.F././.V./.oX[.7.] n n x h y u y c x x i n 5.;.v 1.2.0.u.i.l l Q.AXyXgXgXgXlXxXxXlXlXhXNX",
"bXbXdXkXjXjXsXgXlXNXNXCXmXuX$X.XC.D.D.D.).F./.oX{.`.'.'.~.j.7.m z z z z v x d x :.:.x ,.7.u.i.rXU.Q.eXzXyXgXjXlXbXvXnXlXlXhXhX",
"bXbXkXkXkXkXdXkXjXAXmXNXhXyXtXE.Z.D.B.F.].).'.`.'.'.K.~.k.i.7.t.7.J n v c c x a :.,.f J 6.u.u.rXJXJXAXeXhXjXlXjXvXAXAXnXCXhXNX",
"vXvXvXbXlXkXbXbXvXjXvXzXhXhXtXE.Z.C.D.D.`.).`.).~.~.V.K.j.6.8.t.s.5.,.,.b b c v n ,.d n } u.o.qXJXeXzXlXzXlXlXmXAXAXAXAXSXmXNX",
"jXjXbXbXbXbXbXdXjXAXvXAXxXNXuXE.C.C.C.F.`.^.B.B.K.~.~.~.k.g.g.s.s.8.] ,.,.] c J J -.d :.,.u.o.qXAXjXvXlXxXlXAXAXFXAXFXAXSXmXCX",
"bXjXbXvXbXlXjXbXvXvXAXbXgXhXeXQ.Z.C.F.}.`.d.<.w.M.j.g.7.,.m -.m y y x z c a a <.8.] i n 6.u.o.qXJXAXvXjXFXlXAXSXFXJXGXGXVXCXMX",
"zXlXlXlXlXbXjXjXvXAXlXmXmXNXtXU.Z.C.D.}.B.2.c w.7.2.5.8.7.8.8.8.-.m x x y u u <.7.,.z ,.3. .o.$XAXvXvXAXlXzXDXDXFXJXDXVXVXMXVX",
"lXlXxXxXgXgXxXkXzXAXmXzXlXzXtXU.Z.C.C.}.D.v.^.XX~.]./.].].k.k.s.q.7.8.-.:.c z ;.4.J v >.} 0.[ Q.FXlXFXCXmXDXSXVXAXFXDXDXMXVXMX",
"mXlXxXgXgXhXlXjXzXAXmXmXNXMXtXU.Z.D.C.D.D.D.XX{.'.~.~.k.s.7.7.-.:.J J J :.n :.q.1.K K 2.6. .S *.hXSXhXNXDXCXVXFXDXJXGXVXZXZXZX",
"lXhXhXgXgXgXgXlXzXlXNXmXhXMXtXU.I.C.C.V.P.`.XX X{.].~.s.8.8.8.-.:.n :.:.J n ;.4.>.K ;.<.3.[ S e T.DXNXCXMXVXVXVXAXVXDXGXZXZXZX",
"lXxXhXgXhXlXxXlXAXAXNXmXyXuXuXU.C.}.C.Z.C.(.`.`.`.'.k.g.s.s.8.8.1.:.,.:.J ;.;.<.H H <.H ..D O.A W wXDXVXmXVXVXVXDXDXGXZXZXZXZX",
"mXlXlXlXlXlXlXlXmXlXNXmXhXhXBXE.Z.}.D.N.Z.(. X}.[.'.~.K.~.k.s.i.3.2.2.3.1.3.<.<.K ;.;.G S ' z.e e z.FXAXZXMXVXDXVXVXGXZXZXZXZX",
"hXlXxXlXmXlXlXnXlXCXmXAXCXZXuXL.C.D.C.Z.I.(.}.oX[.{.'.{.oX~.h.s.7.q.w.6.2.6.{ { H H F F k c.' q w Y wXFXmXGXDXZXDXDXZXJXBXZXZX",
"zXzXlXlXlXAXSXnXSXSXCXCXCXCX@Xc.I.D.Z.A.Z.Z.I..XOX{.'.'.'.h.h.h.w.2.7.6.} } { H H K c a [ J.6 V 0 3 G.MXNXHXVXGXGXGXGXMXZXMXVX",
"mXAXAXmXlXlXlXSXlXCXCXxXCXyXc.c.A.}.C.m.v.A.I.}.[._.'.P.j.i.h.K.i.] 3.} ] G { ] K z a p x.' 6 M 9 0 Y wXDXNXDXFXGXGXZXBXBXZXVX",
"MXNXNXAXmXmXlXlXhXCXxXxXxXW.z.z.A.A.D.A.v.v.v.A.A.Z.I.m.i.u.h.s.6.] ] ] ] H n c z h g O.c.q V 9 9 9 8 *.yXGXCXVXDXGXGXHXZXZXZX",
"NXNXNXmXCXnXlXlXnXgX;X!.z.z.l.O.c.}.}.C.v.v.v.v.v.e.h.i.6.3.i.,.b b b n J c c a h p F L.D Z Z 4 8 P 0 8 ^ W.CXFXVXDXVXGXMXZXZX",
"SXSXAXvXnXxXgXwX@XH.G.l.l.X.l.l.c.}.C.}.A.A.v.2.}  .] b b b F b z b b c z x a a p S L.D Z Z 7 M M V V 4 ; M X.-XnXFXCXCXGXZXuX",
"gXkXvXbX5X@XH.G.l.#.l.l.l.^ l.X.z.@XE.}.|.D.C.v.G l b b n b c c b b c h z y a p j !.X.Z T U P M M V M 4 5 M 2 P G.wXFXCXCXZXMX",
"fX;X-XT.l.+.+.#.l.l.#._ ^ ^ _ l.X.@XC.|.|.|.|.|.h.G h t u y z d d z d d y u p S !.' V A N L V 9 4 4 V N 5 4 8 5 2 W T.fXCXCXCX",
"G.l.#.~ @.@.#.@./ @.@.@.l.^ ^ l.l.c.$XE.|.F.F.D.^.M.~.s.v y d i x x h y p - O.!.' Z A C N L P 0 V 9 V 9 7 4 8 8 9 5 8 X.W.yXCX",
"l.l._ _ ) ) ) ) _ / Q _ _ ^ _ _ l.l.R.$XI.|.C.D.S.).XX+Xk.n i f x y a = = x.R.A Z A C V L 9 9 0 0 0 0 0 8 7 0 8 8 2 V > 6 ^ T.",
"@._ ! ! ! ) ) ) ! _ _ ! l._ / ^ ~ X.l.!.$XA.D.C.S.].].].s.n v x d d - b R.c.A Z C B C C B V L 9 V V 0 8 9 9 8 0 8 8 M 5 4 5 5 ",
"_ _ _ / / / / / ~ ) ) ! @.) Q ~ ( ( $.&.!.$XL.N.F.F.F.g.:.x c F h p p.Q.X.q Z Z L I U L Z L N N M V 4 N 7 7 M 8 7 8 4 4 5 M 5 ",
"_ _ _ _ Q Q ! ( ! / ! ! ) ) / ( _ _ ! %.l.T.$XI.b.F.F.4.x c k F u.R.z.w q A Z N L P U U L L B V C M M N 7 7 7 5 M M 4 M 4 5 5 ",
"_ _ _ _ _ / / ! / ) / ! / ) ) ) ! ! ( @.#.+.T.$XI.p.>.K a a o.!.W.$.A A A B I B U T T I L B C C V 6 N 7 7 M M P 7 M 7 M 7 M M ",
"%._ _ _ _ _ _ ( ) ) ) / / / ) ! _ Q Q Q ~ #.X.z.@XE.O.G O.A.!.J.$.X.*.R Z V B L L L I I I I C C V V N 7 P P M M M N M I I I ^ ",
"_ _ _ l._ _ ) ) ) ( +.( ! ) ) / Q Q Q ( Q W W +.X.A.R.L.R.J.~ ^ R Q T P C N L B L I I P C I I N 6 9 V V V 9 N M C C I I ! Q @.",
"%._ l._ %.*.%.+.%.+.#.+.+.#.#.+.~ +.+.E +.( +.+.$.z.$.l.&.' T R T U V Y Y U W E W W E I U U B 0 V Z Y Z 9 V U V ^ ^ ^ ^ ^ X.X.",
"3 3 8 8 w w w w w w w w w 3 w 3 w e w e 3 w w w w w , 3 3 : 3 % % ; % % @ 3 3 ; 3 3 3 $ $ $ @ + $ $ # @ o ; o > > 1 1 1 1 1 1 ",
"@ @ @ $ @ @ @ @ @ @ % @ @ @ % % @ % & @ % @ % @ % $ % % $ $ @ % % % @ % @ % . $ @ @ @ @ @ % % % $ $ + @ O O O O.e.z.e.e.O.c.D "
};
