/* XPM */
static char *dfdb59adc853452daab934905882b18b2HLAzJfPVF3KKpSz[] = {
/* columns rows colors chars-per-pixel */
"64 64 256 2 ",
"   c #040905",
".  c #150101",
"X  c #1A0708",
"o  c #02170A",
"O  c #041913",
"+  c #181715",
"@  c #1A0F10",
"#  c #26090C",
"$  c #250D16",
"%  c #24141C",
"&  c #2A141D",
"*  c #261819",
"=  c #34171A",
"-  c #320F12",
";  c #05271A",
":  c #02351C",
">  c #0D2516",
",  c #2C261D",
"<  c #2D1621",
"1  c #251D23",
"2  c #2C1B23",
"3  c #291824",
"4  c #331523",
"5  c #331B25",
"6  c #3A1C26",
"7  c #341D2A",
"8  c #3C1C2B",
"9  c #3A1526",
"0  c #3B1A2D",
"q  c #192925",
"w  c #0A3423",
"e  c #013C23",
"r  c #0A3C2B",
"t  c #073927",
"y  c #153729",
"u  c #183D34",
"i  c #0A3328",
"p  c #2A2427",
"a  c #34222B",
"s  c #3C222C",
"d  c #382627",
"f  c #27362B",
"g  c #3C2432",
"h  c #382A31",
"j  c #233935",
"k  c #323630",
"l  c #431C2B",
"z  c #471828",
"x  c #4B1B2F",
"c  c #42232D",
"v  c #482829",
"b  c #432433",
"n  c #492834",
"m  c #553838",
"M  c #4E3131",
"N  c #65383A",
"B  c #652136",
"V  c #44201D",
"C  c #014325",
"Z  c #004B26",
"A  c #02432A",
"S  c #014C2B",
"D  c #0A462B",
"F  c #01542D",
"G  c #005B2D",
"H  c #035227",
"J  c #0B4333",
"K  c #034C33",
"L  c #094834",
"P  c #164839",
"I  c #025433",
"U  c #015B33",
"Y  c #02543B",
"T  c #015A3B",
"R  c #0B5739",
"E  c #165539",
"W  c #15442E",
"Q  c #2A493A",
"!  c #006335",
"~  c #01633B",
"^  c #006C3D",
"/  c #07663B",
"(  c #00773C",
")  c #006E2D",
"_  c #00401F",
"`  c #52423B",
"'  c #66423F",
"]  c #6C3E42",
"[  c #095A43",
"{  c #175847",
"}  c #195046",
"|  c #285748",
" . c #365849",
".. c #265C55",
"X. c #2F4F4B",
"o. c #026A42",
"O. c #086547",
"+. c #166549",
"@. c #007343",
"#. c #04794B",
"$. c #186853",
"%. c #077955",
"&. c #177658",
"*. c #0E6D52",
"=. c #28675A",
"-. c #356959",
";. c #25755B",
":. c #2D6C54",
">. c #137B64",
",. c #2A6C63",
"<. c #297968",
"1. c #357269",
"2. c #4D4D47",
"3. c #684647",
"4. c #754947",
"5. c #795657",
"6. c #6A5551",
"7. c #4D675A",
"8. c #79605C",
"9. c #4B766C",
"0. c #717067",
"q. c #7C5F63",
"w. c #855757",
"e. c #945B5A",
"r. c #905E62",
"t. c #896766",
"y. c #956A67",
"u. c #976D71",
"i. c #997777",
"p. c #8E7270",
"a. c #A66C73",
"s. c #A77979",
"d. c #B3797A",
"f. c #A86F6E",
"g. c #8A625D",
"h. c #01864C",
"j. c #058757",
"k. c #15865B",
"l. c #02945B",
"z. c #00964C",
"x. c #00A35B",
"c. c #178A65",
"v. c #089865",
"b. c #179668",
"n. c #16936E",
"m. c #368878",
"M. c #279876",
"N. c #2E8F6F",
"B. c #06A66A",
"V. c #14A36C",
"C. c #0CA873",
"Z. c #18A974",
"A. c #17B579",
"S. c #08B570",
"D. c #27A577",
"F. c #27B47C",
"G. c #2FA677",
"H. c #22825C",
"J. c #459077",
"K. c #72877B",
"L. c #42A97E",
"P. c #10C47C",
"I. c #00813F",
"U. c #9B837A",
"Y. c #84877C",
"T. c #A7837C",
"R. c #B8827E",
"E. c #B77C83",
"W. c #AB7C81",
"Q. c #9C7E81",
"!. c #C47D8A",
"~. c #379887",
"^. c #2E9385",
"/. c #1EB885",
"(. c #29AB85",
"). c #38A789",
"_. c #29B986",
"`. c #38AA96",
"'. c #38B98E",
"]. c #3EBCA4",
"[. c #4D978B",
"{. c #689283",
"}. c #47A998",
"|. c #48B08F",
" X c #49B9A6",
".X c #54BDAD",
"XX c #6CAF9B",
"oX c #19D18B",
"OX c #27C589",
"+X c #2ACA94",
"@X c #37CA97",
"#X c #2BD696",
"$X c #35D798",
"%X c #32C88B",
"&X c #2AE59D",
"*X c #3CD8A1",
"=X c #3BC1A0",
"-X c #39E9A3",
";X c #39F7AF",
":X c #17E595",
">X c #48CE9A",
",X c #47C7A6",
"<X c #49D8A8",
"1X c #54D2AE",
"2X c #68CFAD",
"3X c #47E7AA",
"4X c #4AEAB1",
"5X c #56EAB5",
"6X c #4AF9B7",
"7X c #54F5B6",
"8X c #52ECAB",
"9X c #64EAB6",
"0X c #41E29C",
"qX c #62EBC7",
"wX c #9A8684",
"eX c #A88686",
"rX c #B48B85",
"tX c #B48C8B",
"yX c #BA8788",
"uX c #B8928C",
"iX c #BC8E91",
"pX c #BB9392",
"aX c #B89694",
"sX c #A6968E",
"dX c #BBA39A",
"fX c #BDA3A2",
"gX c #C3888A",
"hX c #C6938D",
"jX c #C78D92",
"kX c #CB9C9B",
"lX c #C69897",
"zX c #D39A99",
"xX c #D2988D",
"cX c #CAA39C",
"vX c #D5A19C",
"bX c #D59EA2",
"nX c #C69EA2",
"mX c #CAA5A4",
"MX c #DCA4A4",
"NX c #D6A7A8",
"BX c #D8B0B0",
"VX c #E2AAAA",
"CX c #E6B7B6",
"ZX c #E6B1B1",
"AX c #E49EA9",
"SX c #F9BCC3",
"DX c #B6FFF7",
"FX c #C8FFFB",
"GX c #D8FFF9",
"HX c #E9FFFB",
"JX c #FFF5FF",
"KX c #F3FFFD",
"LX c #FEFAFF",
"PX c #F2FDF5",
"IX c #FDC2C9",
"UX c #F3C0BF",
/* pixels */
"KXKXKXKXLXKXKXKXGXGXFXFXFXGXKXPXPXHXHXHXGXHXHXHXHXHXHXHXGXFXFXFXHXHXGXFXFXGXHXKXKXKXGXFXFXHXKXKXHXGXGXGXGXDXDXDXFXGXGXPXPXPXPXHX",
"i ; ; ; ; ; q W J.XX2X2XJ.E W Q j |  .| E P | | -.X.} } :.J.m.$.D | J.m.&.I y u y P <.|.m.[ i y r r E :.L.2X<X>Xb.+.W w q w : D ",
"J r r r ; ; W { m.>X9X9X).o.t t D E $.;.+.K I +.=.=.P K ;.|.~.*.F R c.G.j.U Z A Y Y j._._.%.I E : C H :.G.|.%XZ.k./ H y w y _ W ",
"r J P J w ; r { ;.N.|.8X@X&.R R Y R $.H.*.U Y $.;.<.{ [ *.[.).H.O./ c.G.%.T Y I T %.C.+X+XZ.&.O.S D F ) #.l.B.B.( H : _ W D Z H ",
"e J Q P r ; i P K *.(.5X>Xc.T R Y [ +.;.&.T Y +.=.;.$.L +.m.~.N.[ +.N.[.&.I K K S %.C.S.B.v.o.I Z Z Z H ( S.#X#XV.^ Z Z _ Z G G ",
"; i P } P w i r S [ M.9X2XM.[ [ { [ $.<.<.$.+.+.1.-.{ J J E } } r t { ,.| P P P +.@.h.l.l.h.o.I K S F @.Z.$X;X;XA.^ Z C _ Z G G ",
"w i P X.Q y y P { T c.1X9X).&.O.{ { =.;.<.:.=.{ :.P : O O o o o O     O q u j Q R F @.B.OXZ.o.Z C C U k.OX3X;X;XA.@.F I Z F / / ",
"w i P } P u i u L Y c.,XqX].>.O.+.$.=.;.1.1.:.| W ; o o o o o + O + + O @ + p Q L +.Z.$X7X,Xb.U I S G #.V.P.&X6X$Xl.U F : Z ! ! ",
"i i r { ..J J J [ Y %.=X7X*X^.>.$.,.$...,.1.| ; ; o o o o o   @ @ + + + @ * + > _ H.'.$X7X4XZ.! F D I U ^ z.oX6X$Xb.U Z Z S U o.",
"r r [ [ } J i } [ [ >.=XqXqX].(.<.,...,...r ; o o o + > @ @ @ $ X + 1 * * * + o : R b.F.4X3XF.@.F S S G G @.S.3X3XZ.! F S S F I ",
"r r J } } J u } } ..M.,XqXqX,X`.m.,.,.X.q     @   * M ` m M M m ` ` 3.` ` m , + o : / l.<X3X+Xh.F Z S F G / V.3X8XF.@.G S F S S ",
"u [ } } } u j j } ,.~.}.1X X`.^.,.1.-.q O @ $ 6 V m 4.w.w.w.w.e.g.p.p.t.y.g.6.` + o : / >X8X#Xz.~ S H R G G v.-X7X%Xh.G Z H D K ",
"} } } } } u j X.X.,.<.m.^.^.~.~.<.9...O . - M ' e.e.e.e.e.e.a.d.f.s.T.f.f.R.f.w.` @ o _ L.9X3Xl.^ F F R F G z.#X6X$XS.@.U Z C D ",
"} J } P P i j X.X...,.m.[.`.}.}.[.9.u O X - ' e.y.f.f.f.d.yX!.!.gXR.R.R.R.R.R.d.w., o o :.8X4XA.^ G S F I / b.#X6X;X#XV.#.F C C ",
"A Y *.$.} [ P X.....m.`.].`.`.1X.Xm.; o + @ 6.y.y.T.R.hXlXcXlXjXxXvXxXxXxXxXxXgXf.' X o H >X8XoXh.^ F F R #.A.-X;X;X:XA.h.U S C ",
"F *.M.).>.[ } ..,.,.^. X`.^.^..X2Xm.o o + , y.T.T.R.uXR.uXlXlXkXxXxXvXxXvXVXMXxXxXy.= > : >X7X3XV.j.~ F U #.D.:X:X:XoXB.^ G H Z ",
"#.(.1X,XM.O.[ } ..,.`..X`.^.[.[..Xj ;     3.Q.W.pXpXuXpXlXcXlXkXlXmXiXlXbXkXNXbXlXs.M , q L.9X3X%Xv.O.I F / j.A.oX:X&XP.z.) ) H ",
"j.(.<X1X'.%.[ ....1.}..X.X^.m.[.[.O   + 3 q.Q.tXpXpXuXpXiXlXjXlXaXmXlXnXbXbXBXBXBXkX6.+ > H.|.%XV.h.~ I G O.V.%X-X&X0X0XF.I.) ) ",
"&.N.'.<X].>.} ....,.`..X.X^.^.9.[.O   O h p.Q.W.y.y.t.i.i.aXNXNXlXNXNXjXiXiXeXeXpXmXU., o Z #.h.#.^ ~ U G #.F.-X&XP.&X8X0XF.I.) ",
"R [ n.=X,X>.[ ..1.,.^..X.X`.^.m.{.O O   ` u.Q.5.M v = v = 4.i.lXmXmXiXw.N ] M N 5.u.T.M o o ! / ~ ! T U G z.#X6X:Xx.S.8X9XL.z.) ",
"u L >.*X4X^.[ ..1...m. X.X`.^.m.J.; o o ` i.t.4.t.p.Q.Q.q.Q.E.BXNXNXbXu.y.u.t.i.w.5.Q.n o > ) / ~ T / U ! l.$X6XP.x.z.0X9X0Xz.) ",
"j r &.=X4X(.$.$.....m.}..X X^.^.{.y   o 7 Q.t.eXaXaXeXwXQ.Q.!.nXBXCXCXlXyXlXmXBXmXW.W.= @ : +.) O./ R ! ^ l.#X6X&Xx.z.F.8X8XV.I.",
"j i O.(.-X'.>.{ ..,.1.^.]. X}.~.XX` , X = s.tXnXW.w.x $ 6.q.Q.!.ZXZXgXw.N v 6.i.BXNXtX- , Q E G R R / T / l.#X6X-Xx.z.S.8X9XF.I.",
"j u [ (.1X*XM.*.,.,.,.<.`. X.X}.K.0.0.X v u.jXE.5.4.] 9 Q.q.Q.jXjXAXjXa.4.V 3.8.i.NXpX= ` 0.E / R R / / ! h.OX6X-XS.z.S.0X8XF.I.",
"u r [ n.4X<X_.^.N.$...,.,.^.`.^.L.2.Y.M B d.jXgXjXiXeXu.r.u.W.E.jXbXjXa.e.u.eXdXmXbXnX= p.0.:.H R I T O.! ^ D.5X6XP.x.S.-X8XF.I.",
"r [ *.).<X4X+X(.M.,.=.1.,.^.^.^.K.6.wX' N d.jXgXlXgXE.u.u.a.E.E.!.bXbXgXgXpXmXBXnXNXlX] wXK.Q E / / / / G ! b.0X8X:XS.P.-X8Xb.) ",
"r [ *.M._./.C.C.n.*...-...,.^.^.{.0.U.3.] !.jXjXyXE.s.s.W.gXjXjXgXbXVXzXlXcXlXcXNXBXbXt.sXK.E G I F U R Z S *.G.8X-XoX:X-X>XH.H ",
"J Y O.j.C.B.B.B.n.%.{ ..,.m.^.}.K.0.6.' ] !.zXzXzXhXtXyXjXjXjX!.E.zXAXbXMXNXmXNXZXVXbXs.fXK.Q H Z F F U H Z U #.F.$X&XP.A.v.( H ",
"J K O.c._.OXoX+X@XM.>.$.$.^.`.[.9.q.2.] ] W.zXbXNXkXcXuXgXyXgXgXbXMXMXMXVXZXZXUXUXZXzXs.mX7.E G F F F U F Z Z S #.b.Z.B.l.( F S ",
"r Y &.>X4X*X#X3X5X=XM.>.>.~. X}.7.0.Q.q.B r.gXVXNXlXuXrXR.yXgXzXNXZXMXMXNXNXBXCXIXZXjXs.dX` E R F F F Z Z Z Z Z F ^ #.h.h.^ F S ",
"L [ ^.1X5XOXS.+X7X9X`.c.>.`..X}.7.0.Q.t.n w.E.mXBXcXcXuXT.T.d.yXhXlXxXzXVXMXZXUXCXVXf.T.sXQ D G H I / U F F F S S U o.j.c.h.U F ",
"r [ ~.5X3XB.j.Z.5X5X*Xn.>.(. X}.1.-.K.7.a 3.i.iXcXlXdXaXlXrXR.d.hXlXzXVXVXvXzXBXVXvXg.T.Y.E Z H +.;.k.j.^ U S A S R #.b.D.#.F Z ",
"W R G.8X4XC.@.k.,X5X*XC.>.M.].,X>.*.,.7.p h Q.iXcXuXeXrXtXa.a.E.iXtXjXyXvXzXgXZXNXaX2.7.X.W F &.N.b.Z.(./.%.A A L R o.j.V.j.T S ",
"D R G.8X3XA.@.h.@X5X;X/.*.c.(.=X(.%.$.9.X.M p.i.pXrXi.s.iXiXE.E.iXlXNXzXxXR.f.cXmXp.y Q J S T N.F.n.v././.C.O.A L L U @.v.j.T A ",
"t I V.3X6XP.#.#._.4X7X(.*.>.^.].`.>.,.J.X.M t.s.pXrXy.5.r.s.E.!.W.W.jXE.y.f.R.NXdX2.q W A S %.'.(.j.%.C.+X/.%.S e A A ~ l.v.o.C ",
"e F k.>X7X$Xh.( A.<X7X_.*.$.m.}.`.^.m.9.Q p 6.s.tXlXyXa.W.gXAXSXIXAXbXzXf.R.cXcXsXk u P I I j.'._.j.Y j.+X@Xl.K e r C F j.b.#.Z ",
"A Z #.'.7X3Xl.h.(.$X4X(.O.[ $.m.`.`.m...+ @ 3.i.yXkXzXlXE.a.a.!.!.d.R.xXxXMXZXxX0., W A I G j.OX+Xl.F #._.@XV.T e r A S #.v.k.Z ",
"C C U D.3X7XOXD.@X3X*XV.[ K } $.<.N.} ;   * 6.y.d.tXlXzXbX!.!.!.!.!.xXVXvXVXBXU.2.W P C I G j.OX#Xv.U ~ C.*XZ.~ e r A S ^ l.k.U ",
"K C S *._.<X$X@X<X$X_.j.[ L } } } [ ;     = w.w.rXhXlXlXzXjXd.a.R.xXMXZXMXcXuX8.M 7.| A T F #._.#XC.O.U v.@X/.~ A i t S ! l.c.o.",
"R Z C F k.F._.%X%X/.v.o.[ } u P } r O     d 5.4.w.d.lXlXbXlXE.u.d.zXxXCXZXcXU.` k K.-.L T Z ) D.#X/.#.I l.@X/.T A w w K o.b.M.#.",
";.L e K I ^ h.v._.A.l.o.T P u j j q     . # u.4.4.y.R.cXcXrXuXkXbXbXNXCXBXT.U., , ` :.E Z _ G k.OXOXk./ l.%XB.G A y r E o.#.#.o.",
"+.K t e Z F #.v.$X#XB.o.K r u Q j 3 X X . & u.w.4.4.y.uXcXaXtXuXyXNXCXcXT.U.U., > f Q W D _ D / D.%X_.l.B.Z.h.G e w w r I T T T ",
"T A : e Z ! k.'.7X3XOXj.R y q q 3 3 X . . = s.y.g.4.' 4.g.8.8.8.g.U.U.t.p.T.p.X   , p f y y y H #.Z.F.Z.B.l.^ Z e w w e C S S S ",
"O.Y e e K +.N.>X8X7X%Xk.P f q + 3 3 $ . . V s.i.i.y.4.V - = v 6 V V v 6.T.dXp.. X 1 p 1 q f , y I @.h.l.v.l.^ Z e t e e C A K I ",
"M.>.I e S +.;.G.$X3X>XH.f 1 q * & 5 # X . v T.T.y.T.f.4.x M M v v N 5.R.mXdX5.. X & h p * p , W C H ( x.S.S.#.F e e e e A K K R ",
"(.D.o.C C K I ^ Z.8X9Xm.k = % % & 5 # X . m U.rXT.d.s.s.f.u.u.Q.R.xXcXcXcXdX3.. X $ 7 5 @ * d f : ! v.OX&X%Xb.I e e e e e t K L ",
"C.(.k.S C C _ H l.$X>Xm.h z = % * d @ X X 6.T.sXrXT.d.yXgXlXnXZXVXvXlXhXhXcX6.# # # 4 4 & = d , W +.A.&X;X3XG.R A e e e t i r A ",
"v./.n.Y C e : e k.G.J.W $ l n d % = X X @ 8.sXuXrXuXyXyXd.iXzXmXvXvXxXvXxXlX' # # # & 4 = s M , k :.F.$X$X3X).O.Z C e t t r A e ",
"j./.M.O.r y q q q ; ; q 4 9 8 s s % $ X # 8.fXtXaXtXtXiXR.s.yXvXvXgXlXcXlXNX' X # # = 5 9 8 l 0 , Q :.H.'.9X>X#.H Z C : e e e C ",
"@.(.).[ i q 1 3 < 1 % 3 & 5 8 c c = = $ # N eXmXaXtXyXyXrXR.R.yXhXkXvXlXcXcX` # . $ = 6 l b l 0 - * q y :.J.|.N.F Z _ C e : : e ",
"T N.J.P q p 4 4 < % 1 + % & 5 c c 7 6 5 $ = q.nXaXtXtXrXyXrXd.s.yXvXvXlXmXtXv - . $ d b b b 0 9 5 * * + q Q | -.P C : : C t t : ",
"R =.| q 1 8 4 $ & & 3 * % % 4 5 6 s s c = # n p.iXaXiXrXrXrXrXT.lXuXlXmXmX8.# # # = s n b x 9 9 & & a g d 4 , k f y w w : w w w ",
"Q u q 3 4 8 9 - & 2 1 1 % % % & 4 s a d c = 6 3.i.eXaXtXeXrXtXpXlXtXkXaXp.v # $ 6 h n b 0 0 0 9 5 6 6 l x x z x d p q q y : : r ",
"1 1 2 l z z 9 9 = 4 2 2 1 3 $ $ & 7 & = c s 6 n 5.t.Q.tXtXeXtXiXpXpXfXi.m - 5 6 c n n 8 0 0 0 9 n b l z z x x - v d d f q : : C ",
"5 4 l n z 9 z z 5 < 1 1 2 4 & & & 4 & & = 5 4 6 m 3.q.Q.eXeXeXeXeXeXp.n d $ h g b b b 9 0 0 x x 9 5 5 s v c l z x z c h f w e Z ",
"l l x z 9 z z 4 5 2 % & p 5 4 4 $ & & & $ $ $ < h n 6.p.eXeXQ.wXQ.t.b X v 5 4 5 g b 0 7 0 x b n n 8 7 a a & = 9 z z v h f y D A ",
"l z l l l l 9 7 5 2 & 1 5 5 6 4 < < < $ $ $ $ $ = 7 3.p.Q.Q.q.6.g 7 & 4 a $ @ s 0 7 5 4 0 b b b 0 0 5 p p 1 2 7 V c v c d f P  .",
"8 l 8 8 8 8 d 7 2 % 2 & 2 4 4 4 7 7 4 3 3 $ $ & X X p s 7 & . X a 2 % & & $ $ 7 g 7 0 0 0 0 b b 9 5 5 7 p 1 2 5 z n l c s d k 2.",
"8 8 8 6 d a a 2 2 2 < & < 4 9 5 7 3 3 7 3 $ $ 3 % $ < % @ X   $ 3 2 < $ % 3 < 7 g 7 7 8 0 b g 0 8 5 7 8 8 9 5 5 8 c s l x z l m ",
"s s s a h a a p a p 2 4 5 5 6 6 7 7 7 g 0 $ % 7 < @ % 3 h h 7 h 2 a 2 % < < < a g g 0 g b b g g b 8 9 8 x b 9 9 b c s c x x x B ",
"7 5 5 2 p a 1 2 p 4 & % & < 5 4 7 3 7 7 3 $ 3 2 7 @ % + 7 h + + a 1 % & 3 $ % 7 s a a a s 7 7 7 0 0 4 9 9 9 9 5 s s 6 6 n x B B ",
"s a a a a a a a a 7 5 4 5 5 7 2 7 7 7 g 7 % 3 3 7 3 3 3 3 p 1 a h a & a a & 3 g g g g g g g g g n 0 9 9 9 7 s g b c 9 c n n x x ",
"5 7 7 5 5 p 4 2 5 5 4 4 2 2 1 2 3 < < 7 3 % 3 3 3 + p 3 + p 1 h p 5 & 2 2 & & 7 a 7 a 7 7 p 7 7 0 9 3 3 p q 1 p a 8 9 9 s d = p ",
"JXJXJXLXLXLXLXJXJXJXJXJXLXLXLXLXLXJXJXJXJXJXJXJXJXJXKXJXLXLXJXLXJXLXJXJXJXLXJXJXLXJXLXJXLXJXLXLXJXJXLXLXLXLXLXLXJXJXJXJXLXLXKXLX"
};
