/* XPM */
static char *_f1ad3096d064ab8c52052e6b48e2ff3u6JrmB6dxP8zcwsX[] = {
/* columns rows colors chars-per-pixel */
"64 62 256 2 ",
"   c #040203",
".  c #0A0709",
"X  c #130C0D",
"o  c #150409",
"O  c #0C0C11",
"+  c #1C0C14",
"@  c #180D16",
"#  c #0C1616",
"$  c #141213",
"%  c #1A1619",
"&  c #0A120D",
"*  c #220C15",
"=  c #290C19",
"-  c #370D1E",
";  c #24131D",
":  c #2B131D",
">  c #271919",
",  c #33181C",
"<  c #21050C",
"1  c #0C2E1F",
"2  c #34221C",
"3  c #1C1C21",
"4  c #2C1522",
"5  c #2C1924",
"6  c #251923",
"7  c #331525",
"8  c #321926",
"9  c #351A29",
"0  c #3C1C2C",
"q  c #3B1726",
"w  c #350E21",
"e  c #0A2A24",
"r  c #152826",
"t  c #043524",
"y  c #023B25",
"u  c #033C29",
"i  c #0A3D2B",
"p  c #0A3527",
"a  c #14372D",
"s  c #0C3D32",
"d  c #143C34",
"f  c #1A3B37",
"g  c #1B2F30",
"h  c #2B2528",
"j  c #3C222D",
"k  c #362628",
"l  c #3A2533",
"z  c #373536",
"x  c #283A33",
"c  c #421C2D",
"v  c #461929",
"b  c #421F30",
"n  c #4C1E31",
"m  c #511A2D",
"M  c #42212E",
"N  c #462A2B",
"B  c #442232",
"V  c #4B2234",
"C  c #472C35",
"Z  c #512634",
"A  c #573839",
"S  c #4A3533",
"D  c #683936",
"F  c #014226",
"G  c #03442B",
"H  c #0A432D",
"J  c #024B2C",
"K  c #054B28",
"L  c #01522D",
"P  c #03572C",
"I  c #034C32",
"U  c #0A4B33",
"Y  c #0A4736",
"T  c #124134",
"R  c #15443A",
"E  c #144A3C",
"W  c #1A463B",
"Q  c #025334",
"!  c #0A5435",
"~  c #035B34",
"^  c #0B533A",
"/  c #035C3B",
"(  c #09593A",
")  c #13593C",
"_  c #15462F",
"`  c #2D4438",
"'  c #02633C",
"]  c #036637",
"[  c #02743A",
"{  c #01672E",
"}  c #57423A",
"|  c #65443D",
" . c #213F41",
".. c #533C44",
"X. c #693D42",
"o. c #194D44",
"O. c #0A5B43",
"+. c #145343",
"@. c #195848",
"#. c #1E5B56",
"$. c #244746",
"%. c #275A55",
"&. c #30554F",
"*. c #036B45",
"=. c #076846",
"-. c #15624A",
";. c #04764A",
":. c #1A6855",
">. c #077A55",
",. c #16775B",
"<. c #11714E",
"1. c #24665A",
"2. c #356258",
"3. c #345D61",
"4. c #2B6864",
"5. c #356666",
"6. c #267865",
"7. c #377B77",
"8. c #2E746F",
"9. c #1A7E62",
"0. c #5A4747",
"q. c #4F4C49",
"w. c #6A4A4A",
"e. c #7A5756",
"r. c #715050",
"t. c #795A60",
"y. c #477778",
"u. c #596E5F",
"i. c #84443E",
"p. c #9D3642",
"a. c #86585A",
"s. c #8D5553",
"d. c #94645C",
"f. c #8E5D64",
"g. c #866566",
"h. c #976866",
"j. c #997675",
"k. c #917172",
"l. c #A56B68",
"z. c #A66C73",
"x. c #A87778",
"c. c #B67A79",
"v. c #B16F70",
"b. c #A56160",
"n. c #C36E7B",
"m. c #038549",
"M. c #068759",
"N. c #049659",
"B. c #108C58",
"V. c #02A45D",
"C. c #078D64",
"Z. c #188767",
"A. c #059865",
"S. c #16966B",
"D. c #1A9A74",
"F. c #129671",
"G. c #26977A",
"H. c #2B8975",
"J. c #06A46A",
"K. c #06B56C",
"L. c #08A974",
"P. c #16A979",
"I. c #09B777",
"U. c #14B77B",
"Y. c #14A26A",
"T. c #23A57E",
"R. c #5A8975",
"E. c #13C67D",
"W. c #09C57B",
"Q. c #B8837D",
"!. c #A9837A",
"~. c #AC7D83",
"^. c #B97C83",
"/. c #9C7B85",
"(. c #CB7988",
"). c #359587",
"_. c #0BBB84",
"`. c #18BB87",
"'. c #17AC84",
"]. c #23B988",
"[. c #37A693",
"{. c #27B997",
"}. c #2FAC90",
"|. c #37BBA2",
" X c #1F9B83",
".X c #478D8C",
"XX c #49A999",
"oX c #43BEA4",
"OX c #08C788",
"+X c #17C889",
"@X c #19CC95",
"#X c #17D896",
"$X c #11D38D",
"%X c #27CA98",
"&X c #27D898",
"*X c #30CD97",
"=X c #18E195",
"-X c #26E39B",
";X c #35E59F",
":X c #37C6A7",
">X c #28D9A2",
",X c #35D8A8",
"<X c #35D0AB",
"1X c #29E6A7",
"2X c #37E8A9",
"3X c #3AE9B3",
"4X c #3BF8B5",
"5X c #2EF3AB",
"6X c #1BD7A1",
"7X c #42C4A9",
"8X c #44D3B4",
"9X c #44E8AE",
"0X c #48EAB4",
"qX c #49F4B8",
"wX c #56F5BB",
"eX c #50EEB3",
"rX c #62EFBE",
"tX c #5AF5C3",
"yX c #51F0C2",
"uX c #64F3C2",
"iX c #3EF9C2",
"pX c #AB8486",
"aX c #BA8385",
"sX c #B58A8B",
"dX c #BB8B8C",
"fX c #B78687",
"gX c #BA8C93",
"hX c #BC9294",
"jX c #B68E90",
"kX c #A49092",
"lX c #C38B8D",
"zX c #C48789",
"xX c #C48C92",
"cX c #CB8B94",
"vX c #C39393",
"bX c #CA9494",
"nX c #CC9B9B",
"mX c #C79899",
"MX c #D39B9B",
"NX c #D6999A",
"BX c #D0928F",
"VX c #D7A29C",
"CX c #CBA39B",
"ZX c #CD9AA2",
"AX c #D69CA3",
"SX c #CCA4A7",
"DX c #DCA4A5",
"FX c #DCA4AB",
"GX c #D7A6A6",
"HX c #D9B0B5",
"JX c #E5A8AA",
"KX c #E9B4B7",
"LX c #EAAFB2",
"PX c #E28D94",
"IX c #EBBAC3",
"UX c #E6C4C8",
/* pixels */
"a t e e e e e o.A.>XtX0XP.^ R f s o.:.>.O.d E <.,.<.E W Z.`.P.-.I O.L._.,.Y i I u E L.@XL.I F y F F U M.$X3X4X>XI.m.K y F F F F ",
"H s d e e r e #.'.>X4XyX].O.T d d +.,.,.:.o.W :.Z.>.O.R ,.OX_.<.f +.L._.C.Y Y Y u +.A.#XOX>.=.I F F ( C.W.$X$XI.M.' F F F F J J ",
"s E o.d e e a -.9.F.#XqX&X<.R W f +.,.9.:.W o.#.9.,.O.o.,.'.`.Z.^ ( F.`.Z.^ Y s U ;.L.6X6X'.>.O.J K L ' *.N.K.V.;.F K F y G L L ",
"p s O.^ s r e Y E @.`.eX2XZ.o.E o.@.:.Z.:.@.$.:.9.Z.-.o.#.D.+X'.1.<.J._.>.E Y ! ^ C.L.P.'.C.*.Q J H F L ;.K.-X-XN.P K K F G ~ ! ",
"r s O./ Y r g d W W '.0X0XD.@.o.o.$.:.Z.Z.1.+.-.9.6.%.R i +.+.Y r a @.,.:.) ! I ^ =.*.>.M.>.~ H J _ J *.I.1XwXqXU.] K F H J / ! ",
"e r +.O.o.a a W W W Z.9XwX].:.$.%.o.4.Z.Z.,.@.1.Z.@.r $ . . o o o X X # r a E +.! U =.L.@XU.*.K J K Q N.$X5XwXqX$X[ K F K J ' / ",
"e a Y -.o.s s f o.o.9.,XtX&X6.#.#.@.1.6.H.H.1.2.f # . X # & $ % $ # # $ + % a ! ^ =.F.1XqX5XN.K Q I H ;.I.OX1XqX-Xm.L K J J / ' ",
"a r s O.+.s a f $.$.1.*XtX2XH.1.4.1.%.1.6.H.@.e . O $ % $ . $ # % $ % 6 % r > % R C.@X2XuXqXL.! ! G K / ' m.+XwX5XN.P J K J ( ~ ",
"g e s -.@.s  . .o.$.1.:XuXtX8X X7.4.4.5.%.g & + % & $ % $ . $ & % @ % > > & $ $ & ) K.$X0X4X+X' I J J P K ] U.qXqXK.{ P K J ~ ( ",
"R s s +.#.R g o.o.3. X,XtXuX9X{.H.5.%.%.# . $ & . % N } A S S } S 0.w.w.} S 2 2 > & ^ N.,XtX%X[ I ^ ! L K ~ K.5XeXW.{ K K K P ! ",
"o.s o.#.@.R  . .&.4. X%X:X7X[.H.8.4.5.f O + # > 2 | s.d.e.a.d.h.d.l.h.d.l.l.i.D % * # ;.@XyX2XN.! Q U I L ~ N.-XwX=Xm.K U J K K ",
"O.+.+.@.o.f  .$.#.4.8.H.G.).).).7.7.%.. . $ k s.d.d.d.s.s.d.l.l.l.v.Q.v.l.l.l.b.S & X t OXyX2XN.! Q ^ ! H L m.&XwX-XV.[ L J K L ",
"@.o.o.o.f f $.o.%.&.3.).XX[.:X:X[.H.h . & X | d.s.b.l.c.zXdXaXQ.BXQ.Q.c.Q.zXQ.l.b.2 X X B.4XyXI.P L ! U H / J.1XuXqX-XK.;.K J T ",
"g o.-.:.%.f  .%.3.3.7.|.|.[.XX7X8X).# o & , s.d.l.Q.zXzXvXvXvXCXVXGXVXMXVXVXBXzXv.| X . G 2XyX@X;.{ Q J E M.W.5XqX0X-XW.m.L J u ",
"f :.'.{.Z.o. .&.3.4.).7X[.7..X7X8XH.  o X 2 h.x.dXQ.Q.bXnXmXmXnXCXVXnXnXVXVXVXNXBXb.2 . a 2XuX0XU.M./ L ~ m.I.#X-X#XW.V.[ K Q L ",
",. X1X1X X@. .#.3.4.[.8X|..X7.XXyX)   & # A l.!.dXdXvXvXxXmXmXnXnXnXbXmXMXMXVXJXBXQ.} > e +XuX3X#XA.=.! P ] N.E.$X=X=XU.m.{ P J ",
"Z.`.1X0X{.#.o.%.3.4.[.8X|..Xy..X).O O # 3 e.^.zXZXxXcXmXmXZXSXZXAXZXZXSXFXZXJXGXGXbXe.3 + ,.-X+XY.>./ ~ J ] J.&X2X5XqXqXE.m.{ P ",
"6.F.].3X%X6. .%.3.8.[.8X|..Xy..X).O O @ 5 k.pXsXk.g.k././.kXZXAXmXSXSXkXkXhXhXkXMXGXz.k + p M.;.*./ ^ ! ! ;.OX5X2X$X-XqX5XK.[ ] ",
"o.O.Z.3X<XG.o.%.3.4.).8X8X.Xy..X.X# O O S c.~.w.x z 6 h h q.~.SXSXHXZXr...z h ..w.!.zX5 @ % ! ] =.( ^ ! ( m.-XwX-XN.K.2XwX=Xm.P ",
"a f 6.2X3X'.$.%.3.3.).|.8X|.7..X[.g @ . S ^.h.0.t./.~.h.g.k.pXZXAXHXmX/.t././.k.r.r.jXh @ r -.' =.*.O.~ ( N.5XwX=Xm.N.-XrX5XV.{ ",
"f f 1.>X3X{.%.%.4.3.7.[.8X|.).7.|.H   . 2 x.x.sXZXZX^.gX~.x.dXGXFXIXLXAXdXAXLXLXUXx.x.h % H -.] ( =.=.( ~ N.5XwX-Xm.m.E.wX4XK.{ ",
"f f +.`.0X%X:.%.4.3.8.).7X8X|.[.oXr.= . N l.dXZXz.t.z 6 r.a.h.CXLXLXBXa.X.M w.~.HXFXx.5 r ) ) ) ( ' =.' / m.-XtX;XV.[ W.wXwXE.[ ",
"d f E '.0X,XF.:.4.3.3.8.[.|.|.{.XXs.k.$ 2 ^.xX^.a.r...4 k.a.z.dXBXNXzXf.w.O q.r.l.KXdX: q.2.Q O.( ' *.' ~ ;.#XwXqXK.[ K.qXwXE.[ ",
"d W o.D.0X3X{.G.Z.8.4.4.8.).).[.R.p.pXk S ^.jXxXhXZX~.h.k.f.z.(.cXAXNXx.f.k.gXVXbXDXxXl z.!.] =.! ] *.] ! ] I.qXwXE.m.J.5XwXE.[ ",
"d f >.`.0X3X@X`.G.6.1.3.4.8.7.[.t.p.zX| 0.aXzXgXxXxX^.~.z.z.x.lXBXDXNXlXdXAXFXHXLXFXBXD n.!.*.( ! ' *.] ' ] N.;XwX;XW.W.2XqXK.{ ",
"d o.9.P.].`.P.G.Z.1.1.1.3.8.).{.R.n.v.D w.fXcXZXxX^.~.z.x.xXcXxXcXPXAXDXcXcXAXAXJXJXbXk.lX!./ ! ! ( / / Q K ;.+X4XqX$X$X5X#XN.K ",
"a d o.,.F.Y.S.D.D.:.%.:.#.7.}.{.u.n.i.i.r.^.xXAXZXcX^.xXcXbXxX^.n.NXJXLXFXAXFXFXKXLXmXfXJXt.~ E U H ! L J i Q ;.W.-X=X$X+XA.] F ",
"f s o.D.%X#X%X*X*XG.8.%.#.).|.}.2.b.i.| X.v.ZXHXHXZXcXcXzX^.^.xXAXJXAXVXJXLXHXIXUXKXdXz.LXu.~ Y J ! E I G H H G m.J.I.J.B.' I G ",
"T Y ,.%X4X>X&XeXyX,XG.5.5.[.:X[.6.d.z.a.S h.cXSXFXSXZXzXc.(.cXAXKXKXFXDXAXFXLXIXUXIXdXh.PXu.O.O.( ( I U I I H H J =.<.>.m.' ~ I ",
"f +.P.9XeX].G.*XuXeX].6.4.[.<X|.5.u.(.z.N a.^.ZXHXFXZXcX^.^.x.^.xXNXlXAXJXJXLXIXIXJXh.zX(.W I ^ ^ ( / U Y H I J F U *.C.A.;.I s ",
"T O.U.eX9XY.;.U.eXyX:XH.1.).,X{.7.3.k.e.5 A aXlXAXZXgXxXZXgX^.gXzXAXAXJXKXAXNXLXHXVXe.hX!.J E Q =.,.C.M.=.G H J J ~ >.A.L.C.Y u ",
"s O.].eXqXK.) Z.2XuX9XG.1.G.,X%X).@.1.H.r S !.aXZXhXgXgXgXx.h.~.xXgXvXgXAXFXdXJXGXhX} r.&.J ^ <.L.L.I.OXL.*.H u I ' ;.N.L.C./ u ",
"f ^ U.eXeXU.) B.%XrXeX].:.9.{.<XG.1.1.H._ N l.!.cX~.g.~.gXpX^.^.cXNXAXAXZXsX!.mXJXx.% G Y H @._._.F.A.$X#XF./ G G Q ^ *.A.A.O.u ",
"i ! Y.0XwX+X<.) E.wX9XT.:.4.}.>X{.:.1. X:.z s.!.mXZXh.e.z.^.^.^.^.^.(.cXz.h.Q.GXVX| s W ! J >.OX@X>.O.L.6X@X;.u G y y / C.J.*.G ",
"i T B.2XeX;XM.) T.eX3X`.:.#.8.%X{. XH.}.+.= a.x.pXSX(.z.z.pXSXUXUXHXSXjXa.vXAXJXfX` a U J H C.@X@X;.u M.@X6XN.K H u u Y M.J.>.u ",
"a a [ %XwX9XJ.;.P.9X3X'.:.$.:.D.{.'.'.1.o * r.j.sXmXZXZX^.^.(.(.(.(.(.(.JXJXnXVXa.a T T G U M.@X6XM.y *.`.1XL.J u F u H >.J.M.G ",
"H i / Y.0XqX+XY.&X2X;XS.@.o.o.#.Z.D.#.+   2 a.d.c.bXbXSXZX(.^.(.cXbXMXJXLXDXJXsX} i U I I I >.#X>XC.G ~ P.1X_.Q u G u u =.J.N.I ",
"H i H <.%X5X-X#X-X;X+X,.E o.+.o.@.@.= o   , d.r.x.vXvXbXZXmXx.g.c.dXVXKXJXVXGXr.W Z.) L G F *.+X6XL.~ J J.6X_.O.u H u u O.A.A.*.",
"O.T p J B.U.+X#X@X+XB.) R E Y E W : = .   > h.w.h.c.nXSXmXmX^.l.x.ZXGXJXKXJX!.S C `.M.U H I O.P.1XOX*.G A.#X_.O.y p t I *.C.L.>.",
"Z.U y H _ =.<.B.E.U.M.( E W R ^ x 6 *     2 l.D w.j.xXMXZXcXxXnXFXAXGXKXGXQ.h.D = &.A.Q G Y I A.6X#XM.U A.@X'.I y u G / =.>.C.;.",
"<.I p p s d ~ J.&X-XI.) ! _ T O.x 7 X .   > v.e.r.| l.hXnXhX~.mXvXAXKXHXlXl.Q.2 < v ` _ s J G ) _.&X_.A.L.OXB.H i y u I ^ ^ I G ",
"I t p u s ^ B.&XqXeX*X[ _ W f r h 7 .     2 v.x.a.e.D w.g.t.g.g.g.~.pXf.l.zX!.o $ 2 v , 2 x J J >.I.OXI.K.B.! F y y y y F G G G ",
">.E u u H =.L.=XeXwX-XM._ k * - 6 q X . . 2 Q.x.l.z.a., : > > h > v k w.Q.VXh.  o > m c : k H i I *.>.B.N.m.! K u u y y u G I Q ",
"I.M.Y e H ;.F.L.&X9X;XN.x , + k 9 w + X   N Q.v.x.x.k.A S S k 2 N A g.vXVXVXw.  + * 0 B , - z J F H ~ N.W.I.[ K y y t t u Y Q O.",
"_.L.O.s u I ^ ( U.;X9XU.v M , > 0 9 X X . A Q.Q.c.!.fXx.j.x.x.sXCXvXMXVXBXVXe.  & * 8 k = - N H F ! m.OX;X;XV.K y y t t u G I I ",
"'.OXC.s p t t u N.5XqXY.- Z v * - k > X o w.Q.zXQ.dXc.fXdXbXFXAXDXVXBXMXVXBXw.  < * 8 8 + k Z M s M.$X2XeX5XI.] u u u u t u G I ",
"C.OXL.I p p p i ;.].H.z - M m l = 8 X X * e.CXBXlXfXlX~.aXmXMXJXJXCXNXmXBXVX} o * X : 7 , V V v C m.W.=X;X2XE.] y y t t t u u Y ",
">.OXU./ t i e r k , , * M - v V c , * + = e.VXvXcXdXvXfXsX~.jXGXGXvXBXVXVXVX| o X X 7 c c V M M k ` 2.N.=X4X&X;.K y t t u u u u ",
"=._.OX*.r h j 7 4 4 5 6 4 9 0 v n n 8 o ; Z jXmXhXdXaXdXsXfX!.vXhXMXMXBXCXGXX.o O @ w c n b 0 0 7 8 - c &.}.;XV.K F y y y p p F ",
"I '._.$.0 7 w 5 4 9 4 ; ; 7 B q j n n 6 X = f.SXdXhXdXsXsXsXx.l.hXvXBXVXGXmXq ; . 4 0 n n n b 9 6 4 7 9 - v } Y.P F t y t y y u ",
"^ B.z q 0 q 7 9 4 4 6 9 4 * 8 0 0 q n B 2 < N x.vXhXdXdXsXdXc.Q.lXCXvXMXGXg.% 6 < 9 n n b B 9 4 4 q 9 k j q v v ` K F y u t y u ",
"T M = v c 7 0 5 4 = 7 9 7 ; + 8 b 0 9 b Z q , w.!.sXhXdXpXjXhXvXbXbXmXnXk.q 5 o M M c ..b 0 4 4 v c l 0 B V 0 c v 2 F y t u u u ",
"v = v M q v 9 6 9 4 4 7 7 9 ; + 4 j 0 7 l n b B w.g.~.gXpX~.pXdXQ.vXdX!.S ; = V V V V n 0 w 7 0 B 0 n b b b 0 q v Z N g t t u u ",
"k v c v 8 0 9 q 9 7 4 7 9 9 7 * @ 6 9 7 9 4 7 0 ..w.e.~.jXfX~.pXjXjXk.z + b V B V V V 0 7 4 l b B 0 l 0 c 0 9 0 M c m m l u e p ",
"q j c c k q v 9 9 4 4 4 9 4 5 9 4 @ ; w 4 O @ 9 C A r.j.pXpXpXpXpXe.k % C 0 4 9 b b j 7 7 l b n B 7 7 0 l 0 7 8 q M B Z m j u I ",
"c m q 9 n 0 0 7 0 4 9 4 5 0 9 7 7 7 6 + ; 6 @ @ 7 q D z.pXj.t.r.S > : M 9 @ % j l l q 7 9 l V n 0 0 0 0 c w w 9 v N B M m Z ` ;.",
"0 b c c b b 0 0 7 9 4 4 7 9 9 9 9 7 7 4 = @ 3 9 @ @ 9 b 6 3 O O ; j 4 ; 4 @ 3 9 9 9 9 9 0 b V b 0 0 q l 0 w q 0 0 V n c B V C q.",
"0 b 0 c 0 b 0 0 9 9 4 4 7 9 9 9 9 9 b 9 4 @ @ 7 ; @ 9 9 @ O O 6 9 l ; @ 4 @ 6 0 0 0 9 0 b B V b 0 q 7 0 0 9 9 9 B V n c B v B C ",
"0 c b 0 b 0 0 0 9 9 4 4 7 q 9 9 9 9 0 0 9 ; 3 0 4 @ ; 4 l l l 7 0 0 = 4 l @ 6 0 b b 0 l b l b 0 l q w 0 0 0 9 q B B c c V n c Z ",
"0 q 0 0 b 0 0 0 0 9 4 4 9 9 9 7 7 0 9 9 0 4 @ l l ; ; = 9  .6 = 7 q 4 5 0 @ 6 b B 0 b b b b b 0 b q 7 0 l 9 9 0 n B 0 c V n V Z ",
"0 0 0 0 0 0 0 7 0 9 4 7 9 q 9 7 9 9 w 9 0 ; @ 9 9 = 4 4 4 l 6 n b 0 4 4 0 ; ; l b B b b b 0 0 0 B 0 9 9 0 9 q 0 V c 9 0 V B b V ",
"0 q 0 0 0 0 9 9 0 l 4 7 9 9 9 7 7 9 9 9 0 6 3 4 q 4 9 9 6 l ; 0 ..b 7 4 l ; 6 0 B n b 0 0 0 b 0 B 0 9 4 7 7 7 j Z 0 9 B V B 0 c "
};
