/* XPM */
static char *_5e1859b7c05402df59d5f704c326a7aA2Y1nWU3g1qWHCMy[] = {
/* columns rows colors chars-per-pixel */
"64 64 256 2 ",
"   c #060805",
".  c #150101",
"X  c #1A0708",
"o  c #05140B",
"O  c #14140D",
"+  c #051915",
"@  c #181815",
"#  c #1A0914",
"$  c #25060A",
"%  c #240D1A",
"&  c #2B0D1C",
"*  c #270A14",
"=  c #2C121D",
"-  c #26151A",
";  c #34171B",
":  c #330C10",
">  c #07271A",
",  c #17231B",
"<  c #03341D",
"1  c #34241B",
"2  c #1C1E24",
"3  c #2C1422",
"4  c #2C1B24",
"5  c #281A27",
"6  c #331424",
"7  c #331B24",
"8  c #351629",
"9  c #3A162B",
"0  c #351B2B",
"q  c #3B1C2C",
"w  c #3B1824",
"e  c #3B1E31",
"r  c #310E21",
"t  c #062B24",
"y  c #192826",
"u  c #013B24",
"i  c #033D2A",
"p  c #093726",
"a  c #16372A",
"s  c #1A3B35",
"d  c #113732",
"f  c #292628",
"g  c #3D222D",
"h  c #37252A",
"j  c #27352C",
"k  c #3B2533",
"l  c #243A35",
"z  c #383834",
"x  c #43152B",
"c  c #431C2D",
"v  c #461728",
"b  c #431D32",
"n  c #491B32",
"m  c #541B2F",
"M  c #43232C",
"N  c #4A2729",
"B  c #432333",
"V  c #482834",
"C  c #483635",
"Z  c #583839",
"A  c #502C2D",
"S  c #663A3A",
"D  c #703E3D",
"F  c #431E1E",
"G  c #014325",
"H  c #01442A",
"J  c #014B2C",
"K  c #08462A",
"L  c #00532C",
"P  c #01572C",
"I  c #0B4333",
"U  c #024D31",
"Y  c #084936",
"T  c #164739",
"R  c #015433",
"E  c #005B34",
"W  c #025C3A",
"Q  c #0A5C3B",
"!  c #085439",
"~  c #154E39",
"^  c #24473B",
"/  c #374439",
"(  c #01633C",
")  c #006B3D",
"_  c #056438",
"`  c #00743C",
"'  c #00622F",
"]  c #43453A",
"[  c #503B41",
"{  c #663C42",
"}  c #184A44",
"|  c #075843",
" . c #175548",
".. c #18594F",
"X. c #284C48",
"o. c #265748",
"O. c #285957",
"+. c #37544E",
"@. c #016B44",
"#. c #086746",
"$. c #156649",
"%. c #037549",
"&. c #186857",
"*. c #097855",
"=. c #187658",
"-. c #0C6F53",
";. c #2A675C",
":. c #36655A",
">. c #2A6F55",
",. c #1B7665",
"<. c #296B63",
"1. c #257666",
"2. c #387568",
"3. c #34726C",
"4. c #5C4447",
"5. c #4D4F4C",
"6. c #69474A",
"7. c #764748",
"8. c #7A5759",
"9. c #714E53",
"0. c #4B6359",
"q. c #7A5961",
"w. c #4B726A",
"e. c #776766",
"r. c #6E726D",
"t. c #875759",
"y. c #915B5B",
"u. c #8C5E62",
"i. c #8B6566",
"p. c #9B6B6C",
"a. c #976567",
"s. c #986D73",
"d. c #877777",
"f. c #9A7776",
"g. c #8D726E",
"h. c #A46C73",
"j. c #A87779",
"k. c #B47A7C",
"l. c #A66C6C",
"z. c #92605F",
"x. c #00853E",
"c. c #068758",
"v. c #16835B",
"b. c #03945A",
"n. c #048F50",
"m. c #178966",
"M. c #089A67",
"N. c #16986A",
"B. c #1A9B72",
"V. c #108970",
"C. c #298668",
"Z. c #2A8977",
"A. c #358779",
"S. c #289977",
"D. c #359378",
"F. c #2C906D",
"G. c #04A569",
"H. c #0BA872",
"J. c #18A776",
"K. c #0AB878",
"L. c #15AC71",
"P. c #27A87A",
"I. c #2DAF7A",
"U. c #00A05A",
"Y. c #498C77",
"T. c #768579",
"R. c #0FC47C",
"E. c #B0837E",
"W. c #86857A",
"Q. c #C1807E",
"!. c #A97A82",
"~. c #B77B84",
"^. c #9C7D82",
"/. c #C27E89",
"(. c #389A86",
"). c #319387",
"_. c #19B682",
"`. c #2BA986",
"'. c #38A787",
"]. c #27B886",
"[. c #36B98D",
"{. c #3AB898",
"}. c #38A994",
"|. c #3FB5A5",
" X c #469486",
".X c #52948C",
"XX c #728C83",
"oX c #46A898",
"OX c #4AAD91",
"+X c #66AD9A",
"@X c #48B7A5",
"#X c #56B5AA",
"$X c #67B3AA",
"%X c #16CD8B",
"&X c #25C58C",
"*X c #2AC894",
"=X c #37C897",
"-X c #29D898",
";X c #38D59A",
":X c #32C78D",
">X c #2BE49C",
",X c #38DAA2",
"<X c #38D1A4",
"1X c #38E7A6",
"2X c #31F2AB",
"3X c #47CC9B",
"4X c #47C6A6",
"5X c #47D6A9",
"6X c #54CEB2",
"7X c #67C7AC",
"8X c #47E6AA",
"9X c #4AEAB5",
"0X c #56E8B9",
"qX c #49F9B6",
"wX c #56F7BB",
"eX c #49F2AE",
"rX c #66E5B8",
"tX c #5BF5C4",
"yX c #6BF1C9",
"uX c #7BD8C6",
"iX c #9A8785",
"pX c #918F87",
"aX c #A98587",
"sX c #BC8C8B",
"dX c #B78688",
"fX c #BC928D",
"gX c #BD8C93",
"hX c #B58D92",
"jX c #BA9596",
"kX c #AD9194",
"lX c #B5A29C",
"zX c #B0A4A5",
"xX c #C5878B",
"cX c #C78A93",
"vX c #C49394",
"bX c #C89999",
"nX c #D4999B",
"mX c #CF8D91",
"MX c #E3999C",
"NX c #CAA39C",
"BX c #D5A49D",
"VX c #C899A1",
"CX c #D69AA5",
"ZX c #D28EA3",
"AX c #CBA5A5",
"SX c #D3A4A4",
"DX c #D9A7AA",
"FX c #DAB5B6",
"GX c #D1B0AF",
"HX c #E5A8AA",
"JX c #E5B4B6",
"KX c #EBB1B7",
"LX c #E699A7",
"PX c #F3BDC3",
"IX c #F3C1C5",
"UX c #B7D2C1",
/* pixels */
"a K I Q R G i Y | *.`.5X6X}.,.&.&.| o.0.5./ z X.5./ a a j ] ] ] 1 j / +.] C N A B X.w.Y.[.[.m.E E J J @.v.J.*X>X%Xn._ _ P L P J ",
"o.o.F..XD.$.|  .,.,.V.}.<X}.(. X XX.t + , 5.e.e.e.r.T.W.W.iXaXjXlXlXlXpXW.aX^.aXd.r.^ u ( S.'.(.=.$.W W ' n.I.8X8X*X].I.F.v.$.! ",
"J R =.D.7XOXD.(.D.D.Z.Z.Z.).(..X.Xr.0.[ 4.s.VXVXVXkXE.g.s.h.~.cXbXCXnXgXhXkXVXAXzXUXpXw.Y.C.W W ! ( @.@.' _ c.B.S.S.B.I.I.I.=.P ",
"L E =.Y.OXOXD.1.+X7X+X3. ...3.w.0.5.5.e * c q.s.aX!.aXdXgX/./.~.xXmXCXnXVXjXkX^.q.9.+.l ^ ^ o.Y.+XC.#.*.D.OXC.P J K G P >.C.>.Q ",
"2.>.o.T d s ^ X.0.w.w.X.y y f 2 2 2 2 % # [ d.kX!.aX!.aX!.!.!.!.!.~.cXVXVXaX{ * $ * 7 ; - 5 k j a T o.C.Y.Y.2./ < j I p u < < < ",
"p I T d y y y y d t t < t y 2 2 d y d y + @ 5 5 k V C 6.6.{ [ { 9.6.V 1 3 0 h 5 z , j a j j h f a a i u G u G < K p a a K K K ~ ",
"p t i ~  .T s ^ T T 2.$XuX$X3.O.X...<.w.3.w.w.+.^ 2     # O O O . X O @ O O j ^ K Q N.3XrX@X1.! J H ! =.D.3X7XrX3X>.J K K L _ _ ",
"y d Y &.| H d T } } =.3XyX4Xm.-.&.O.&.1.3.w.:.t +   O @ + o o + @ @ O , , , , > ! F.].1XtX9XN.W R U U Q ` b.:XqX8Xb.P J K K Q ' ",
"y t d O...d d }  .! *.[.tXtX{.).3.3.} w.<.d t + +   X * O O   O o O O @ O @ 1 @ > _ I.3X9X0X[.| ! K ~ ! L ` %XqX8XP.' J I K ~ _ ",
"s d } } ..} d } | ..Z.5XyXtX5X{.A.3.O.O.d + o o X * h M h - 0 z h C C C A 1 : X O < ` L.,X0X=X@.! K K ! L ) H.1XqXI.) J K K P ~ ",
"} I s O.O.s 5 }  .=.(.4X6X4X{.}.A.O.w.s +   # % : N 9.u.t.9.8.u.t.i.g.i.z.8.D A O o < $.=XtX>Xc.W Y K R L ' G.8XwX:X` P L G K K ",
"| } } X.X.d d O...<.Z.).`.`.).Z.3.O.:.>   # 4 { 8.t.u.y.y.a.a.s.h.j.j.h.l.E.l.y.N X o K }.tX2XG._ R R L E ' b.;XwX;Xb.) P P P K ",
"..} ..} } d d } O.O.<.3.(.oX}.oXA.Y.T   O O S a.a.a.p.a.p.j.k.k.~.dXE.l.j.E.E.z.7.1 o < F.eX2X_.( E R R P ' b.;XwXeXI.N._ P P L ",
"| I | ..} } } O.O.O.3..XoX@X@X#X#X Xt   O : 6.a.y.l.E.xXbXbXbXmXnXnXNXvXvXNXmXQ.l.Z   o #.5XqX_.@.' L R Q %.J.1XqXqX8XI.%.P P K ",
"U | ,.).O.} } O.3.O.).@X|.`.).#X7XA.> o O v y.p.E.E.vXfXfXvXbXnXnXnXBXNXBXBXMXmXQ.y.O o J 6XyX=XN.%.E Y Q =.R.>X>X2X:XL.` P P G ",
"| F.@X@X).} } O.O.<.}.6X|.,.).#XuX=.  o X N l.E.vXsXE.fXvXbXbXnXMXnXvXvXNXBXMXMXMXl.A o < 7XyXrX:XN.Q Y P ` K.R.%X%XK.N.x.P P P ",
"V.`.<XtX)...} O.,.,.}.#X#X).).oX#X2 +   % { !.~.sXhXNXkXjXjXCXvXnXCXfXAXbXCXCXHXNXjX9., o C.yX5X].B._ ~ ~ P b.%X%X2X8X3XL.x.' ' ",
"m.J.<XtX}.,.} O.,.,.}.#X$X).3..XA.+ + 2 r s.!.ZXAXaXkXjXzXAXAXVXbXAXbXAXDXDXCXSXFXAXq., ,  .S.B.c.@.R R ! #.J.1X1X1X8XwXI.U.' ' ",
"-.*._.5X4X,.} O...,.}.#X$X.XZ..X.X2 + # V !.!.s.6.Z 4.9.8.s.gXSXDXGXNXf.i.i.u.a.f.jXaX; O < W %.@.W R R R *.:XqX1XR.R.wXwXI.x.' ",
"Y | V.5X6XZ.} O.;.,.).#X6XoX).A..Xd +   C f.j.S A A C V ; { ~.DXVXAXkX8.A A N Z S i.hXM O > Q @.@.( #.Q E c.1XqX-Xn.G.8XwX3Xn.` ",
"d Y *.5XtX).....:.<.).@X6X@X).3..X> o O C aXi.8.aXlXGXzXaX!.gXCXDXPXGXzXaXNXvXbXaX8.j.C - , $.#.( Q Q W E c.1XqX>Xn.U.I.eXeXL.` ",
"d I -.{.0X}.&.O.:.O.1.}.6X#X).).+XT   O 1 E.f.lXlXaXi.9.s.p.~.LXDXPXAXhXj.E.NXFXFXkX!.; O j >.L Q Q Q W ' b.1XqX>XU.U.R.eXeXI.` ",
"s T #.`.0X=X,.&.O.<.<.).#X#XoX.XpXr.1 O 1 g.fXvXi.6.v $ 9.t.h.ZXLXKXgXt.A $ S 8.AXFXkX* f / $.R Q $._ Q _ c.:XwX>XU.x.R.eXeXI.x.",
"s T | S.6X<XB.,.<.3.<.<.).|.@X#XXXr.W.$ A E.fXE.i.i.8.V s.u.h./.ZXLXcXa.y.: t.u.g.FXaX; r.r.~ _ L $.Q _ W %.R.wXeXR.x.G.2XeXI.x.",
"d i | ).0XtX{.`.A.>.;.<.1.Z.).).r.4.kXN A Q.xXsXbXjXkXj.s.a.!./.mXLXZXk.l.k.nXFXAXGXjXM d.XX$.Q _ Q Q Q _ ) L.eXwXR.n.U.2XeXI.` ",
"d  .,.}.5X<X].`.Z.<.:.:.<.,.).).T.8.dXS S ~.xXfXfXdX!.f.s.j.!.~.mXLXDXcXdXbXSXFXSXAXbX9.iXW.~ E _ _ Q Q ! ' m.3XwX1XR.R.2XeXP.' ",
"i | *.S.]._.G.B.m.&.O.<.O.,.`..Xr.g.p.D 7.Q.mXnXgX!.!.!.hXcXbXbX/.CXHXAXbXbXbXbXGXDXVXj.AXpXT ! ! _ Q ! K P %.P.8X8X-X>X2X:Xx.K ",
"d H #.c.H.H.M.H.N.*.&.O.<.3.}.oXr.f.9.D 7.k.CXCXCXZXgXhXgXcX~.dX/.ZXAXSXDXDXDXDXJXJXCX~.FXr.T ~ J L R L K G L %.I.3X;XR.R.b.' K ",
"} i @.N.*X<X*X,X<XP.1.&.<.(.|.'.w.g.6.7.6.p.nXCXCXCXVXgX~.gXdXxXDXDXDXGXFXJXJXKXKXIXmXh.FX9.T ! L E R R U J G L @.m.J.G.n.` J G ",
"s Y m.=X9X,X*XwXtX4XS.=.<.oX@X}.0.d.d.e.S t.vXDXLXCXZXZXcX~.cXnXHXJXDXSXDXDXHXPXIXIX~.p.GX] T Q R R R J U U L R L @.@.%.n.%.J H ",
"s Y `.9X9X&XM.;XwX9X{.m.,.oX4X}.:.r.pXi.N 9.sXnXPXCXZXZX~.!.!.~.mXmXnXnXHXHXKXPXKXJXp.E.kX^ Y W J E W L J J J J J R #.v.N.%.R H ",
"} } `.0X9XH.%.P.0X0X5XV.-.(.4X|.<.+.XXr.- 6.aXdXCXZXZXZXZXcX~./.nXCXBXHXHXMXMXHXJXAX8.lXW.~ R P -.1.m.*.@.R J H J #.=.S.J.c.U J ",
"^ ! ].9X9XL.@.v.<XtX1XJ.-.Z.4X|.V.&.>.w.j z f.aXSXjXdXhXgXh.p.~.dXgXjXvXDXMXxXHXDXkX] 0./ ^ H *.B.B._.].H.%.U U U @.#.v.J.c.R H ",
"I E `.9XqXP.) *.<X1XtX_.*.Z.{.@X`.-.&.w.l h f.aXbXE.i.f.jXvX~.cXCXgXbXSXmXQ.k.nXFXW.f ^ p R #.`.].M.H.%X&XM.| i J W W #.M.M.E G ",
"H R J.eXwX[.#.-.{.9XtX`.*.,.`.<X}.-.;..X+.h g.f.jXsXa.y.f.k.h.h.!.!.ZXcXl.l.xXnXlX5., ^ I | -.`.{.c.-._.,X].-.H H H u R b.N.#.u ",
"H R m.,XwX<Xc.@.J.0XtX`.&.#.N.{.{.Z.2.Y.+.h 8.f.jXSXsXa.a.dXKXPXPXPXDXdXl.k.nXHXkXz a T ! ! *.*X].%.U *.<X;Xv.H H I p J c.B.-.G ",
"I H *.:XtX1XM.%.H.9X9XS.-. .=.).'.OX.X:.+ X 9.E.j.bXDXvX~.k.k.xXmXk.k.vXMXMXMXBXg.a < K U R c.;X<Xc.J @.&X,XB.U i a a H %.B.=.L ",
"p H W P.9XqX&XM.].tX5XV. .|  .&.Z.A.;.>   * 9.g.vXxXvXCXCXdXh.xXmXmXxXnXHXHXBXNX] a T ~ U E *.*X-XM.R W _.>XJ.W u d a H %.M.v.E ",
"a i U =.*X1X,X%X,X8X=Xv.| } ~ } .. .>     h i.9.k.sXvXnXDXvXj.l.h.ZXKXJXBXHXBXt.z 0.X.U U U *.&X-XH.| R M.-X_.( u a p G ) M.m.` ",
"^ I u | M.&X-X-X;X*XH.@.R } T } } t + o   ; i.7.a.cXbXvXbXbXk.p././.BXJXBXBXfX] / T.:.Y U U @.J.1X_.#.R M.-X_.#.G H H G ) N.N.*.",
">.I i i ( c.n.H.I.J.c.) U Y T X.T y o   . ; i.7.7.l.BXNXfXfXfXvXCXHXDXGXFXE.E.A O 0.w.~ ~ J R N.-X&X%.P M.-XB._ G G G R *.v.c.%.",
";.! I i J ' ) b.3X:XN.%.! ~ T X.l y #   . ; p.t.D 7.l.NXSXlXkXkXcXVXFXIXfXE.W.N O / / K I I J %.&X;XP.n.G.].v.E G H J J W #.@.E ",
"Q i u u G E c.].0X8X].%.U T d y f 5 # X . F f.a.t.D 7.z.f.E.g.f.aXfXjXE.l.E.j.$ O f / , y s K L v.].[.N.B.N.#.G G H H H H H H H ",
"#.U u i J #.P.3XwXwX3Xv.U y y @ 0 3 X . . v j.j.l.z.7.A F A C A N 7.S ] W.BXp.. X @ j y 2 j j < E c.N.b.N.v.W u u u u u u i Y U ",
"F.-.H u J $.S.I.1XqX3Xm.T @ - = 7 4 * X . N aXk.l.j.a.A : : ; : : F ] p.BXBXt.. X @ k h - f j a J P ` n.B.N.) K u < u u i I T ~ ",
"`.B.! u H ! =.c.I.8XeXF.^ f = ; 4 h X X . A hXE.k.k.j.z.t.8.8.8.p.l.aXGXBXNXt.. X $ k g * 4 z j K L %.K.;X:Xv.L G u < p K I K ~ ",
"_._.*.H K < G P N.eX0XF.a 1 7 = - h X $ X ] jXaXdXE.E.k.E.vXbXGXHXDXNXNXfXNXt.$ $ X 9 8 & w N j K _ H.>XqX8XB.E H p p p u H H Y ",
"G.&Xv.J K < < u v.7X7X>., h V 6 = h X $ $ 9.NXdXE.xXxXdXdXvXnXDXSXHXbXvXBXNXD $ * $ 6 ; ; c C f j C.:X>X2X2XI.) G u u p u u H Y ",
"M._.P.R i a y y +.^ s y - q B M 7 ; $ & : 8.VXjXjXgXgXsXxXE.mXBXBXmXvXDXvXbX7.. $ * ; 7 q M M h z +.F.&X;X2X*X%.G G G < u < K K ",
"%.].'.#.i y y f f 4 5 - 3 q n B w M : X * 6.jXVXvXgXdXsXE.E.vXBXBXmXfXbXNXGXS . $ $ & g M g q g 4 y I $.I.0X3Xn.P G u a < u u K ",
"_ I. X$.a y 5 4 % % 4 4 3 8 q c M M M $ : N j.AXjXsXdXsXsXE.k.E.Q.BXBXbXDXAXA : X * 7 g V M q q - 5 5 , a >.Y.Y.P G < , p p u G ",
" .C.w.l y f - 3 - 0 4 5 - 3 8 g g q M w r $ 6.jXbXhXhXsXvXE.j.p.Q.NXNXSXAXaX; & X ; B g g V n r 3 = w w 1 1 ^ ^ T a < < p u u G ",
"^ +.l y 4 7 ; r 3 3 4 5 % 3 6 q q q 7 V w * w i.hXjXgXdXaXfXfXdXNXfXfXGXkX6.: X * g V k 9 b b r x v x v n n ; h z j a u u u u i ",
"j f 4 7 w w 6 c r 3 3 4 4 3 & & q q 8 M c M ; Z g.aXjXhXaXaXjXbXfXNXlXvX8.; - ; B B V V e 8 r r v m m w w m m m v h a a u < u K ",
"5 h 7 q c x v v q 6 3 0 0 3 & % r 8 q 8 q M w N 6.t.^.hXdXE.iXaXaXjXaXi.V * 8 e [ k k B e r r 9 n V c 0 V V w : v N h j a u p i ",
"M c c v v n 9 r q & 3 4 0 0 6 r % * g & = & = V Z [ 9.j.hXE.j.aXaXaXe.1 * B k e e B k e 9 e n [ V c 8 h k ; = V c v B k f y t u ",
"c n n v x c x 8 q 6 6 6 8 0 8 8 3 6 & & & % * & q V 6.^.kX^.^.!.W.6.; ; B 7 % h [ e 8 8 8 e B B e 0 f k k 5 2 0 7 c m m V f s ^ ",
"c c c c c c c 9 q 6 r 3 8 8 0 8 6 0 4 & & % * = = 8 [ g.^.d.6.[ g h 7 7 4 # % g e 0 8 8 e e B B e 0 5 0 y 5 2 5 q N m m n V / +.",
"c c c q q c q q 0 8 3 6 6 e 9 0 0 0 0 4 3 % % 6 * $ & 6 r X   # $ = ; 4 & % % e e e 8 8 e b b b c 9 8 e k 5 8 9 n m n c M B C [ ",
"q q q q q e e 0 8 8 6 8 8 8 e 0 0 e 0 4 0 % % 0 % % 0 0 & % % 8 M h - % r 3 3 8 0 q q q b b b B v x 8 e e 5 9 x n n B b B q c V ",
"g q q g e e e q 9 8 8 8 8 0 0 0 7 h 0 0 0 % 5 e 3 # # 3 e k 5 8 7 7 = 6 6 % & e e b k B B B M M v x w x n x 9 x n V q c V B m A ",
"b q q q e e 0 q e 8 8 8 8 0 e 5 0 7 0 h 0 3 % e V 3 % # 5 k 5 5 0 = = 0 0 & r V b k b g q g q q B 9 9 x n x x n n b q c B B V V ",
"c q q q e 9 9 9 e 9 8 8 0 5 5 5 7 4 5 h 0 5 % 5 5 # 0 5 8 k 5 e V h r 6 9 r 6 B b e B c q q g g k 0 6 9 9 9 9 n [ b 9 9 B M c B ",
"b 9 q q e 8 9 9 9 e 9 8 5 k 5 5 7 4 3 4 0 % % 5 e 5 e 5 2 k 5 k q q 0 q 8 & & e B B q q q g M h k f 3 6 9 9 9 9 b x x n V V q M "
};
