/* XPM */
static char *b5a4cbb121074f61b7ab1bab650294859SwYYbFqgR7OvhHv[] = {
/* columns rows colors chars-per-pixel */
"69 64 256 2 ",
"   c #080808",
".  c #0C1212",
"X  c #131313",
"o  c #1B1718",
"O  c #120C0F",
"+  c #24191B",
"@  c #2A0E0B",
"#  c #09301D",
"$  c #2C201D",
"%  c #0F122F",
"&  c #291E24",
"*  c #0B2C25",
"=  c #192524",
"-  c #093828",
";  c #133B2B",
":  c #143A34",
">  c #292427",
",  c #362628",
"<  c #302F33",
"1  c #463637",
"2  c #553739",
"3  c #462B2B",
"4  c #05452A",
"5  c #13442D",
"6  c #05562A",
"7  c #0A4933",
"8  c #164738",
"9  c #095737",
"0  c #13543A",
"q  c #24463A",
"w  c #066739",
"e  c #057438",
"r  c #01461E",
"t  c #17194B",
"y  c #1C2456",
"u  c #24265B",
"i  c #2E2C52",
"p  c #262768",
"a  c #292C76",
"s  c #2C327C",
"d  c #2C3473",
"f  c #34387A",
"g  c #30336B",
"h  c #1F2163",
"j  c #4D3B45",
"k  c #5B3768",
"l  c #195947",
"z  c #145244",
"x  c #24574B",
"c  c #255B52",
"v  c #294E46",
"b  c #0A6A45",
"n  c #15674A",
"m  c #0B734C",
"M  c #067749",
"N  c #13744C",
"B  c #196854",
"V  c #0C7B53",
"C  c #0B7854",
"Z  c #137554",
"A  c #177959",
"S  c #0E6E55",
"D  c #256857",
"F  c #25745C",
"G  c #2E6654",
"H  c #314777",
"J  c #197B62",
"K  c #1C6F65",
"L  c #287A66",
"P  c #34746B",
"I  c #564849",
"U  c #6D5355",
"Y  c #775759",
"T  c #6C4B4C",
"R  c #474676",
"E  c #7A5B65",
"W  c #75676B",
"Q  c #66675A",
"!  c #64413F",
"~  c #865656",
"^  c #895868",
"/  c #8A6668",
"(  c #976969",
")  c #946F75",
"_  c #A5777A",
"`  c #AC7274",
"'  c #9A575E",
"]  c #FA5C76",
"[  c #FA6579",
"{  c #D25B6C",
"}  c #833243",
"|  c #06883D",
" . c #0A8859",
".. c #15865B",
"X. c #08965B",
"o. c #15945B",
"O. c #07874A",
"+. c #0AA45C",
"@. c #0B8A61",
"#. c #188965",
"$. c #0D9865",
"%. c #179668",
"&. c #189A73",
"*. c #268669",
"=. c #378B74",
"-. c #279473",
";. c #37997A",
":. c #2A8B6F",
">. c #0CA669",
",. c #16A66B",
"<. c #19A776",
"1. c #19B878",
"2. c #0EB370",
"3. c #25A77B",
"4. c #25B67B",
"5. c #28AB73",
"6. c #5C887A",
"7. c #15C57B",
"8. c #21C47C",
"9. c #2B3584",
"0. c #343983",
"q. c #3A3D8B",
"w. c #353888",
"e. c #393C93",
"r. c #322E85",
"t. c #3A3BA1",
"y. c #443E9B",
"u. c #3C438A",
"i. c #3B4496",
"p. c #345692",
"a. c #326C83",
"s. c #3846A3",
"d. c #464687",
"f. c #444799",
"g. c #4F5197",
"h. c #727194",
"j. c #4949A5",
"k. c #5053AB",
"l. c #67639F",
"z. c #8A798D",
"x. c #B17D85",
"c. c #93508E",
"v. c #C67988",
"b. c #F66C85",
"n. c #E95B87",
"m. c #359684",
"M. c #1BB884",
"N. c #1AAE81",
"B. c #29AB84",
"V. c #27B786",
"C. c #34B38C",
"Z. c #4F9588",
"A. c #4CB08F",
"S. c #679899",
"D. c #1CC686",
"F. c #19D28A",
"G. c #27C588",
"H. c #28C994",
"J. c #36C996",
"K. c #28D698",
"L. c #37D897",
"P. c #2ED08A",
"I. c #3BE79E",
"U. c #3ADAA3",
"Y. c #2ED7A3",
"T. c #38E6AA",
"R. c #31EAAD",
"E. c #1FE09F",
"W. c #47D098",
"Q. c #44E69B",
"!. c #4DD6A9",
"~. c #69D8B3",
"^. c #46E6A7",
"/. c #56E9AA",
"(. c #48E9B4",
"). c #5AEBB6",
"_. c #4AF6B8",
"`. c #57F5B9",
"'. c #57F4AB",
"]. c #68F7BA",
"[. c #75F9BD",
"{. c #68E9B7",
"}. c #59F5C6",
"|. c #69FAC6",
" X c #78FCC7",
".X c #78FDD2",
"XX c #68EDC6",
"oX c #5ED7C4",
"OX c #AB8588",
"+X c #B88788",
"@X c #B59295",
"#X c #8F90B3",
"$X c #A997A9",
"%X c #AAA7B2",
"&X c #919797",
"*X c #C68C94",
"=X c #C79698",
"-X c #D5999A",
";X c #CC8B8E",
":X c #D4A29D",
">X c #D79CA3",
",X c #CA9BA2",
"<X c #C9A4A8",
"1X c #D9A6A7",
"2X c #DCB4B8",
"3X c #D8ACB2",
"4X c #E3ABAC",
"5X c #E6A8A9",
"6X c #E6B2AC",
"7X c #E6ACB3",
"8X c #E4B3B3",
"9X c #EAB4B3",
"0X c #ECB5BB",
"qX c #EDBBBB",
"wX c #E8B9B8",
"eX c #F4B9BA",
"rX c #F1AFB3",
"tX c #F099A1",
"yX c #94CEB8",
"uX c #F0C1BA",
"iX c #D6C3B4",
"pX c #AFADCD",
"aX c #9CA0CC",
"sX c #F3BBC2",
"dX c #E9BBC4",
"fX c #CEBCD5",
"gX c #86FDCA",
"hX c #96FDCD",
"jX c #87FED3",
"kX c #9CFED4",
"lX c #97FED6",
"zX c #A3FDD4",
"xX c #A4FEDC",
"cX c #AAFDD9",
"vX c #AEFDD8",
"bX c #AAFEE3",
"nX c #B9FEE4",
"mX c #ABE0E4",
"MX c #A6CFCD",
"NX c #D0CED7",
"BX c #F7C5C6",
"VX c #F0CBD0",
"CX c #D8D5EA",
"ZX c #E3DEF9",
"AX c #E5DBE8",
"SX c #E9E6FB",
"DX c #EDEBFC",
"FX c #E9E7F7",
"GX c #F4ECFC",
"HX c #F5F4FD",
"JX c #FAF5FD",
"KX c #F6FAFE",
"LX c #FCFCFE",
"PX c #F6F6F5",
"IX c #F0EFF3",
"UX c #C7F0E1",
/* pixels */
"5.gXhX/.| e Q.hXhXQ.| ; 5.].R.M * 5 3.`.K.b 8 0 J. X|.3.%.!.XXG.l v v B B D P A %.3.F G D D D c #.V.%.A A -.D.,.B b S V.`.K.Z w M V.}.K.M ",
"+.gXzX'.| 6 5.gXzX'.o.r O.Q.'.,.: : <.(.U.n ; : #.(.|.].T.T.R.L z 8 x D D G F m.).{.B.A F D D A *.V.%.B B #.M.M.A n n M.`.T...n b 1._.K.X.",
"o.'.zXgX8.6 | ].zXgX+.r b F._.K.b - 3.(.G.z 8 v 8 *.J.T.U.V.F * = + < i x G ;..XvXvX!.*.D A P D -.G.3.D B A <.H.%.N n $.(.`.>.b b $._.R.$.",
"e Q.zXhXW.| | '.vXgX5.6 - %.(._.M.J G.R.<.z z 8 v q l B F z = O   X X X & > q ;.zXnX{.5.L L G L -.G.4.F D A &.H.<.N n o.T.`.G.M n ,.T.R.$.",
"r 8.hXhX'.+.| Q.hX[.5.5 * 0 B.T.T.Y.E.4.B : z z i l v G < . .   . X X o < > + O x ~.~.;.P F F P -.H.V.L B F &.D.1.A N N G.`.^.X.b $.R.Y.@.",
"# ..].zXgXW.+./.zX].+.; : - 9 #.4.<.,.V q z z v x l 8 > > .     . o X X   . + > + , q P =.*.P P -.C.H.-.B L *.D.G...V N $.T.`.G.$.M.R.H. .",
"$ 6 8.hXhX[.'.gXkXQ.O.- 7 - : z 0 N 4.G.*.q x v : > = X . o X O         O   X . o + O + q L L P L C.H.B.L L #.M.D.#.Z A  .V.(.T.Y.E.K.2.M ",
"# r e Q.gXhXgX X'.+.6 : : : 8 : 0 V. X XC.N v : > & O X . O X         O       . O . O     < P =.P C.Y.C.:.K *.G.V.#.B ..S @.M.H.H.D.2.X.O.",
"# # 4 M 7.Q.L.F.2.O.6 5 7 : q 9 C. XzXhX^...; o > > = X O X       O X + o > > + + X X X .   < F :.;.C.H.B.=.-.G.V...Z Z A A O.o.7.L.^.T.8.",
"* * # # 6 O.8.I.).^.8.m 8 z 8 -._. XgXzX]...= = > o O @ & + X o O X > X $ < 2 I T I 3 , $ X X q =.=.m.J.J.V.1.4.,.....*...V X.P.|.hXlXcXgX",
"* * * - 6 8.[. X XgX XP.z 0 b %.I.J.).kXgX;.> O . o @ , 2 & , , o , < , 3 2 T / ` ` ~ 3 $ X O X P =.=.B.V.M.G.G.4.5.o.o.O...4. XlX X`.kXvX",
"* * - - ..[.jXG.8. XzX|.<.0 8 c A Z W.lXjXW.;   X o 3 3 3 , 1 , $ I 2 , 2 ( =X=X1X` ` T $ X .   v ;.=.;.V.W.{.{.[.Q.1.o...o.L.kXkXT.7.'.bX",
"* * * - 4.hX X>.6 L.hXlX^.n 8 v q x 4. XkXW.X .   2 @XOX( U 2 I T T 3 ~ @X<X1X4XwX9X( ~ ~ , o   = =.;.C.).jXcXvXvXhX`.8.o.o.T.vXxXP.X.8.jX",
"* * - - G.hX X,.5 $.].cX).$.l z v 0 &.[.zXA.  o 2 *X6X6XVXqX:X1X<X=X=X1X8X1X4XqXuXeXeXrX6XT @ o . P ;.!.jXvXhXgXvXnXlXQ.,.+._.nXkXI.o.2.`.",
"* * * - C.hXjX4.w b ^.lXgX4.0 z x x L ).vXZ.  > ( 5X5XuXuXwXuX:X1X1X6X1X1X7X6X9XuXuXuX6X4XU o     F A.~.cXvX[.Q.[.nXnX[.8.+.^.bXzX^.+.+.Q.",
"* * * - 1.gXzXL.w 9 C.jXzXL.l x l x D J.xX6.  2 _ 5X6XuXVXwX5X:X:X1X1X1X1X1X5X9XqXeX9XeX<X1 = X   F A.{.nXcX'.8.^.zXUXzXP.2.L.lXnX[.>.+.K.",
"- # - # $. XkX'.O.0 ,.gXzX^.A q x x c A.|.0 O 2 +X:XiXuXVXuX4X5X3X1X7X7X8X4X9XeXBXqXuXuX<X3 $ @   G A.XXnXnX].8.P.gXnXvX/.2.8.gXnXjX1.X.8.",
"- * # - b `.zX X,.0 o.[.kX^.B l l D #.W.gXq   , +X6XuXuXVXVXuXiXdX0X0X2XdXdXdXfXVXVXuXwX1X2 < .   x A.{.vXnXgXG.8.{.nXnX[.2.4.[.nXkX^.+.7.",
"* - * - 4 K.jXkXL.n N ].hXT.n l x D C.}./.=   , ;X:X@Xz.z./ _ @X1X3X0X2X3X$X) E / OX3XBX1XY 1 .   P C.).cXnXkXW.4./.vXnX[.8.+.L.xXcX[.7.F.",
"7 - - - - *.|.cX|.1.1. XjXH.n v x c B.!.;.=   2 ;X@XOX/ W ~ / +X3X0X1X5X1X*X( ~ ) W OX:X2X( 3 O   x A.W.kXnXzX/.8.Q.zXnXgX8.o.1.|.bXzX X].",
"b * - - 4 8 G.jXkX[.]..X/.#.l z l c D L F +   T :X+X:X<XOX_ ( ` 3XeX5XeX7X` ~ ~ OX,X,X@X:X:XT     : A.C. XnXnX XG.Q.lXnX[.7.o.+.D.XXkXxXjX",
"V - 7 : - 4 m G.`. X`.L.<.l v l l c c :.C.=   ~ :X:X( ( 2 1 / / >XrX5XsX4X` T ! & / ( 1X6X5XT   3 6.A.3.{.bXnXkX/.{.lXbX].>.#.o.>.D.^.^.T.",
"M.@.S 9 : 8 ; b ..,.%.O.n z l l l c B J.}.I   ` 5X;Xx.;Xx.) ` v.-X5X-XeXeX=X_ ( +X=Xx.-X6X5X~ O ' yXC.B.C. XcXvXhXhXcXjXI.>.#.%...X.+.2.G.",
"D.>.S 9 4 - 5 5 5 b A #.%.-.D B c v P !._./ @ ` :X5X:X-X;X;X-X-X5X5X5XeXeXeX-X-X=X-X7X1X6X9X( < [ yX;.Z.5.!.jXzXzXkXhX/.1.#.#.%.@.X.X.P. X",
"b b 4 - 7 7 - : 9 *.$.Z -.1.&.B c x L !.`.@X2 ` 6X6X:X;X;X>X1X5X5X5XtXrXsXsXrX-X*X>X>X7X7XrX( Y tX~.m.m.;.B.J./.).^.L.1.%.#.X.#... .H.|.jX",
"$.X.6 - : 4 7 9 C <.A b B &.M.%.l D *.!.}.iX~ ( 6X5X5X5X>X>X5X1X>X0X7XsXeXsX7X>XtX>XrXsXBXeX( x.tXA.m.m.;.=.3.3.<.V.K.M.%.#. .#.@.>.U.}. X",
"`.T.O.: : : 4 7 @.>.A 7 8 A M.<.K c S !.|.yX~ ' 0XBXuX6X7X=X>X7XBXsXsXVXsXsX>X*X7XdXsXBX0X7X( x.7XZ.m.m.=.=.%.#.<.J.T.H.%...#.#.@.$.D.H.K.",
" X_.X.- ; - - ; A &.A 8 8 l %.&.B c l B.].~.Y ( 3XVXBX1X*X` >X7X>X7X7X7XrXrX-X` >XsXVXVXrX4X( ` <X:.=.P L *.J &.V.J.R.Y.#.S Z C Z C V O.X.",
"hXgXF.9 ; - - 8 Z <.#.z 8 0 %.4.#.c c -.(.{.) _ 5X6X5X;X` >X7X*X+X+X*X*X=X7X7Xx.` 5X0XsXrX:XY +XyXU.m.P P L L -.B.N.H.H.&.S S M b n m b M ",
"].zX'.M 5 7 7 7 C M.<.n 0 z #.M.1.B D P (..X) OX6XrX:X' x.-XOXU ^ =X1Xx.( x.3X+X^ +XrXrX5X5X~ +XXX.XXXC.m.:.P m.m.N.V.R.V.A Z A V C Z C O.",
"^.kX].X.4 7 7 4 b 2.N.Z 0 0 A M.<.F l D C.XXW x.9XwX_ ! T Y OX/ x.-X3X,Xc.) x.) U Y 1X9XrX-XY OXA.XX.XoXm.*.:.-.#.J N.Y.H.#.C A V Z Z m V ",
"V.hXgX1.4 5 8 : z >.M...z 8 D V.N.F c B L (.3._ eXeX_ T Y ` +X*X` v.v.-X;Xv.*X( ! Y -X6XuX=XI S.a.U..X.XC.*.*.L #.K B.Y.H.$.V S Z m m m V ",
"X.].kXL.9 4 5 7 7  .M.<.n 8 S B.<.B c B D :.=.6.6X:X:X` *X@X;X;XtXv.v.v.tXtX>X>X` _ =X<XBX_ P m.=.C.XX.X!.#.*.L *.J &.H.Y.<.C C M S m b M ",
"w {.kX'.V 4 4 5 7 z >.2...N  .<.%.B l c B G G v -X:X=X;X5XsX0XVXrX>X>XdXsXVXdXsX<X+X*X4X5XQ C.Z.:.=.oXlX).-.#.L J J #.D.Y.N.C Z Z m m M  .",
"6 W.kX|.$.6 ; 0 7 7 N ,.>.%.#.%.D n l c B c G x / -X=X-X-X8X0XdX5Xv.x.1X0XsX0X0X1X-X:X6X_ Q ).C.P L Y.jXXX<.L L J L L <.Y.G. .m S b b M  .",
"- 1.jXhXK. .N 4 7 7 8 B  . .A S b z l D n B F ;.P Y ( +X6X1X7X7X5Xx.v.>X7XrXeXsX4X@X+X_ T S.lXC.=.m.V.XXXXB.L J #.A B &.Y.E.2.$. .M b b ..",
"9 4.gXzX XT.F.b 9 7 7 0 l J <.N.3.#.B l n n -.`.W.I Y ( =X8X2XqXsX>X>X3X0X0XeXsX<X) / Y / <XNXMX-.L B.XXXXB.J #.J V $.M.E.E.D.2...m b b b ",
">._.jXjX].I.>.w 7 9 7 7 #.C.Y.R.(.(.&.n x B -.R.%X/ T Q _ 1XuXBX7X*X,X,X,X3XsX1X/ / Y / :X@XAXLXyXJ N.}.}.m.J #.A ..&.N.1.<.%.C m b b b m ",
"1.K.L.P.7.>.b 9 0 9 7 l H.R.H.M.T.|.^.J l x Z W.BX;XY I U ) =X1X*X_ x.x.x.@X3XOXT Y / +XuX@XAXGXGXyXJ.oX(.%.A A J A #.@. .C C Z M b b b M ",
"9 O.,.K.^.^.G. .9 7 9 #.T._.#.z B.}.|.M.l B c NXiX-X=XY Y I j E E E U I E U U T I I ` 5X6X1XIXGXGXJXoXR.N.K J A ..C S Z #.@. .$. .M M e b ",
"4 ,.`. X XgXgX!.O.9 0 %.).`. .9 S T..XU...z Z.JXdX1X5X( I I < < < i , > < < j I 1 ~ 1X9XrX9XIXPXDXJXmX&.L J A J V Z C #.@. .@.@.X. .M b b ",
"M /.jX/.P.].xX.X8.b 6 @.}.|.&.7 b C.|.`.,.7 %XJXNX1X6X5X+XT 1 , , > > > < < 1 2 Y >XwX9X6X6XAXJXHXHXmXN.#.J V C J C  .@.@.C V A $. .M b m ",
"X. XhXD.w 4.gXxX'. .9 @.(.XXM.z 8 %.`.|.2.0 NXKXIX2X4XrX5X_ I I , + o + $ , ~ =X5X6X6XeXeX3XGXGXHXJXMXE.2.N ..J J C  .$.@.C m M $.$.C M b ",
"1.jXhXD.6 O.).bX X2.9 M !.|.K.b 7 A ^.|.V.L AXLXGXIX2XuXwX6X6X:XOX_ E E OX1X9XrXrX9X9XuXrX<XGXGXLXSXl.k.C.o.M S Z C @.$.$.C C S  .$. .M M ",
"3. XlXP.e 6 L.lXlXL.b b H.|.(. .7 m T.oXp.R GXLXGXDXAX0XBXuXeXeXsXqX8X4X4X5X5X6X5XuXeXBX+X3XGXDXLXNXs.k.i.a.K C N m C $.#.V C M M $.@.M b ",
"%. XxX/.e 6 <..XzX^.M 4 <._.|.M.z c a.H 9.g.DXPXHXFXPX2XuXBXuX9X9X4X:X-X-X4XwX2XqXuXBX4X/ AXKXPXKXGXl.j.k.k.g.P J C C $.$.V b M M @.$.O.m ",
"M {.xX|.+.6 O.[.xX}.X.4 Z !.oXm.y d q.w.q.R IXKXHXLXIXGX<XwXVXBXBX9X3X8X2X3XwXqX8XuXuX_ &XLXPXLXKXJXS.e.g.f.j.j.p.a.K  .$. .M S M  .$. .M ",
"6 T.kXjX8.6 M `.bX}.A : * y H u t i.f.p.0.g.KXKXJXKXLXKXKX@X7XBXwX9X8X8X2XqXuX0X0X8X+Xz.FXLXPXLXPXJXaX9.f.j.j.i.e.j.i.p.m.#.M b M  .@.M b ",
"4 1.[.cXQ.M e W.S.h % O t 0.f h a i.e.j.a #XLXPXKXKXKXPXLXAX@X3XsXwX8X2X2XdX0X0X3X=XW fXKXPXLXLXLXLXaXp f.f.j.s.u.0.f.j.j.f.a.B M O. .M M ",
"4 b _.vXgXF.,.H % t y u f e.s t d i.f.i.p NXLXLXLXPXLXLXKXLXNXOX;X<XwX0X7X3X3X=X,X/ $XDXLXLXPXLXLXLXaXh 0.u.f.i.q.9.u.j.f.f.i.p.a.J @.M w ",
"r 4 >..XlX.XU.r.y i u.q.9.w.a t f f.e.f.t #XLXPXLXPXJXLXPXKXKXfX@X@X=X>X1X1X1X3X_ W NXDXLXPXLXLXJXLXpXp a 0.i.f.i.9.w.i.f.j.j.j.g H g.p.K ",
"r r 9 1.).|._.S.i.t u f 9.w.h h w.e.i.f p u AXLXPXLXHXLXLXPXKXSX%X$X@X=X=X=X,X=X3 $XJXLXIXLXPXKXJXLXpXd d s q.f.e.0.i.i.e.i.d.f i d.k.k.a.",
"4 - 4 6 | +.B.p.j.d.t i w.e.h y 9.s.q.a 0.h &XPXPXLXLXJXJXPXZXaXR f &X@X*X<X<XY R fXfXIXKXLXLXKXGXLXpXd 0.f s u.i.9.w.i.e.w.d g f.k.k.p.B ",
"6 5 4 5 - P d.j.u.k.a y p r.h p i.e.a f w.9.k AXLXLXKXDXZXAXfXaXh.h.aXz.<X+XY j pXAX$X$XAXLXPXJXGXLXaXp q.q.r.s u.i.t.e.i.w.s i.k.k.k.k.p.",
"4 # - 4 I l.k.s.f 0.f.d t g t a u.p p 0.i.9.h.FXLXKXDXFXZXZXCXZXmX#X#Xl.h.~ U NXDXGXFXpX$XLXPXDXFXHX%Xa q.q.w.a d i.i.i.9.s e.k.d q.j.k.h.",
"# 4 4 5 [ g.s.k.j.u f q.p y h s a a a w.e.r.h.LXHXPXFXFXSXZXCXCXZXh.h.l.h.HXKXJXDXGXSXZXAXIXKXFXDXGX#Xr.f.e.e.0.r.s u.u.9.u.f.i.y w.j.j.v.",
"7 - 4 ' [ g.y.i.j.u % f.e.d s u p d p d.e.e.pXGXJXKXPXSXZXZXFXDXJXpXh.#XIXPXPXLXHXDXSXZXSXLXGXFXSXSX#Xw.i.u.q.w.9.0.s s w.R q.k.p f s.k.n.",
"X.# 5 b.] l.s.q.i.p . f f.0.a t p r.a w.e.e.pXIXKXPXLXHXSXZXFXKXJXGXh.pXKXLXLXLXGXSXFXSXJXLXSXGXGXZX#Xe.d.q.w.0.9.0.0.r.a p u.k.p H s.l.b.",
"F.6 } b.] ^ t.e.f g . g q.g t % p r.a 0.i.u.pXLXDXIXHXHXGXZXZXPXDXLXpXAXNXSXLXIXFXSXDXJXLXKXFXJXHXSX#Xe.i.w.9.9.0.s s a p f d.d.g f t.c.[ ",
"R.o.{ ] n.{ e.r.d u % t d.u t t d a a w.q.d.CXLXGXHXHXJXKXZXCXGXJXIXAXPXW %XPXIXSXSXHXLXHXKXFXHXDXSXaXe.0.9.s s s 9.s d u d.d.q.d e.i.{ [ ",
"R.;.[ [ ] { g t.h h % % d.g % u g p p r.t.l.CXSXLXJXHXPXKXZXZXFXKXPXNXIXFXSXKXFXZXDXKXLXIXPXSXHXSXSXaXe.0.a s s r.s a d p R f y.d 9.g.[ [ ",
"R.$X[ b.] ] } r.u h t % R g % u p h a 0.e.h.ZXAXKXJXHXHXKXDXCXZXLXKX%XFXKXKXKXSXSXDXHXLXJXHXSXHXDXDXaXe.9.s s a s a a p g d.a q.d 9.c.[ [ ",
"W.;X[ [ n.] { i u u t % k g % p p h a w.e.#XSXFXGXKXKXHXHXGXSXZXDXPX%XCXLXJXKXHXZXSXPXJXJXHXSXKXDXGXpXe.0.a a a a a a u g d.f y.g d.] ] [ ",
"S.b.[ [ ] ] ] ! % u t % h a % p p p s e.e.aXHXGXSXHXJXJXHXHXDXZXDXLX$XIXLXLXKXDXZXSXKXKXHXHXSXPXGXHXpXw.f a d s s a a h k d.w.d.y c.] [ [ "
};
