/* XPM */
static char *e2dfdbe4f7a047e9d6a04a2269947a4aCIjAKFeihkhnS76O[] = {
/* columns rows colors chars-per-pixel */
"64 64 256 2 ",
"   c #060804",
".  c #150606",
"X  c #05150B",
"o  c #081A14",
"O  c #1A1A16",
"+  c #150F10",
"@  c #2B1615",
"#  c #072517",
"$  c #00371A",
"%  c #092A14",
"&  c #2E221B",
"*  c #0A0E34",
"=  c #082A24",
"-  c #053826",
";  c #14332E",
":  c #2E2E2A",
">  c #251C2C",
",  c #553936",
"<  c #4A312D",
"1  c #683838",
"2  c #41221F",
"3  c #00451B",
"4  c #00551F",
"5  c #034628",
"6  c #01562A",
"7  c #064B34",
"8  c #164937",
"9  c #045737",
"0  c #124D34",
"q  c #00672B",
"w  c #016639",
"e  c #00763C",
"r  c #24443A",
"t  c #50423D",
"y  c #66443E",
"u  c #0F144E",
"i  c #122C53",
"p  c #2D2C56",
"a  c #18276A",
"s  c #262867",
"d  c #282A75",
"f  c #352B75",
"g  c #2A357A",
"h  c #363A79",
"j  c #2F3367",
"k  c #241C5C",
"l  c #4F3652",
"z  c #4D3271",
"x  c #6A3B4F",
"c  c #095B44",
"v  c #195945",
"b  c #134F50",
"n  c #27594B",
"m  c #305249",
"M  c #066846",
"N  c #17664B",
"B  c #017544",
"V  c #02734C",
"C  c #017C4B",
"Z  c #047946",
"A  c #097955",
"S  c #157857",
"D  c #146E51",
"F  c #266C57",
"G  c #27755B",
"H  c #2F6C54",
"J  c #394578",
"K  c #2F4F74",
"L  c #187965",
"P  c #12716A",
"I  c #2D726F",
"U  c #185B73",
"Y  c #534950",
"T  c #715151",
"R  c #4A4C73",
"E  c #6F556D",
"W  c #48716B",
"Q  c #726F6B",
"!  c #68645C",
"~  c #875958",
"^  c #855054",
"/  c #8B5671",
"(  c #886665",
")  c #976969",
"_  c #937676",
"`  c #A67979",
"'  c #AF7274",
"]  c #A25173",
"[  c #D1707A",
"{  c #03834B",
"}  c #028354",
"|  c #098859",
" . c #15885A",
".. c #08965A",
"X. c #16945B",
"o. c #26895A",
"O. c #0B8B64",
"+. c #188866",
"@. c #0A9866",
"#. c #179767",
"$. c #189A75",
"%. c #0A9170",
"&. c #268869",
"*. c #26946A",
"=. c #289876",
"-. c #379979",
";. c #338870",
":. c #17A76C",
">. c #15AB73",
",. c #28A778",
"<. c #34A67A",
"1. c #28B479",
"2. c #2EAC72",
"3. c #568A78",
"4. c #469279",
"5. c #698573",
"6. c #44A87C",
"7. c #AB827D",
"8. c #93847A",
"9. c #C4817B",
"0. c #2C3584",
"q. c #353A86",
"w. c #333990",
"e. c #493D88",
"r. c #3A4487",
"t. c #3B4494",
"y. c #345586",
"u. c #346B8B",
"i. c #3F46A1",
"p. c #44488A",
"a. c #484796",
"s. c #4D5392",
"d. c #73718C",
"f. c #58609F",
"g. c #B47887",
"h. c #966DA3",
"j. c #DC718B",
"k. c #349986",
"l. c #1BB783",
"z. c #36A885",
"x. c #27B787",
"c. c #37B587",
"v. c #32B28C",
"b. c #4D9788",
"n. c #47A787",
"m. c #47B988",
"M. c #47B896",
"N. c #54B293",
"B. c #6FAD92",
"V. c #71A2A0",
"C. c #3AC58B",
"Z. c #31C994",
"A. c #3AD5A4",
"S. c #1FC186",
"D. c #48C698",
"F. c #54C79A",
"G. c #47D89A",
"H. c #56D49C",
"J. c #4BC68A",
"K. c #65D29D",
"L. c #4AD9A8",
"P. c #56D7A6",
"I. c #56CDAA",
"U. c #67D6A9",
"Y. c #6CD3AF",
"T. c #5AE7AB",
"R. c #5BE7B4",
"E. c #4BECAF",
"W. c #65E5AA",
"Q. c #66E9B6",
"!. c #77E7B9",
"~. c #6BF6BA",
"^. c #76F5BB",
"/. c #7AEAC5",
"(. c #6AF7C6",
"). c #7AF9C6",
"_. c #7AFCD3",
"`. c #6CF3CC",
"'. c #61E0C9",
"]. c #978E90",
"[. c #A48784",
"{. c #B68687",
"}. c #BA938D",
"|. c #BC9697",
" X c #A98F94",
".X c #9090AF",
"XX c #B293A7",
"oX c #B2ABAC",
"OX c #9DABA2",
"+X c #C79998",
"@X c #D7979B",
"#X c #C58C8F",
"$X c #CBA49D",
"%X c #D79BA5",
"&X c #CC9EA0",
"*X c #E19EA7",
"=X c #C9A8A7",
"-X c #D7A8A8",
";X c #D8B2AC",
":X c #DDB4B3",
">X c #D8B7B6",
",X c #CEAEB2",
"<X c #E5A9AD",
"1X c #E9ABB3",
"2X c #E9B8B8",
"3X c #F3B8B9",
"4X c #E4B3AE",
"5X c #8FCAB1",
"6X c #AAC6BA",
"7X c #83F1BE",
"8X c #D8C4BA",
"9X c #E6C3BC",
"0X c #F5C2BF",
"qX c #ADB0CB",
"wX c #A09EC6",
"eX c #D2BDC3",
"rX c #EABAC1",
"tX c #F7BBC3",
"yX c #B2D5C4",
"uX c #86EAC6",
"iX c #86FDC9",
"pX c #8BFFD4",
"aX c #85FFD6",
"sX c #94FFD4",
"dX c #9BFFDC",
"fX c #96FED8",
"gX c #97F0CD",
"hX c #A4FEDA",
"jX c #ADEBD3",
"kX c #92FCE3",
"lX c #A7FFE5",
"zX c #95D6C7",
"xX c #CFCDD1",
"cX c #EBC5C3",
"vX c #F6C4C6",
"bX c #F2D2D0",
"nX c #D5D5EE",
"mX c #E7DEEE",
"MX c #DBF2EF",
"NX c #E5E6EB",
"BX c #FBE8EB",
"VX c #F9F7ED",
"CX c #ECECFD",
"ZX c #E7E7F6",
"AX c #F9ECF8",
"SX c #EDF3FD",
"DX c #EBFFFB",
"FX c #E9FCF6",
"GX c #FDFCF4",
"HX c #F4F4FD",
"JX c #FDF5FE",
"KX c #F4FDFD",
"LX c #FDFDFE",
"PX c #F7F5F4",
"IX c #E9F9ED",
"UX c #DFE5DC",
/* pixels */
"LXPXKXGXVXVXVXVXVXVXGXGXVXKXKXKXKXLXLXLXPXJXAXGXKXFXDXKXGXGXJXGXLXLXLXKXKXDXDXDXKXLXLXLXLXGXGXGXLXGXLXPXKXLXKXGXLXNXGXKXGXGXGXGX",
"DXFXFXFXIXIXIXIXIXIXGXVXFXDXFXDXMXMXDXDXGXLXPXGXFXMXDXDXDXGXPXDXKXDXKXKXDXDXDXDXDXDXDXDXFXKXKXKXFXDXDXDXDXIXDXFXFXDXFXIXIXDXKXFX",
"4.gXlX5Xo.q J.jXjX5XH 4 N.Y.G 5 c -.!.F.N 5 v N.sXM.#.F.zXb.N v H m n H H G ;.G G F F F N I 4.;.N G ;.-.G M S <.U.N.o.B S n.K.4.",
"2.7XsXW.X.q 2.W.gX7X{ 4 z.Q.=.6 6 >.`.D.M 3 9 &.Q.`.I.Q.Y.&.9 - 8 n H G F b.Y.b.F M S S D *.c.#.V S &.<.| M A ,.~.R.| w Z >.~.1.",
" .W.fXiX2.q ..^.7X7X2.w +.R.D.V 6 $.R.v.D c 7 7 S F.F.b.G - - - 8 ; b F 4.zXMXI.&.D o. .V l.v.l.S D S z.&.A V #.R.R.>.{ e >.E.l.",
"{ H.7X7XJ.e e T.fX7X<.q A U./.z.+.D.P.=.c 7 7 v c G D 0 - o X o = = # ; m b.jXzX;.o.L S V $.v.v.L V A z.-.| V O.L.~.x...e ..E.S.",
"4 6.hXsX~.:.e H.iX^.2.5 6 -.I.Y.F.M.z.M 7 b m r b m m o   + o   + > : : X # W 6X5.W &.G P =.v.v.*.D S -.z. .V } v.R.A.@.{ @.E.l.",
"$ o.7X7X7XJ.X.^.iX^.*.6 5 v S k.z.+.A M 7 m m m m = = +   + . > > .   o > % : r W W H I I =.v.M.$.V +.=.v.O.A } %.E.R.S.@.S.A.>.",
"% w 2.7X7X7X^.^.iXG.{ 3 4 5 9 9 A v.v.*.9 n m : = = O + + + .         + X X X O % r H H I S M.D.x.O.O.>.x.@.} } ..x.L.E.L.A.Z.@.",
"$ 3 { H.7XsX7X7XG.:.e 4 0 6 c V c._./.M.v v ; o > o   . @ .             X X X X X o r H 4.&.=.M.z.O.O.,.z.@.A ..Z O.x.c.S.C.1.{ ",
"- % 3  .2.J.J.H.S...q 4 5 7 M z./.kXkXI.G - ; o ; + . . . .     O + O O O O & . .   X ; I ;.;.M.M.x.,.<.,.| A  .| } } X.,.P.T.C.",
"; % 3 5 q X.6.H.T.G.2. .6 0 ;./.).aX_.!.;.$ o & > O > @ @ @ + X & O : l t t y & < & X o ; 4.;.-.F.z.,.z.=. .}  . .Z  .D.).sXaXaX",
"% = - - M m.^.Q.^.pXiXN.c 9 ;.Y.F.W._.iX6.$ X X X : : 2 @ 2 > : : @ 2 < Y ) ' ~ < @ @ X X W b.G =.1.c.D.c.z.#. .X.{ c.^.aX).R.aX",
"o # = - ;./.).C.X.K.hX7X&.6 8 H Z m.aXsXB.$     : Y T Y < , Y , , y ( {.+X<X#X) ~ 1 & X   8 3.;.=.F.Q.).).!.H.,.#.@.H.aX).C.1.~.",
"; = ; 7 N.aX(...6 o.!.fXD.M 7 0 0 *.7XgXB.X + , oXrXvX3X%X&X=XoX=X=X&X=X<X3X0X0X4X$XT & X X o.b.K.iXdXsXsXdXiXK.X.*.Q.fXiXG...C.",
"= = ; ; m._.`.S.q Z U.sXP.w 7 N w o.Y.gXB.  @ ` =X:XvXtX2X<X=X=X,X;X,X4X2X4X4X3X$X4Xy + o X G n.Y.fXfXY.!.lXhX^.<.2.G.).iXT...S.",
"= ; i $ <.)._.A.e 9 m.uX7XV c v N S N.lX3.  < 7.;X9X9X9X$X;X;X=X-X<X,X%X-XrXrX2X:X;X2 @ O o G n.!.hXsXH.H.iXlXsXF.X.G.pXdX!.:.>.",
"; = = - &.)._.T.{ 6 6.7X!.M c c c D z.gXH   t [.$X4XbX8X;X$X;X-X1X1X-X1XrXvXvXcXbX;X2 @ .   G F.Y.lXdXH.J.~.fXhXW.:.C.).hX7XS.>.",
"; = = 7 M Q.).(.2.6 &.uXuXA c c N ;.I.gX$ X < }.;X9XbX0X9X;X;X4X<X1XrXrXrXrXrXvX8X$X, , +   F z.Y.hXdXW.1.~.sXlX^.1.1.W.hXsXG.>.",
"- = - - 5 F.iXiXH.q  .!.!.S v v F n./.zX%   < }.$X7.) ~ 7.+X4X;X3X2X,X{./ ^ ` ;X8X=XT < . X F M.U.hXsXW.2.Q.pXhX7X1.:.G.sXsX~.S.",
"7 $ 5 $ 3 *.7XfX!.2.6.).U.V c n N 4.F.6.%   < |.}.7.~ ^ ( {.-X2X@X-X-X|.` ( ) 7.=X;X( t . X 0 N.K.sXfX^.1.T.pXdX).c...1.!.sX_.E.",
"N % - 5 5 9 n.iXfX).).iXM.9 0 n n G +.D %   y $X+X}.7.' ) g.-X3X2X2X,X7.~ ^ ' $X}.;X7.~ .   0 n.n.uXlXpXC.P.iXkX).1...#.c.^._._.",
"+.7 7 0 3 3 N 6.U.^.Q.D.*.9 0 n n N *.-.; . Q $X+X) 1 1 T 7.%X1X$X2X8X7.1 1 ^ ) $X4X-XT . : 3.N.6.U.fXkXQ.W.aXaXQ.>.....#.C.L.E.",
"<. .N 0 $ 0 5 w  .2.O.C M M v n b D F.7Xm . ) $X+X' [ ' _ 7.%X1X@X4X9X}.) ) 7.7.}.-X0X~ . Q 5Xn.4.N.uXfXaX_.kX).L.#.#...{ :.@.>.",
"z.*.D 9 0 % 3 6 6 B Z #.=.S v v b G I.Y.5.+ 8.;X;X$X@X@X|.+X-X*X<X3X0X0X-X#X%X<X4X4X<X) <  X5X-.n.<.F.aXkX_.`.R.1.#.| @...{ :.P.",
"} B 6 3 $ 8 0 0 Z *.} C +.;.;.n n G Q.gXOXt ) 4X$X+X9.@X;X2X3X%X@X4X0XvX<X@X*X%X4X3X4X' T oXOX4.-.;.k.M.M.L.A.x.#.@. .O.@.#.C.(.",
"^.H. .5 5 8 $ 5 D ,.| q V -.b.D N N I.uX6X! ( ;X0X0X4X@X+X-X3XtX3X0X3X4X@Xj.1X3X3X0X4X) 7.6X3.-.-.;.=.+.k.A.A.A.@.O. .} ..#.c.D.",
").W. .3 $ 5 ; 0 S #.A 6 M *.=.A b c z.!.5X5.( ;X0X<X9.9.&X-X-X1X3X3X<X3X@Xg.1XvX0X0X<X~  X6X;.o.I &.&.+.$.D.A.A.| } A C C { | S ",
"iXaXm.w 5 0 $ 5 S *.O.M w +.z.+.M A +.!.zXQ 8.4X9X+X7.+X4X}.' #X#X#X#XrX1Xg.+XrX0X:X-X~ ].zXV.n.+.P &.=.=.x.v.A.%.V M A C Z B M ",
"Q.iXH.e 5 5 ; 5 D <.=.V 9 +.v.=.M P L U.jX5.8.;X8X7.7.}.9.~ ) $X%Xg.) g.%Xg.' <X8X;X=X! ].qX/.'.n.=.+.k.=.$.l.A.v.| M  .} Z S G ",
"W.sX).#.5 5 8 0 N <.z.A 9 | v.,.A V A n.5X5.8.9X4X) y ~ ) ) 7.$X<X#X_ ) g._ T 1X8X8X$XT ].B.'.kXY.k.L k.+.%.l.A.C.+.S S { Z S S ",
"1.iXiX2.6 5 0 5 w &.<.+.M C l.,.L c S S 5X5.8.8X;X( y 7.}.9.7.7.{.+X|.g.+X] x &X,XcX Xt B.I I._./.M.+.%.O.P l.A.v.+.A | Z Z G w ",
"..^.7XF.6 5 0 0 9 Z <.,.e Z 2.,.N N N G H 3.5.8X=X#X{.#X#X@X}.{.{.#X%X&X=X|.g.}.|.bX].W W ;.k.'._.E.l.P A O.$.v.L.%.C { { C e M ",
"{ W.sX!.o.6 6 $ 9 w *.2.C } =.+.N F v 0 H H m OX|.&X<X3X3X2X4X=X%X3XvXtXtX;X}.+X:X>X! 5.b.=.l.L.`.'.%.%.L +.&.v.L.1.} { { C Z S ",
"4 H.dX/.S 3 9 M 6 6 G *.*.#.#.A M n v N N N n Q OX&X-X1X3X0X<X{.g.@X3X3XvXvX-X=X;XQ Q zXb.&.$.A._.'.k.L O.A O.>.A.l.@.} Z w N N ",
"4 1._.pXF. .M 6 7 7 M M S S } M M 9 F G w G 3.W ! [.-X1X<X-X%X{.j.%X1X*XrX3X#X{.7., ].UXV.S $.Z._._.k.A L A } $.A.Z.l.@. .S N H ",
"w z.(.kXaXP.<.M 9 9 7 5 S *.,.v.&.D c D w ;.5X].m ( +XrXtXtXrX%X*XrX3X3XvXrX{.) T _ oXyXjXk.M v././.-.+.A O.@.x.A.A.x.$. .D N N ",
"<.P.Q.R.I.x.$.w 6 7 7 c N.n.M.I.Y.M.A M N G 6X6XQ E / g.@X3X,X{.g.{.#X+X-X|.( ~ ` =X|.UXZXjXb.N.'.Q.$.L A O.O.$.>.@.@.} V M M v ",
"w ..1.v.T.L.m. .w 9 9  .Y.=.V $.`.`.z.M w H yXxXXX_ T T 1 T ~ ! E Y T ! ! T y ) :X:X=XBXCXDXMXY.N.v.O.O.A A V } | } } | | C D A ",
"6 >.Q.(.aX).).H.| 6 9 +.!.+.6 } P.(.L.+.w 4.IX6X,Xg.T 1 < 2 < : : & : < < , T -X2XrX>XBXBXZXSXjX=.%.V A S  .A S +.} | #.#.A B B ",
"Z W.).W.1.^.hX^.1.e q X.W.,.9 e x.`.`.+.c 5XIXbX=X;X` y y & : & & : : & & y 7.4X9X2X>XBXBXAXHXMXk.%.O.A  .S S  . .} Z { ....} e ",
"..~.).J.{ 6.7XiX^...q { T.c.9 V @.'._.k.n yXVXBX;X3X-X#Xy t & & @ + @ , Q {.-X9X:X9X-XAXBXGXLX6Xn.k.+.L A A | *.X.Z { { ..X.} e ",
">.iXiX6.4 Z W.sX~.>.q | (.D.c c A '.kXb.H UXGXBXBX-X2X;X$X=X8.8.( ( ` +X2X9X;X;XcX;XoXAXNXHXIXW b.k.I P P V A $...C e { | X. .e ",
":.iXiXJ.q q J.iXiXG.B M I.Y.P c P I.I.u.m MXLXBXBX2XbX9X0X8X8X8X;X-X-X4X;X-X2XvXbX XoXAXSXFXnXK y.i.I U P P P %.+.{ B Z { X. .e ",
"X.^.pXW.Z q 2.7XfXU.V 7 V.kXb.c U u.K b K KXGXBXbXBX>XbX9X2X,X2X&X+X@X4X3X0X9X9X=X_ xXPXKXKXMXf.y.s.u.u.u.P P %.=.A V V Z  .o.Z ",
"Z W.sX^.X.4 X.^.kXuX&.c k.zXk.i U K g i s.HXCXLXJXBX=X,XbXbXvX1X3X2X-X*X4X3X0X9X8.].LXHXDXKXDX.Xr.s.i.y.y.U P &.;.L A M Z  . .A ",
"w H.pXaX1.q { W.lXY.G - i y.i i g t.a.h f.CXCXKXLXHXmXoX:X<XtX1X-X;X9X9X9X0X$X}.[.bXKXLXCXHXLX.Xw.i.i.y.y.y.u.I I I P D V | O.} ",
"3 6./.fXG.Z A K.b.i o * i g i a t.e.e.s .XLXDXSXSXGXJXbX X:XrXrX>X>X;X;X9X9X+X( ,XLXNXLXJXLXLXwXd i.i.t.r.r.J K u.K I F P P O.A ",
"3 N W.7X_.Z.$.b * u p k z g u 0.w.i.a.k nXHXLXLXPXVXGXGXeX XXX,XeXeXeXeX,X X[. XBXBXGXLXLXKXDXwXd w.w.i.t.d g s.s.J K u.I I P P ",
"5 3 o.J.(.`.'.u.j s p z z a a 0.t.a.e.s f.nXJXLXGXVXVXGXJXeX.X Xh.,X&X X=X,XQ UXPXPXLXPXHXKXKXqXa 0.w.w.a.w.q.a.e.a.r.J g K u.y.",
"r % 3 e } k.b.K y.z k k J u a w.w.e.d h i .XPXGXLXGXGXBXmXoXR l  Xg. XeXoXl ].eXPXLXLXLXHXSXFXqXs q.q.q.r.w.q.r.p.q.g g t.u.u.y.",
"3 3 3 3 7 b y.e.p.s.j u K u a i.r.a h p.p R ZXLXPXPXPXnXxXoXd.d.].h.eX XT T eX].oXxXHXKXPXSXSXqXj q.r.g q.t.r.0.a.d s y.i.u.i.u.",
"0 5 5 $ W W e.h.a.q.r.i i i s p.0.a h R z p.ZXLXHXZXmXmXnXnXnX.X].].E Q Y eXAXAXXXyXAXHXCXCXCXwXp J J g J r.r.t.0.w.e.a.r.r.t.f.",
"7 $ ; r .Xd.e.e.a.a y.y.u i j f s g h h p V.ZXLXKXAXnXmXnXZXZXh.E d.d.JXLXZXAXNXxXZXLXHXCXZXZX.Xs r.r.g g 0.0.y.g w.e.i.a h s.f.",
"9 % : T g.f.e.e.e.a u y.i j s k d d q.h j qXCXHXHXCXCXCXnXCXCXqXd.].JXJXLXLXZXNXmXZXHXmXmXCXZX.XJ t.r.0.g g g 0.0.t.e.a.0.e.a.f.",
" .$ t #Xj./ z e.e.e.* K y.s u f e.a q.r.R qXCXHXLXCXCXnXZXHXHXCXd.qXHXJXCXHXAXNXZXHXLXCXCXCXZX.Xg r.r.0.r.0.0.0.a 0.w.f.z e.a.h.",
"J.4 ^ j.j.] e.h 0.q.* s K u u s 0.g 0.r.h nXHXCXCXSXZXNXNXZXHXHXqXNXxXNXLXNXNXHXHXHXLXmXHXCXCX.Xp.w.w.0.0.0.0.d a t.p.e.f z z h.",
"J.! ] j.j.] x h d f u u g u u d d d f e.0.xXCXHXHXKXSXNXUXZXKXHXNXxXd..XHXKXSXNXLXHXLXZXHXCXHX.Xe.w.0.0.w.0.0.d a r.r.e.z z e.h.",
"K.B.j.[ j.] z J s k > * K * s f s d h h s.nXCXJXHXLXHXNXUXNXIXLXxXKXSXPXKXNXNXHXHXHXHXNXHXCXZX.Xh 0.d g f f f s a p.J R p l / h.",
"K.OX[ j.j.j.Y i k k k + j * s s j k j R d.CXZXCXHXHXIXnXUXUXIXPXoXCXCXSXKXNXZXKXLXHXCXNXCXZXmXwXJ h f h f f j s s K p m p z h.j.",
"K.].7.9.#Xj.d.l > p > > : > i k p p j R .XCXmXHXHXPXPXIXNXNXPXKX].NXLXLXLXNXNXGXKXLXPXNXHXHXZXxXj j p p p p p p K R p Y l E h.g.",
"VXGXVXVXBXAXJXAXHXKXHXLXLXLXKXKXLXKXKXHXHXLXLXLXJXLXLXLXLXKXKXLXKXLXLXPXLXLXLXLXGXLXHXLXLXKXKXCXKXKXLXLXJXJXJXJXPXDXDXKXAXJXAXAX",
"JXLXGXVXPXBXJXJXLXKXLXGXGXLXKXKXKXLXLXLXLXPXLXJXLXLXLXLXLXLXLXLXHXLXLXLXLXLXGXPXLXLXLXLXLXLXLXLXKXKXLXLXLXJXLXLXKXKXKXKXAXJXBXAX",
"JXLXVXGXGXBXJXJXLXKXGXGXGXGXKXKXKXKXPXLXLXPXLXGXLXLXLXLXLXLXKXLXLXLXLXGXGXKXGXGXGXLXLXLXLXLXLXKXKXKXLXLXLXJXJXLXLXDXKXLXAXJXAXAX"
};
