/* XPM */
static char *f830407106804fb1f0b62f32c93df2e88Bq0O4GQKXkgnEVC[] = {
/* columns rows colors chars-per-pixel */
"64 64 256 2 ",
"   c #060A0A",
".  c #090C12",
"X  c #130E17",
"o  c #0B1415",
"O  c #161518",
"+  c #0F100A",
"@  c #251715",
"#  c #2D1213",
"$  c #043119",
"%  c #1A1824",
"&  c #2C1B21",
"*  c #063A25",
"=  c #172E2F",
"-  c #382726",
";  c #282A34",
":  c #2E2D32",
">  c #30231B",
",  c #493637",
"<  c #583835",
"1  c #4D2E2A",
"2  c #693732",
"3  c #532419",
"4  c #00471D",
"5  c #004B24",
"6  c #044729",
"7  c #01542C",
"8  c #01592B",
"9  c #094C35",
"0  c #015B33",
"q  c #015C3B",
"w  c #065635",
"e  c #13543C",
"r  c #164732",
"t  c #2D453F",
"y  c #016335",
"u  c #01683A",
"i  c #00763A",
"p  c #046A30",
"a  c #734638",
"s  c #4C4339",
"d  c #383A46",
"f  c #2C3742",
"g  c #4A3842",
"h  c #0C5C44",
"j  c #195B47",
"k  c #174745",
"l  c #294B4B",
"z  c #335553",
"x  c #026D42",
"c  c #076847",
"v  c #16674A",
"b  c #017344",
"n  c #02754A",
"m  c #027B4C",
"M  c #08784A",
"N  c #13764B",
"B  c #186A53",
"V  c #087B53",
"C  c #167857",
"Z  c #0F6D53",
"A  c #25775B",
"S  c #2E6A59",
"D  c #287B65",
"F  c #387767",
"G  c #3B6B67",
"H  c #2B6E62",
"J  c #474A58",
"K  c #524C51",
"L  c #684847",
"P  c #785656",
"I  c #6E5150",
"U  c #4D6B5B",
"Y  c #78675B",
"T  c #6B6157",
"R  c #565868",
"E  c #50556B",
"W  c #665B6A",
"Q  c #5D6576",
"!  c #4C726E",
"~  c #686778",
"^  c #706E71",
"/  c #844D3B",
"(  c #8B564A",
")  c #865956",
"_  c #965C58",
"`  c #875044",
"'  c #986759",
"]  c #89675B",
"[  c #A26B5D",
"{  c #8A6865",
"}  c #996866",
"|  c #9A7368",
" . c #937475",
".. c #A56B66",
"X. c #A6756A",
"o. c #A87877",
"O. c #B67A78",
"+. c #AF766D",
"@. c #895C63",
"#. c #C27B75",
"$. c #00814D",
"%. c #008548",
"&. c #038453",
"*. c #088758",
"=. c #16865A",
"-. c #07945A",
";. c #14965C",
":. c #25865C",
">. c #188864",
",. c #0B9764",
"<. c #189866",
"1. c #109169",
"2. c #278866",
"3. c #358768",
"4. c #26986B",
"5. c #388773",
"6. c #289A74",
"7. c #389877",
"8. c #359270",
"9. c #0BA567",
"0. c #16A66B",
"q. c #1AA774",
"w. c #1AB679",
"e. c #0CB070",
"r. c #25A777",
"t. c #35AA7B",
"y. c #29B57B",
"u. c #2EA874",
"i. c #00A35F",
"p. c #4B8D78",
"a. c #6E8C75",
"s. c #55A77E",
"d. c #24C27B",
"f. c #958579",
"g. c #A78379",
"h. c #B7847A",
"j. c #A3806D",
"k. c #C2887C",
"l. c #6B6D86",
"z. c #687683",
"x. c #787688",
"c. c #787994",
"v. c #746F8A",
"b. c #7F7FA1",
"n. c #857987",
"m. c #897D94",
"M. c #B07D83",
"N. c #36A984",
"B. c #29B885",
"V. c #35B887",
"C. c #2BAF85",
"Z. c #519585",
"A. c #7C8497",
"S. c #708E8E",
"D. c #44B887",
"F. c #46B691",
"G. c #4EAD8C",
"H. c #6AAC97",
"J. c #6DB4A3",
"K. c #7E88A1",
"L. c #2AC58A",
"P. c #37C68A",
"I. c #3AC997",
"U. c #35D094",
"Y. c #33D59D",
"T. c #48C995",
"R. c #48D59A",
"E. c #56D49D",
"W. c #54C796",
"Q. c #56C9A3",
"!. c #48DBA3",
"~. c #57D8A7",
"^. c #53D8AD",
"/. c #6DD3AD",
"(. c #49E4A4",
"). c #57E5AA",
"_. c #5BEAB3",
"`. c #59F5B1",
"'. c #68E9B6",
"]. c #67F7BA",
"[. c #75F4BC",
"{. c #6EE8B3",
"}. c #66C79F",
"|. c #6AFCC4",
" X c #73FDC4",
".X c #7BFDC5",
"XX c #7CFFCC",
"oX c #76F8C6",
"OX c #7CFFD2",
"+X c #72E9C3",
"@X c #5FFDC2",
"#X c #878799",
"$X c #8F8E90",
"%X c #AD8A88",
"&X c #B88885",
"*X c #B4958F",
"=X c #8DAD92",
"-X c #8B8AA5",
";X c #928CA6",
":X c #8B96A7",
">X c #9697A8",
",X c #9A99B4",
"<X c #8E93B0",
"1X c #A49CB1",
"2X c #98B7B8",
"3X c #8EABAD",
"4X c #A6A7B9",
"5X c #AFA9B3",
"6X c #B5A897",
"7X c #C78A88",
"8X c #C9938B",
"9X c #C99896",
"0X c #D59A98",
"qX c #D28D8D",
"wX c #C9A49B",
"eX c #D8A19B",
"rX c #D69FA2",
"tX c #CBAAA6",
"yX c #D7A7A7",
"uX c #D6B4B4",
"iX c #E7A8A8",
"pX c #EFB2B4",
"aX c #E7989A",
"sX c #93CCBC",
"dX c #A1CEB4",
"fX c #A9A9C3",
"gX c #ACB6C5",
"hX c #B6B6C7",
"jX c #BBBAD1",
"kX c #B2ADC6",
"lX c #A99FC1",
"zX c #C3B8CF",
"xX c #F2BDC1",
"cX c #93CFC2",
"vX c #A5C8C8",
"bX c #B3CDCF",
"nX c #82FECC",
"mX c #88FBC8",
"MX c #83FFD3",
"NX c #89FFD6",
"BX c #97FDD8",
"VX c #95EBC8",
"CX c #A6FCDA",
"ZX c #A9EACF",
"AX c #95FFE1",
"SX c #AAFFE4",
"DX c #F5C7C8",
"FX c #D6FCF4",
"GX c #ECFFFC",
"HX c #E7FEF7",
"JX c #FCF6FC",
"KX c #F4FEFC",
"LX c #FDFDFD",
"PX c #F7F7F7",
"IX c #EEF2F1",
"UX c #C9D0DA",
/* pixels */
"HXKXLXJXPXLXIXKXHXGXPXPXLXPXIXKXKXKXKXKXKXKXLXLXLXLXLXLXJXLXLXLXLXLXKXLXLXLXLXLXLXLXLXLXLXLXLXLXLXLXLXLXLXLXLXLXKXGXKXLXLXLXJXJX",
"GXKXLXJXLXLXLXPXHXKXLXLXLXPXKXPXKXKXKXLXKXLXLXLXLXLXLXLXLXLXLXLXKXLXLXLXLXLXLXPXLXLXLXLXLXLXLXLXLXPXJXLXLXLXLXLXKXKXKXKXLXJXJXJX",
"PXPXJXPXPXPXPXPXLXLXIXPXLXLXPXLXLXLXLXLXLXLXJXJXLXJXLXLXLXLXJXJXLXLXLXLXLXLXLXPXJXLXKXKXLXLXLXLXLXPXLXJXKXIXLXLXLXKXHXKXJXJXJXLX",
"HXFXKXKXPXPXPXPXHXKXPXKXHXHXHXHXLXLXLXLXLXKXKXLXKXKXKXKXGXKXKXGXHXHXGXGXHXHXKXKXGXGXKXGXHXHXGXGXHXGXKXLXHXHXGXHXGXHXFXHXKXKXKXGX",
"{.4.N W.ZXmXs.8 5 p.}.F.t.D.G.s.r r r = r e j j j v j j e j S p.cXVXSXVXJ.3.A B D D Z.Z.2.Z A 8.V.4.B A y.~.F.2.x q.Y.Y.:.v c M ",
"mXd.0.R.mXmXu.8 5 M N.T.V.B.q.&.w 6 6 6 w j B B C A D C v Z 3.7.Q./.AXSX{.8.C >.V D C.N.1.V V q.B.0.V m B.`._.q.&.B.Y.L.-.x b $.",
"mX).d.(.[.{.:.4 5 4 0 *.,.<.-.x w 9 6 9 e v B C C D 2.D B B S F 6.N./.AX+XG.D >.C C.N.V.r.*.*.e.B.q.=.V ,.L.!.T.B.L.L.e.*.M &.$.",
"[.mXmX].].T.p 4 $ 4 y 8 i V.~.N.q w 9 w j B B D j S F F F S S G B k F J.cXJ.5.D H N.N.V.C.1.,.,.B.q.=.V %.e.T.~.I.P.L.9.&.b $.m ",
"E.).].`.d.;.8 4 4 5 4 u V. XOX/.A e e r e F G S j z G = = = =   . o = k f z ! F 5.F Z.N.N.6.1.0.y.0.=.$.&.*.;.y.B.B.L.e.<.&.&.$.",
"i ;.d.R.T.d.=.p 5 5 p u.).nXNX{.8.e e e e ! ! G l l = o + + O X   . ; l f ; f l ! G Z.G.F.V.y.r.t.4.;.*.*.m -.y._.`.|.].R.6.&.m ",
"p ;.d.].`.mXE.p.8 4 i G.~.'.MXoXD.c q h c F p.G z z .   X + O O   . % : J f % % k H D N.N.V.B.V.V.u.;.:.=.%.4.~. X XXXAX.XT.4.M ",
"p R.[.`.R.[.nX/.:.5 7 :.4.N.+XMXQ.V 0 c h S ! S G J . o % O O X . % X % E E J ; k k H Z.6.V.T.^.{.W.t.u.=.=.P.mXXX).T.XXNX[.t.=.",
"p `.mXd.-.U.XX[.D.u 4 w y :.'.MX{.2.h v h S ! z J R o X O O +   X X X X W W J d ; k S F G./.+XNXMXnX[.D.4.;.T.nXXX(.9.(.NXNXT.;.",
"-.[.mXD.p 0. XnXE.:.5 5 5 N ~.XX{.D.x B j l z J K J O X X + O + X X % ; W E E E J l l H J.AXSXNXnXBXBX{.y.0.T.nX.XR.i.U.XXNX{.0.",
"-.[.[.R.i m ).XX{.p.w 8 7 u T.[.mXW.C B S l z E J d % X O O O o o . = f E g l.W l.E z H H.BXCX{.~.nXCXmXR.y.T.nXXX).i.d.[.BX[.y.",
"N {.mX{.m p P..XmXt.w r w 0 u.[.nX~.D B H l J Q g % O X = o o o o . % % g d E E E l.z.H S.SXCX/.E.[.CXCX).y.T.MXBX`.e.e.{.mXnXy.",
"y }.NX`.9.i 0.[..XD.p w 5 y >.[.XX.XQ.Z.F z E J ; O   + @ O O O o   % O   + & R J ~ z.p.! FXCX{.y.E.BXCX[.T.u.[.NX].V.0.E.BXXXL.",
"8 G..X].d.i ;.[.mXD.y 7 e A V.XXXXNX+XJ.Z.G f % & @ + + + + X % = o + @ # X # & J ~ z.Q T UXCX[.T.E.mXBXmXW.0.`.OXXXE.u.W.MX|.L.",
"4 8.{..X(.-.;.].mXD.y 7 p 3.T.'.]._.F.8.H E = % + @ > - - - - @ @ & - , 1 @ # # : z ~ ^ ^ ZXSX[.T.T.mXmXmXE.0.U.OXOX|.T.'.NX].w.",
"$ e T.mX[.R.T.mX{.6.y 7 7 B u.V.L.w.C.5.5.G ; f : a Y Y ] P I < K {  .%X{ 1 < , , ; J S.a.bXBXMXR.T.[.BXmXW.9.w.). XMXoX.XXX(.9.",
"$ 6 :.~.mX[.{.[.t.b 8 0 9 9 V C.L.L.Q.J.z.k f n.*X6X*X%Xo.o.o...M.&X9XyXyX%X%Xo.n.g f R ^ sXBXNX`.).oXBXnXT.-.,.d.).XX.X'.R.w.-.",
"6 * 7 =.t.R.D.u.=.8 8 0 q h 1.C.!.P.Q./.F = g 1XuXuXtX&X .X.O.+.o.o.M.rXuXyXxXzX%XR f : Q dXAXAXnX[.XXBX[.V.,.-.9.q.V.E.~.R.e.-.",
"* * * 7 u $.=.i M c c 0 h h C.^.L.*.4./.S.: L %XtXyX9Xh.......+.7XM.0XrXrXtXyXxX .W : : U 3X+XOXNXOXXXXX~.r.;.-.-.-.,.P.[.].I.-.",
"* * 6 6 8 u =.:.2.2.=.7 0 c N._.I.*.C Z.U O I 9XuXyX*Xg.X...[ +... .qXrXyXuXtXpXn.T , : K ~ G.+XXX|.|.~.y.,.-.-.&.<.P._.MXMX(.9.",
"* 6 * * n =.M x N 8.6.M h c C.+X^.V B Z.t 1 X.&X9X0XyX&Xg.| h.[ M.M.wXxXtXtXuXuX%XY g : , ^ 5.V.V.V.I.C.,.,.1.*.&.q.~.|.XXMX|.q.",
"* * * 6 N =.M 0 q :.4.C c c N.+X^.>.j U s < | ' I } g.*Xh.h.[ h.&X0XuXtX%Xf.*XuXwX%X< @ & a.5.6.C.C.^.I.q.,.,.*.*.<.V.R._.OX Xy.",
"$ * * * b =.M 5 5 N 1.=.c h 2.^.}.t.S U Y < X.' a 3 < a j.| +.+.o.j.| a L P P j.wXwXa < P $XZ.=.1.C.Y.!.q.&.V V &.V -.9.L.|. XV.",
"6 6 = * b ;.=.p 7 c 1.<.Z h C Q.'.G.3.U 6Xa h.X...2 # # < ' h.h.X.P < 1 s $X| wXwX8X) ( yX5XS.2.1.C.V.I.C.&.n V M b n $.9._. XT.",
"0 6 * r b 4.4.i 8 u <.r.=.q C V.+X/.3.U wX( k.[ } ) 1 { # h.#.7X0X@.2 < > Y P o.eXk.X.h.pX5XS.6.C.C.C.I.B.1.V C C m m $.,.).nX'.",
"x 5 $ r i 9.4.M 7 0 *.y.2.c c 4.^.OXH.=Xf.' k.h.O.} L n.3 7X7X#.aX_ 2 ) L %X&X0X0XaX+.k.iXtXZ.>.>.1.C.I.I.6.V Z N n &.&.-.R.nX[.",
"V 7 * 6 y -.<.=.0 8 $.r.=.h x V C.+X/.=XT j.k.k.9X .@.P ) M.0X#.iX#.@.@.{ *X0X0XqXaXO.0XqXtX5.D V 1.1.C.!.C.C Z V x $.$.%.B.+XmX",
"<.y * 6 8 $.4.4.c y &.r.=.y h n C 1.H.Z.f.j.iXk.+.X.M.o.9X7XqXqXaXiXqX} M.M.9XiXpXqXk.7X&X6Xz.>.D 1.1.C.Y.C.*.V C n m &.%.B.oXMX",
"U.p 8 r 4 w =.8.;.m <.>.c c c c c N i u.=Xh.pXk.#.X.h.| 0XaXqXaXpXiXrX7X&X9XpXpXpXpX7X7XuXS.p.A C *.*.C.I.B.1.m n V m n <.). X X",
"(.%.8 5 4 e u &.>.$.&.=.y q q h h M ;.D.=Xj.pXaX#.h.[ h.9X#.qXqXaXiXrX9X8XyXxXpXpXqXqXM.6Xz p.3.2.>.V 1.I.I.C.*.V m x m <.I.Y.(.",
"].U.8.p 6 5 8 u m -.1.=.C c q h c Z D.mXVXf.h.k.+.( a | *X7X0XaXxXxX0Xo.| 8XeXpXpXO.9Xf.5XS s.M >.C *.q.I.Y.C.q.*.n x n *.,.e.B.",
"|.`.D.N 7 5 4 u $.q.V.V.F.>.n c B A E.mXZXdXj.' ( 3 a g.*XyX9XpXDXxXrXO.( ) O.8X7X7Xo.- + 7 3.:.C C >.6.V.V.q.<.V m n n b $.e.Y.",
"(.U.;.p 8 8 7 b y.R.P.T.+XQ.1.c v A t.t.sXdXT ] 3 3 ] wX*X9X&XyXpXpXpX0X| / ' O.+.9Xg.@ . D D 1.C >.=.<.<.<.&.&.n n b b m 9.U.].",
"(.U.t.=.y 8 8 *.!.!.,.,.^.|.F.V 8 v N m W.ZXa.Y a P ] h.M.} M.M.&X7X0X9X} I _ #.7Xg.Y @ e G.V V C C C *.*.&.&.*.&.m b b &.r.Y.(.",
").].[.E.:.8 0 q.).!.&.u C._._.6.q h x i y.mXa.a.] | Y ] M.} M.} M.&X9Xh.' _ +.h.+.o.f.S.Z.7.Z V V N V $.-.&.&.-.;.V b b m ,.0.q.",
"(.`.nXnXT.b u ,._.).-.p 9.!.+XN.c 0 u x i.].=Xa.f.g.%X] qXiXrX*XuXpXuX7X..O.k.h.&X| T =X! C C.V V &.$.*.,.&.$.$.;.*.m n n n m *.",
"i.9.].BX{.<.p <._.^.9.u $.I.|.V.N 0 q M $.~.VX=X .*X%X9XO.qXxXxXxXM.9XiX&XO.8Xh.X.o.T a.H.N.c V *.V n &.,.$.m m *.=.m b n n b m ",
"-.%.U.XX[.V.i $._._.B.i i B.+XQ.Z 9 0 q b R.VXdX . .g.8XaXqX7XrX9XrXuXiX0X8Xk.[ ' g.L ! J.Z.D V n n *.1.<.$.n n &.>.=.n b x x n ",
";.p 0. XMXE.m u T.].Y.m u q._.Q.C j j Z ;.E.CXUX$Xo.7XO.7XO._ } M.rXyX9XeX8X+.' X.wXT t 3XH.D c C Z *.V >.V V V m 1.=.M b b b b ",
"y.i %.].OX'.-.y 6.'._.9.m q._.Q.B h 6 A s.{.=Xa. .} 7X7Xo.O..._ M.9XqX9XeXk.[ +.h.tXY : 3XvXZ.Z.Z Z D Z 2.C c n n =.*.b b N M x ",
"E.%.i (.OX].>.y *.E.'.I.q.C.Q.F.e S G p.F F e U I { ..rXtXh.+.k.M.9XrXiX7X..[ h.8XwX .; 3XbXS.Z.2XH.Z.H 5.D C c Z >.=.n b b b b ",
"{.;.i U.XX[.;.0 q r.R.!.I.V.T.7.G S.S.S.l o = =X, M._ M.wXh.X.k.rXyXrX7X_ _ +.8XwXwXM.- >X5XE E z.2XvXvX2XZ.D B c =.=.n b u i =.",
"mXT.-.(.|.'.V 8 5 x 1.V.I.I.F.5.H.#X^ R T = t $X> ) [ ( ] f.[ +.M.M.M._ _ ..7XqXwX9XY < uXzXx.v.l.K.l.K.vXbX3XF C C M b x i b =.",
"mX[.U.]. XE.x 0 w 7 y 6.F.G.p.S z.x.x.^ 1XK z $X, 3 h.j.< s / 2 2 2 1 a O.0X0X0XeX8X< , 5XzX1X;Xv.fXz.K.S.:XvXcXZ.5.h x M b p i ",
"`.`.`.`.(.;.8 0 e w S S.J.a.E J ;X5Xx.R 1XK R >XK + } X.j.' a 3 3 a ..k.9X0XeXeXaXn.1 W 5XfXgXA.:X~ gX4XlX<Xl.l.3X2XF h c y y M ",
"i.d.d.U.y.=.0 w e S a.:X:X#X#XhX;X4Xx.R 4Xx.^ >XT , - o.h.+.k.' ' [ h.8X7X8X0XwXM.} # W UX:X:XQ Q 3XUX>XlXjXm.l.A.K.sXp.v c =.8 ",
"p i d.).Q.6.Z B Z.J.2XvXfX#X#X4X4X1Xm.E 4X>X#X5X$XI # L } ( [ / ' [ h.k.k.h.&X&XM.L & n.UXm.c.Q S.gXgX-XlXjXb.l.,XK.H.vX2Xe v e ",
"p ;.R.mXBX}.p.S.2XgX4X4XhX:Xc.;XjXfXm.J :X4X#X4Xn.K , # ) ' ' ' a / [ k.h.g.| | @.# L $XzX,X#Xc.fXgX#X<XlXlXb.c.<XgXfXK.=XdXp.S ",
"i E.NXNXCXcXJ.bX2XgX3X,XfX-XA.,XjXkX,XJ c.4X:X4X#X^  .X 1 ) I ( ` ( ' [ X.| | ] g # ^ 1X4X;X:X4XjXfXb.<X<XfXb.E ,XkXc.4X2X4X2X$X",
"V }./.cXZXcXJ.vXgXgX,X,XfXK.c.<XjXkX,XE z.4X>X4Xm.$Xn.1 # L P ) ( ( ' [ ] | ] I # K ^ 5XjX;X>XhXgX<XK.,X<XlXb.E ,X1X,Xn.hXhX>XgX",
"B A Z.cXbX2XK.fXjX,X-X,XgX<Xc.K.jXkX;XW l.4X4X,Xm.m.;X^ - , L < a / ( ' ] | Y , - $Xn.hXzX>X;XfXfXc.-XlX,Xb.c.J ;XjX;Xl.zXkX5X5X",
"* k Z.vX2X<XgXgXUX,X-X,X,Xb.A.K.zXjX-XQ v.4X,X#Xf % $X^ R L W I I ( ( ` {  .Y : ^ n.#XzX4XfXm.<X-Xc.,X<X-Xl.l.l.<XkX,X;Xm.zXzX5X",
"* ! vXvXbXkXm.kXzX1Xm.m.lXc.b.-XzXhX#X#XkX,XA.1Xf   % W $X^ W { P ( @.@.P Y ^ n.^ x.z Q 1X;X-X,Xm.m.lXm.c.c.E l.b.lXfX:X,XjXzX4X",
"= S.bXgXhXhX;Xn.lXm.~ ~ v.l.l.v.#X;Xn.v.#X#XA.4XQ ~ J % % K n.$X@.) @.P g m.1Xl.A.:Xv.;XfXm.v.c.m.m.,Xc.l.l.E l.K.<X<X-X4XkX5X4X",
"z jXUXbX5XzX5Xv.n.m.~ ~ J R Q A.>X>X;X#X#X$X>X5X1X#Xx.^ K - g ^  . .I K ^ $X$Xm.#X>XA.4XkX-Xc.W m.m.n.R E E z E l.z.S.:XvX5X4X>X",
"x.hX5XhX5X5X5X#X~ m.m.$X~ x.x.,X5X5X>X>X;X>X>X>X5X:X$X1X#XW W n.n.Y g W m.n.W #X:X-X#X,XfX<X-Xl.m.m.v.R E E J E J E z.S.>X:XA.x.",
"LXLXLXLXLXLXLXLXIXLXPXPXLXLXLXLXLXLXLXLXKXLXLXKXKXLXKXJXKXJXLXLXLXJXJXJXJXLXLXJXLXLXLXLXKXGXLXLXJXJXJXJXLXLXPXLXKXLXKXPXLXLXLXKX",
"LXPXLXLXKXLXPXLXLXLXLXPXLXLXLXLXJXLXLXLXLXLXLXLXLXLXLXJXLXJXJXJXJXLXLXLXJXJXLXJXLXLXLXLXKXLXLXKXIXJXJXJXLXLXLXLXLXLXLXPXPXLXLXLX",
"LXJXLXLXKXLXKXKXLXKXLXPXLXIXJXLXLXLXLXLXJXKXKXLXPXLXLXJXJXLXLXLXLXLXKXKXLXJXPXJXLXJXPXPXJXLXPXPXKXLXKXJXLXLXLXLXPXLXLXLXLXLXLXLX",
"LXJXLXLXKXKXLXKXKXLXPXLXLXLXJXLXLXLXJXLXLXLXLXLXLXLXLXLXLXJXJXLXLXIXLXLXPXLXLXPXLXLXLXLXLXKXKXKXLXLXKXKXLXLXLXLXLXLXJXJXLXLXJXLX"
};
