/* XPM */
static char *_9c3b70592e748c7d380fb81692b63cecFhHm1l4tch57LTc[] = {
/* columns rows colors chars-per-pixel */
"64 64 247 2 ",
"   c #040501",
".  c #060803",
"X  c #0A0A05",
"o  c #0D0E0B",
"O  c #0D0603",
"+  c #140A05",
"@  c #170D08",
"#  c #0E100C",
"$  c #12120D",
"%  c #1A120C",
"&  c #111207",
"*  c #121211",
"=  c #1B1713",
"-  c #0E1011",
";  c #2B0E0B",
":  c #29130C",
">  c #3A160C",
",  c #281A16",
"<  c #381A16",
"1  c #360D0F",
"2  c #27221A",
"3  c #34231C",
"4  c #3A221D",
"5  c #36261C",
"6  c #2A2823",
"7  c #3D2522",
"8  c #382724",
"9  c #3A332A",
"0  c #383732",
"q  c #461A19",
"w  c #4C1010",
"e  c #48261C",
"r  c #542A1C",
"t  c #442925",
"y  c #472924",
"u  c #562926",
"i  c #4D322D",
"p  c #49352A",
"a  c #54332A",
"s  c #5C342B",
"d  c #593527",
"f  c #4A3731",
"g  c #5B3B32",
"h  c #573935",
"j  c #5C2E30",
"k  c #642928",
"l  c #65392C",
"z  c #77382B",
"x  c #633B33",
"c  c #693A37",
"v  c #763C38",
"b  c #612F32",
"n  c #63221D",
"m  c #4A443C",
"M  c #5C4539",
"N  c #6A4433",
"B  c #6C453D",
"V  c #6D493B",
"C  c #674738",
"Z  c #734D35",
"A  c #734D3B",
"S  c #794939",
"D  c #755136",
"F  c #76513B",
"G  c #7A523C",
"H  c #6C402E",
"J  c #5A4942",
"K  c #515048",
"L  c #784A44",
"P  c #695548",
"I  c #7A5343",
"U  c #795449",
"Y  c #685A54",
"T  c #735C54",
"R  c #684A43",
"E  c #77675A",
"W  c #696259",
"Q  c #746C64",
"!  c #78746B",
"~  c #7C7973",
"^  c #6A6861",
"/  c #85392F",
"(  c #8C4C3B",
")  c #844A3A",
"_  c #924D3E",
"`  c #83533C",
"'  c #8B533E",
"]  c #854C46",
"[  c #994F43",
"{  c #835543",
"}  c #8B5443",
"|  c #8C5A44",
" . c #845A4B",
".. c #8C5A4B",
"X. c #865649",
"o. c #945343",
"O. c #995545",
"+. c #925B46",
"@. c #945D4A",
"#. c #9D5B4B",
"$. c #995749",
"%. c #8A5A53",
"&. c #955C55",
"*. c #8E4F57",
"=. c #A05D4D",
"-. c #A75D54",
";. c #94624C",
":. c #9A634E",
">. c #8A6456",
",. c #9B6552",
"<. c #9D6A54",
"1. c #9C6B5A",
"2. c #966457",
"3. c #946B55",
"4. c #A46353",
"5. c #A96556",
"6. c #A26C56",
"7. c #A36C5A",
"8. c #AC6B5A",
"9. c #A56859",
"0. c #B16D5D",
"q. c #A4725C",
"w. c #AA745E",
"e. c #AD6C56",
"r. c #9B6861",
"t. c #85746D",
"y. c #8E756D",
"u. c #A66C65",
"i. c #AB7463",
"p. c #A97667",
"a. c #B47363",
"s. c #B97565",
"d. c #BC7B65",
"f. c #B37B6B",
"g. c #BC7B6A",
"h. c #B57967",
"j. c #B77C72",
"k. c #AF746E",
"l. c #C17D6B",
"z. c #C27C76",
"x. c #88857C",
"c. c #98877B",
"v. c #BB836E",
"b. c #B3826D",
"n. c #BA8475",
"m. c #AD8E7C",
"M. c #C5836D",
"N. c #C58373",
"B. c #C98574",
"V. c #C48C75",
"C. c #CC8B75",
"Z. c #CC8C7A",
"A. c #C6887C",
"S. c #D28E7C",
"D. c #D28D76",
"F. c #CC937C",
"G. c #C8947B",
"H. c #D4937D",
"J. c #D9957E",
"K. c #D6967B",
"L. c #E0987F",
"P. c #D57F82",
"I. c #8B8982",
"U. c #948C84",
"Y. c #94928B",
"T. c #9B958B",
"R. c #9D9892",
"E. c #A59388",
"W. c #B99987",
"Q. c #A49C93",
"!. c #A39C96",
"~. c #B2908B",
"^. c #A4A49C",
"/. c #AAA399",
"(. c #B8A798",
"). c #ACADA5",
"_. c #A7A8A2",
"`. c #B5ACA4",
"'. c #AEB1A8",
"]. c #B3B3AB",
"[. c #B9B3A8",
"{. c #B9BAB2",
"}. c #9FA196",
"|. c #CA8A80",
" X c #D28B85",
".X c #CC9483",
"XX c #C99A86",
"oX c #D49482",
"OX c #DA9683",
"+X c #D49A84",
"@X c #DB9A84",
"#X c #D39D8A",
"$X c #DD9C89",
"%X c #D99689",
"&X c #C99D95",
"*X c #E19D8B",
"=X c #E19B85",
"-X c #E79D91",
";X c #EA9492",
":X c #CCA18D",
">X c #DDA28C",
",X c #D8A68D",
"<X c #DCA895",
"1X c #C8A598",
"2X c #E2A186",
"3X c #E3A28D",
"4X c #E4A58F",
"5X c #E5A491",
"6X c #E9A593",
"7X c #E3AA94",
"8X c #EBAA96",
"9X c #EDAC9A",
"0X c #E7A99A",
"qX c #F1AE9B",
"wX c #EAB19E",
"eX c #F3B19E",
"rX c #C5B6AD",
"tX c #C6BCB4",
"yX c #D6ADAA",
"uX c #EDB5A2",
"iX c #F5BDAA",
"pX c #F6B8A6",
"aX c #E5B6AE",
"sX c #CAC3BA",
"dX c #D4C4BC",
"fX c #F3C1B7",
"gX c #D6CCC3",
"hX c #DAD5CB",
"jX c #DCDDD5",
"kX c #D9DDD5",
"lX c #CAC6C3",
"zX c #E3DED4",
"xX c #E8DDD6",
"cX c #E3D3CA",
"vX c #DEE1D8",
"bX c #E4E4DB",
"nX c #EAE6DC",
"mX c #E7E7DB",
"MX c #E6EBE2",
"NX c #ECECE3",
"BX c #EAE7E0",
"VX c #F2EDE5",
"CX c #F5EFE9",
"ZX c #EFF0E7",
"AX c #F4F3EB",
"SX c #F9F4EA",
"DX c #FCFAF3",
/* pixels */
"'.'.].].].].].].{.{.{.{.{.{.{.{.{.rX(.(.W.W.:X:X:XK.G.G.v.v.b.b.b.b.b.b.q.<.<.<.1.3.1.3.t.E.sXsXsX{.[.[.`././././.Q.Q./.Q.Q./.Q.",
"_.).).).).).).'.].].].].].].].{.`.(.m.W.W.m.G.:XG.G.V.v.b.w.b.q.q.b.b.q.<.;.;.| | | | |  .>.c.sX].`.(./././.Q.Q.Q.E.T.T.T.Q././.",
"_.).).).).'.].'.].].].{.].[.{.`.(.m.W.XX:X:XK.K.G.G.G.v.b.e.b.w.q.w.q.q.<.;.+.+.| | | |  . .3.T.)./.^.T.T.T.Q.Q././.{.rXsXdXdXsX",
"^.)._.).).'.'.'.].].].].].[.[.(.W.XX+X#X,XK.:XK.K.G.G.v.b.w.<.6.6.6.6.6.<.| | | | { ` { G |  .>.E.(.T.Y./.{.dXcXhXgXsX/.x.c.T.x.",
"^.).).).).).].'.].].].].].[.(.:XXXXXK.,X,XoXF.F.G.G.V.V.h.q.q.<.<.<.<.<.;.| | | ` ` ` ` { {  . .3.gXzXhXhXsX[./.c.c.c.c.Y.sXzXdX",
"^.).).).).).'.'.].].{.].[.(.W.:XG.K.+XK.K.F.G.F.F.G.F.V.b.w.q.6.<.<.<.<.+.| | ` ` ` ` D G G G I { E.(./.Q.E.(.sXhXmXSXzXhXzXsX/.",
"^.).).).'.'.'.].].'.[.[.[.(.G.G.+X.XoXH.F.F.C.F.F.F.F.V.b.w.6.<.<.<.;.| ` | ` ` ` D D D G D F G I I /.nXmXnXnXnXZXSXZXmXzXhXhXdX",
"^.'.'.'.'.'.].].].].'.[.(.:X:XG..XoXF.F.F.C.G.C.F.S.V.V.v.e.6.<.:.;.| | ` ` ` D G D D D D D D D I P y.tXsXsXzXnXZXZXmXmXmXzXzXsX",
"_.).).).).).`.`.(.).)./.W.XXF.+XF.K..XF.H.F.G.C.C.F.F.V.f.w.6.<.;.+.| ` ` D D S D Z Z Z D Z Z Z A U R `.DXDXDXDXSXmXmXbXzXzXbXdX",
"_.).`.^.^.^.^.!.R.T.T.T.W.&XXXF.oXoXoXK.H.D.C.C.C.F.oXV.d.i.6.<.;.+.| ` ` ` D ` D Z Z D Z Z Z Z A S B E.DXCXSXAXVXmXnXbXxXbXmXhX",
"!._.R.R.R.U.U.U.U.I.I.E.XXXXOX+X+XK.OXK.H.C.C.C.V.F.+XC.h.w.q.<.3.;.| ` ` D G G D D D D Z Z V A Z B B Q nXDXAXCXNXnXmXmXxXbXnXhX",
"x.I.I.I.I.U.T.R.^.}.R.W.:X+X$X$X>X@XOXK.H.H.C.C.Z.F.K.V.v.p.i.w.b.3.;.| ` ` D G D ` D Z Z Z Z Z Z N A R gXDXCXVXmXnXnXmXzXnXVXhX",
"x.U.U.U.Y.Y.Y.U.x.x.T.:X,X+X3X3X$X$XJ.K.H.H.C.Z.C..X+Xn.w.6.:.;.| b.1.;.| G G D D D D D A A Z V N C V B [.DXCXNXbXBXBXxXbXBXVXhX",
"t.x.x.Q ~ t.I.R.).[.:X#X,X@X3X3X$X2X>XK.K.Z.Z.Z.F.H.G.w.<.:.+.| G D  .>.>.{ G G D D D A A A Z Z Z N V B U.DXCXBXxXjXBXbXbXBXZXhX",
"t.Y.sX[.gXzXVXCXDXcX:X#X,X>X3X>X$X$X@XJ.OXoXF.H.H.G.h.e.,...G ) D Z H V I I { F D G A G G D F F Z V V B t.CXNXBXjXMXBXBXbXBXZXhX",
"MXCXSXDXSXSXNXVXVXrX:X>X3X5X3X5X2X>X>XOXoXoXH.oXK.v.i.6.#...%.>.E D H H M H F I G D A I G G I G A Z V R T xXNXjXjXvXMXMXjXMXNXkX",
"mXCXCXCXAXAXAXCXNX(.:X<X7X7X4X4X4X4X>X>XJ.K.H.OXH.n.b.i.w.p.u.1.>. .Z l d d H Z A Z Z F G I I I I L V V R tXCXxXjXMXMXBXjXMXZXhX",
"mXVXVXDXDXcXxXDXhXm.<X7X7X8X6X4X2X2X2X2X>XJ.+X>X$XH.v.h.i.7.@...%...>.I N r d s N N V C F G  .I I V C V B tXCXjXkXBXMXbXBXMXNXkX",
"bXZXAXSXyX~.~.dX1X3.<X7X7X7X7X4X2X4X2X2X>X$X*X5X7XF.i.<.&.] S S S I >.y.>.C r r d H H H C Z Z A Z N C C h rXZXjXkXvXMXBXbXNXZXkX",
"bXNXAXxXk. X Xk.3.c.<X7X7X7X6X4X4X2X2X2X3X3X3X9X>Xa.o.) S z z c l s x U >.>.A r d s d d H N N N l M l g J tXBXvXxXMXMXBXvXNXZXkX",
"MXMXAXyX*.P.qXP.;.b.7X,X,X4X7X4X5X3XOXoX*X*X5X>Xv.O.S z ( 7.q.1.X.l e e e s X.I d d r l V l s c x g g g R gXnXzXvXbXMXvXbXMXAXbX",
"MXMXAX&Xv P.pX-XV.G.,X7X4X<X<X4X5X5X$XH.>X*XoXj.4.) ) =.|.m.1.3.%.P l q > > e L N k r G 2.s s g x g g g R hXnXzXvXMXNXMXbXMXAXbX",
"vXMXCX~.v P.;XoX7X,X,X7X7X,X7X4X5X4X*X5X*XoXl.8._ z } p.k.l q > y H d e > > > s U z H p.>.r y h M M g h J gXnXzXbXMXMXbXbXMXAXbX",
"MXMXCXj.] ;X*X X7XwXwX7X7X7X7X4X5X5X5X*X$XV.i.#.) S ' 3.<Xr.> ; > p e > > > > j &.} 2.N.L > 5 e i M h i h sXnXjXvXMXbXbXbXMXAXMX",
"bXNXCX~.s.;XP.l.L.eXeXqX7X<X7X4X7X4X4X3XoXh.9.+.} ) q.n.W.p.< : 5 m e > > > > d p.k.n.u.x : ; ; , < 8 8 p rXmXvXbXMXMXMXMXMXAXbX",
"MXMXNXyXz.-.[ / l.;XqXqX8X8X7X7X7X6X3X$XZ.h.9.:.@.#.i.,Xk. .s y d d e > < > e V j..X~.&.r + + + % @ ; , 7 rXnXvXvXjXkXkXkXkXvXhX",
"mXNXNXaX[ / / z D.qXqX8XqX8X9X8X6X6X3XK.V.s.8.<.<.3.i.p.1.%.V M d p r > > e d @.A.#Xj.%.u + + + @ % , , 9 !.].^._.}.R.Y.Y.I.Y.I.",
"bXMXNXcX[ / n $.;X;XqX8X8X6X6X6X6X5X$XZ.M.a.w.9.<.q.q.3.%. .R d p r p d u x ..g.A.%Xz.2.a + + + @ , 3 8 t Y K m K 0 0 9 6 6 6 6 ",
"MXNXZXcXu.[ / 8.6X6X9X6X4X3X*X4X4X4XOXB.s.0.8.6.q.6.q.1.3. .L M a a a x U >.k.A.oX%XA.r.c @ + + + % , 3 , $ o # # & # # - # - * ",
"NXCXDXxXyXqXg.#.-XeX8X6X4X*X$X*X4X5XOXl.a.8.5.9.6.6.4.,.2. .L N g x A 2.r.p.b.Z.#X%XoXj.U ; % - + + @ = # # # - - * * # X # * - ",
"bXmXbXdX&XpX-X0.6XpX8X5X4X*X=X=X4X-XOXz.0.4.=.=.=.=.+.+.X.X.L B N ..1.p.p.u.f.A.oXOX%Xj.*.t , , = % % % o # # o - # # # . # * * ",
"Y.Y.x.! &XpXpX6X9XqX6X6X4X-X*X=X6XqX-XB.8.=.O.o.o._ ' ' ] I I I ;.q.u.i.i.i.h.A.%X%XoX~.*.i 8 8 < 3 6 % # o o # - # # # X & $ * ",
"2 2 2 # k.fXuX0X<XqX6X6X5X3X*XOX6XpX9XZ.-.=._ _ ( ( ( ` ( {  ...;.,.5.a.i.s.N.S.$X$X Xj.%.x t 8 t p 0 * - - o - o - - o O X * * ",
"& # X . f aXwX6XF.OX8X4X5X*X*X=X-XeX6XC.e.=._ ( ( ( ( ( ` ` | | +.,.8.s.l.z.%X*X5X-X%Xb.;.V h i i f f = o - o - - o o - X o * * ",
"# = I.I.K U.iXaX8.A.9X4X3X5X=X=X-XqX*Xl.5.=._ ( ( ( ' o._ o.@.O.} #.0.g.B.%X6X6X6X*X%Xj.2.L h s a i f = o - - o o - O X X X $ * ",
"X 6 jXhX~ K y.&XV.*X5X5X5X3X6X=X-X-XS.s.5.[ _ _ ( _ O.O.O.+.@.o.o.=.0.B.*X6X-X9X6X>X Xj.2.L c s y i i = o - o - o O o X X X $ * ",
"# 2 _.'.Y.Y T <X$X*X5X6X3X6X3X2X3X-XS.a.5.O._ _ _ O.$.#.#.,.#.o.o.=.s. X*XS.S.%X-X>X Xj.&.L x a r p t % # # - o o o X X X X $ * ",
"# * ~ ~ x.Q y.7X$X$X*X3X3X3X6X-X5X5XZ.a.-.[ _ _ [ =.4.4.4.8.#.O.O.=.l.%X%XB.z.B.*X-X#Xn.2.I c u y e 2 % - - o - o X X X X X # o ",
"# # ~ I.~ ~ ~.5X=X$X*X3X3X6X6X6X6X6XS.g.e.=._ _ =.4.8.8.0.8.4.=.$.=.l.$X$X XB. X*X%X|.j.r.>.U s e 5 , # - # o o o . X X X X # o ",
"# # ^ Y.Q ~ W.6X=XOX=X3X-X3X6X6X6X6X$XB.0.5.=.=.-.0.s.s.l.l.0.8.-.4.Z.9X5X Xz.P. X Xp.;.L U U C e 2 = - $ o o o o X X X X X o o ",
"# # K R.! ~ (.$X=XJ.J.=X6X6X6X8X6X*X%XS.M.s.0.5.0.s.z.S. XC.z.g.5.4.$XqXP.r.*.u.P.z.r.L b s l s 8 , % # $ X o X o . X X X X # X ",
"& & K R.W ! &X>XOXOXOX*X6X9X8XqX9X5X%XS.B.N.z.j.j.N. X*X*X*X%XA.0.=.B.N./ w w w &.P.&.c j q e t 2 % $ # # # o o X . X X X X o o ",
"& X K {.I.~ &X>XL.J.J.*X6XqXqXqX9X5X%XS.B.S.OXS. XS.%X;X-X7X%X|.l.=.$.o.k n *.u.*.z.&.b < ; 1 7 , @ $ # # o X o X . X . X X X X ",
"# . I.lX~ Y <X<XOXJ.J.=X6XeXqXqX9X3X%XZ.V.%X-X*XOX%X-X9X9X-X#Xn.f.u.] v b v u.k.L U c 4 1 < t 4 % $ $ # # X # X o X . X . X X X ",
"-   I.R.9 P yX>XJ.J.J.=X6XqXeXeX9X5X%XZ.B.*X6X-X$X$X0XwX0X#X.Xn.k.9.&.} v c v U j q < 7 t h h , * $ $ o o o X X X X X . X X X o ",
"-   ~ Y.0 Y <X*X=X=XJ.L.6XqXeXeX9X3X%XZ.Z.6X0X7X%X6XpXuX0X#X|.j.u.2...*.L b c R u 1 < 4 y J f % $ # o o o X X X X . . . . . X o ",
"X   ^ R.0 Y 7X-X2X=XL.L.4XqXeXeXeX3XK.Z.%X6X6X6X6XpXpXuX<X|.n.j.u.&.X.] S b c B y < 1 < y h 8 % $ # # o o X X X X . X . . X o o ",
"0 0 ~ _.! x.0X6X=XJ.L.L.-XqXeXuXqX3XoXH.3XeX9X7XuXiXpXaX&X|.f.u.u.&.] L L x c h q < , 8 7 i 8 % & X # o o X X X . X . X . X X o ",
"~ ~ Y.'._.~.7X6X$XS.S.OX*X6XeXeXqX>X+XH.7XpXeXeXfXiXuXwX#Xf.1.u.r.*.*.*.L L L c u 7 7 t t 7 , % # # # # o X X X . . .     . X X ",
"! x.I.]./.:X6X>XOXS.S.H.OX4XqXqX8X>X@X>XwXiXfXpXiXwX<XK.f.| ] ] *.*.c b b b b b i q 8 < t < = * % # # X X X X X . . .     . X . ",
"_.].{.R.m.>X3X=XS.B.D.S.J.*X6X6X5X>X>X>XuXiXfXfXwXG.b.b.| z n u n k n q q q q q < 1 : ; : , % $ $ $ $ X X X X X X .       . X . ",
"_.'.R.U.XXOX3XJ.D.C.B.D.S.OX=X*X3X$X@X3XeXpXpXiX:Xw.;.| | ) z k k u b j q w 1 1 1 ; ; ; 8 f * # $ # X # X X X . X .       . X . ",
").'.c.m.H.$X2XJ.D.C.C.B.B.S.OX$X>X$XOX>X9XuXuX0Xv.<.+.+.:.7.1.&.L v v c b u q q < < < , J T - * # o o X X X X X . .       . O . ",
"tX_.~.+XF.L.=XJ.D.C.B.B.B.D.S.J.$X@X@X>XwXuXuX<Xh.;.| ;.q.f.u.*.] *.*.L c b j j y q 7 8 t.t.* # $ # o o X X . X O .         . . ",
"tX~.XXK.J.2X2XJ.D.B.M.B.B.B.S.S.H.OX>X3XwXuXuX+X6.| | <.f.v.1.] v L L c b i q 7 < 4 < h `.t.% $ $ + X X X X . X . .         . . ",
"XXXXF.J.3X2X=XJ.D.M.l.l.M.l.M.S.B.Z.+X>X0XuX7XV.<.+.;.q.n.f.;.S v c u q 1 1 ; 1 < q < T E.Q = + + X O X X . . .             . o ",
"G.K.K.2X4X2X=XH.D.M.l.l.l.l.l.B.B.M.Z.OX$X0X<Xv.<.;.;.,.f.i.} S L c u 4 < < ; < < 4 t J Q Y m 2 $ O O X . . .                 . ",
"K.D.K.2X3X2X@XJ.D.M.l.l.s.l.d.s.s.s.s.N..X$X,XV.w.,.;.:.f.w...X.*.L c i y y 7 7 t 7 t i Y t.W W J 8 +   X                       ",
"V.M.K.L.3XL.@XH.D.M.l.s.d.s.0.e.5.5.8.a.l.A.+XXXb.q.<.<.f.p.7.u.r.%.U c h i i y t t t i M ! Q Y E P M , O                     . ",
"v.M.J.L.2X2X=XK.D.M.l.l.d.d.0.5.=.O.4.a.s.g.A.oXG.v.w.q.f.v.j.u.&.*.L J h h j y t 7 7 p t K E C T P P P 8 + . .             . . ",
"6.M.D.K.@X@XJ.J.D.D.l.l.d.a.e.=.o.o.=.d.g.g.g.V.%X.Xb.p.i.k.n.u.} L B h j i i t 5 5 5 8 5 9 ! M U P C V P m X .                 ",
"+.v.M.D.K.K.J.K.J.D.M.d.s.e.=.=.O.o.$.g.z.a.u.k.|.XXn.a.i.u.u.4.) B c i y y t 8 e 5 5 5 5 5 Q C U P M C C Y m %             .   ",
"' =.M.M.C.D.K.D.J.D.M.d.0.6._ _ ( ) [ s.a.&.X.] X.r.k.i.6.,.&...S b u e 4 < < 8 5 5 5 5 5 = E E P D M M M M P K 9 , X           ",
"+.:.v.M.V.oX>X>X,XK.C.M.b.w.,.;.} ) } k.k.&.X.] a h r.k.u.7.u.r.U B M i i i f f p p m 9 9 6 t.U.W E P P P E Y Y Y Y Y K 6 = = * "
};
