/* XPM */
static char *_f2305721607487c822b63d6e70c8714Gx4mFkHhvAaNx84m[] = {
/* columns rows colors chars-per-pixel */
"64 64 146 2 ",
"   c #350201",
".  c #3D0101",
"X  c #360902",
"o  c #3C0A04",
"O  c #350409",
"+  c #3D050A",
"@  c #370A0D",
"#  c #3D0A0A",
"$  c #3E0611",
"%  c #3E0911",
"&  c #420303",
"*  c #4A0303",
"=  c #440906",
"-  c #4A0905",
";  c #43050A",
":  c #4B0509",
">  c #450A09",
",  c #4A0A0C",
"<  c #500A0D",
"1  c #441005",
"2  c #43100C",
"3  c #4C0611",
"4  c #430D13",
"5  c #4B0C12",
"6  c #450E19",
"7  c #480E1A",
"8  c #520B13",
"9  c #461214",
"0  c #4A1314",
"q  c #45101A",
"w  c #4B1519",
"e  c #4C191D",
"r  c #501217",
"t  c #511419",
"y  c #481921",
"u  c #551321",
"i  c #7E6E6C",
"p  c #777166",
"a  c #787167",
"s  c #7C726B",
"d  c #797A6F",
"f  c #757473",
"g  c #7B7474",
"h  c #757B74",
"j  c #7B7A75",
"k  c #747579",
"l  c #7B767A",
"z  c #757C7A",
"x  c #7D7B7A",
"c  c #8B6C6C",
"v  c #83746E",
"b  c #856F71",
"n  c #817373",
"m  c #827773",
"M  c #807675",
"N  c #847473",
"B  c #8A7773",
"V  c #897775",
"C  c #8A7472",
"Z  c #847B72",
"A  c #807B75",
"S  c #827D77",
"D  c #837A75",
"F  c #897A75",
"G  c #8A7B76",
"H  c #8A7C77",
"J  c #837479",
"K  c #817778",
"L  c #81767A",
"P  c #80777A",
"I  c #82777B",
"U  c #86757B",
"Y  c #83767B",
"T  c #8A747D",
"R  c #817879",
"E  c #837978",
"W  c #83797A",
"Q  c #847A79",
"!  c #87787B",
"~  c #877B7B",
"^  c #807C7B",
"/  c #82797C",
"(  c #807A7C",
")  c #817B7D",
"_  c #83787E",
"`  c #817B7F",
"'  c #84797D",
"]  c #817D7C",
"[  c #837D7D",
"{  c #807F7D",
"}  c #827E7D",
"|  c #847E7E",
" . c #827C7C",
".. c #887A79",
"X. c #887E7C",
"o. c #8A7C7C",
"O. c #758174",
"+. c #7C8275",
"@. c #76817A",
"#. c #7C817A",
"$. c #7C817D",
"%. c #7C827B",
"&. c #82817D",
"*. c #80827D",
"=. c #81817D",
"-. c #737A80",
";. c #767980",
":. c #7D7C81",
">. c #817B81",
",. c #857881",
"<. c #867980",
"1. c #857A80",
"2. c #827C80",
"3. c #847D81",
"4. c #887882",
"5. c #8A7F83",
"6. c #897B82",
"7. c #6F8E86",
"8. c #778284",
"9. c #768187",
"0. c #728484",
"q. c #738585",
"w. c #748484",
"e. c #768486",
"r. c #7B8084",
"t. c #7B8485",
"y. c #748C87",
"u. c #7D8B87",
"i. c #7B8688",
"p. c #738E89",
"a. c #748F8A",
"s. c #748D89",
"d. c #7A8889",
"f. c #788D88",
"g. c #7A8C8C",
"h. c #7E8C8F",
"j. c #7B8B8B",
"k. c #7C908E",
"l. c #7B908D",
"z. c #7C9091",
"x. c #838182",
"c. c #838282",
"v. c #838987",
"b. c #818689",
"n. c #81898B",
"m. c #87908F",
/* pixels */
"& & . . & & & = x s > & & * o . & . . . & & & & & o & + [ n > . . . . & . & & . & . . & & * . X & > f +.; & & & X * & & . . . * ",
". . ; ; . . . ; -.3.# + . & . & . + ; & . . . + &   & % z l 6 . & . . . & . & . + . . + . . . . . 6 l k 4 &   ;   & . + & =   & ",
"o . & . . o o > h Z X . & * . . o & . . . & o & . . & & j D # & & . & . & . . & . . . o & . & . & O Z v + & . . . & & X . . . & ",
"o > , > - + X , ! v 9 = + , # , o , , > > X X : > > & 0 F V 9 . ; > = > = ; = = # = = = o o , > . 9 B H 9 = # > o + o > , , > o ",
"j ! k k ' x x 6.e.d.R R ' ,.z l x U l k ' =.k ,.l l x l e.r.2.x.x Q x x x x x x z ,.' ! Q x l l c.,.e.0.l ,.l K ' j Q x k l ' x ",
"j g f.a.l M z K :.f X.j f K z x D g z.p.g ~ h R ~ j @.#.x g ' h z x j j x j #.x 0.b.g f #.$.j x g Q h h [ R x x K j =.f g.h.f j ",
"- 5 N s t * # : , o - + > , o > ; 0 N s t * = - & = + & , * & ; = = = + = = = , D c w - = = & , , = > > ; ; , - , = & 0 v N w - ",
";   &.+.; * X . . o . . + &   & & O *.j ; & o . o . & . . o . & . & . . . . . = z R O . + . & & & . & . . . . X . + & O | ,.O & ",
"& O +.h ; & X . & . o . . & .   . + D j > . # o & X .   & & . & . . . . . . . - z ..@ . & . . & & . o . . . . o   o & = x [ O & ",
"- r Z p t * + - > > & & = = = > = r v a w & # ; * o = = > < X - = = = = ; - > > f c 9 = = o = > = - & & > ; = = > & * w i V 0 - ",
"h g l.7.l ' h S f Q j x x x x ~ h f g.p.l x h ' R h ! x f ~ h x j x x j x x x x e.m.f f #.#.#.j h R j x x z #.~ x h D f f.z.f j ",
":.U z k ,.3.z | x.l i.u.k x x g #.' k k ' x x 6.e.d.l R x ' x l x >.x l 2.x x x k ' K U ' h x l x.l i.d.f R x l 2.x [ x k :.x Q ",
"+ : , , > + o = o w v v w - o > o - , > - + # , ..v w X = - # > > > = > > > = = > = = = & = > , . 9 m N e : O > ; & o > 3 , , o ",
". & . . . . & . & o h d ; *     & . . . & . & ; l Z + . & & . . . & . & & . . . & . & & & . & . & = d j & * .   & & . . & . . & ",
"+ . ; ; . . + + . + x r.; & O ; & . # ; . . . + z | % . . .   ; + . + & + & + & + .   . . + & + . > x $.+ & . ; . . . + ; & O & ",
"- o = = & - - = & 0 g x 4 & = * : o # & = : & 0 z v 4 > & - # & & & & & & & & = * = & , & - & = & 0 g z 9 & o * = * > = & = # : ",
"D h z S j j R z x x =.[ x x x x l x z x j j [ z =.=.x x x x x x j x h x x x x x j h x k h ! z l x x =.x.x x j x D x x x j j [ z ",
"' x t.8.x ' l 2.x l x x x x x x S j t.$.j H h x l l x x ' x x x x x R x x l x x :.u.' x x R z x x j x x x x [ x [ x i.t.' ' l :.",
"& 4 v Z 5 & > = = = = = = - ; = = 6 N V 7 ; , ; = = = = = = = = & = = - = = - ; Q s 9 o = < = : ; = - = + & = - o 9 v F 5 & > = ",
". 4 g j $ &   & . . . . . . . . . # g j + &   & . . . . . . . . . . . . . . + = k ! + . . &   & . . . . . . . . . > g h $ &   . ",
". > g h $ &   & . . . . . . . . . > d h + &   & . . . . . . & . . . . . . . . = z ..+ . . o   ; . . . . & . . . . > M h $ &   & ",
"& 0 v Z 9 & > - = = = & = = = = + 5 N ..7 ; 4 ; = = = > = & = = = = = - = = ; , =.s 9 o & , = * + - = = = = = = o 0 v Z 0 & > = ",
"R x e.e.x | l x x R x x l x x ' S j t.t.j Q l j x Q x x x l x l R g x x x x x ' :.n.l x x ' z x x R ' R l x x x U x i.t.x | k x ",
"j x x x x g ' z z [ 2.=.x x x x j x x R j j ' z x x x x x x $.x.x x h x x x x z S f z x x R $.g h x x z x x [ c.j x x x R x x x ",
"= = o & = - & > = 9 j h 0 & > * = - - > & = o - & o - - - 5 N x , > o > = - = > o : - = o o X , o > > - ; 7 M :., = & = > = = > ",
". ; ; ; + . . . . + r.x 4 . o ;   .   O . & O + ; O . . + % ' z ; o . . & + . +   &   . . >   & &   . . . # ~ h ; + . + . . . + ",
". & . . & . . & & + ..d > o   . . * . X & & . & .   & & . + ..j & . . . . . . . . - . . & & . & . . * & & # ~ j & o . . . . . . ",
"o , 3 > > o o - X 0 v v e = # , ; & o > , , > o > o , & o w v F , > = > > > > > = = o > , , > o ; @ ; ; + 6 N ' , > = > > > = > ",
"x U k k ' x z ' o.l d.f.l K x l | x ~ j k l ' x ' z ' x l Y d.e.' R x l x x x R 2.l =.x k x R j Q h H S S ! t.t.' R x l x x l R ",
"j f l.7.h Q h j g x h #.[ x Q Q R j &.f l.z.f Z $.z D j x X.f [ x j x x x x x x R j =.h g.n.l j z @.D d f o.h x x x j x x j x x ",
"- w N s t * # , : > & . ; > ; = > o * 0 s N w * = + : - - : o : = = = - = = - > : X & 9 i b w & ; + 8 5 > 3 + 3 = = > - = - = = ",
"&   S +.; & o . & . = . . . . X   & & . Q =.O & &   & &   . X & . . . & . . . . & . & o S ' + & &   & .   . o & . . . . . . . & ",
". + +.O.; . X . & . = . & & . X   o & X =.z O & . . . . . . & . . . . . & * . + . & & o x =.O & . . . . . . . . & . o o & & .   ",
"- t v p t * o , , - o . - ; = > > & * 0 v N w * = ; - = = ; - = = = > = & & = , > = * 0 s V w - = = = = = = = = > > & & - ; > = ",
"h g g.7.l ..f R f Q g [ x z x ~ R j ! f s.j.f j x j x x h Q x j Q j S [ z x Q l R h j h s.g.f j Q x x x x Q S x h Q j x [ z x ~ ",
"x T l k ! | x U 2.x i.j.k x x g ' l | x l l R S R x x x x x x R l x K k j.i.l [ 3.x Q ' k l x Q x x x x x x x x 3.l t.d.f x x g ",
"O , , , , o o - . w v v w : # 2 > = o > : , , o > > > > > > > > 0 o > w C C w   ; = o > , , , o > > > > > > > > o e v v w : # 2 ",
"& . . . . X & & & # j h ; * .   & & . X . &   . & . . & . & & . &   . + Z N ; o & & . . & & . & & . . & . & . & & > h j ; * . X ",
"+ . ; ; . . . . . $ #.r.% &   ;   +   + & ; . & . . . . . . . . &   & # r.' % . . & + . * & + & . . . . . & . . . + x 8.; &   ; ",
"* & ; - & - ; = = 0 N +.> & = * = * = > & = # : = = & - = = = & * = * , j f 0 & o & = = & = o : = = = = & = = = = 0 g x 4 & = * ",
"z j x x f x h x x x =.x.x x l x j h x f x o.h x x l h x l h x l z h x Q x x.$.x x x h x x h x l M h h l j ! h x j [ =.x.x x j x ",
"x Q ' z x x ' x x l x [ x x x x x v.l x R R z z x x x x ' R x x R x x x x l l g x x x R x l x x :.b.K x x ' k z g x l x x l l x ",
"= = - = = = = = = = = = & = = , #.s 9 = & : = * = = = = = = = = > = = = - = > = ; - = > - = > > =.s 9 o & : = * > = - = = > = = ",
". . . . . . . . . . . . . . . = z D + . . .   & . . . . . . . . . . . . . . . . . . . . . . + & z m # . . &   & . . . . . . . . ",
". . . . . . . . . . . . . . . = z D + & . .   . . . . . . . . . . . . & . . . . . . . . . . . - @.M ; . . o   + . . . . . . . . ",
"- = = = = = = = = > - > > - > > =.a 9 + = - - : - > = = = = = - > = = > > = > > > - > = = = = , =.s 9 o & - = * = - > > = > > = ",
"l x x x x x l l R x x x x x x [ :.n.K x ' ' k @.l R x x x x x x x l g x x x x x x x l ' x x x x r.n.Y x [ ' z $.l x x x x x x l ",
"x x x =.x.=.x x x x x x x x x x D h x h x o.j z x h x x x x x x x.=.x x x Q x x x x h x x x x x Z h x k x R j j c.x x x Q $.Q x ",
"& = & > =.g 5 = * = & & - = & = - = = ; > - - = = + = = - . = , x x 4 & o - & , - - = & = ; - & = - = ; - = ; , x g , - & - > & ",
";   & % z ' 6 . . + + ; . . . . + . . . + . + . . . + + + . + ; j R ; & o & & . . . + + . . . + + . . + + . + ; z ' # . . & O ; ",
".   . O m N ; . o & & . & & o & & & . + . . . & . . . . . . . o h d + . . & O o . . & . . . & . . . . . . . . & f Q   X & & . . ",
"> 2 = 0 N C 9 o X : : > = o + ; = > > > > > > > > = > > > > > , ' m e # + ; + # > > = > > > > ; > > > > > > > 5 ! v 9 = = , # > ",
"M l R l e.i.2.,.x U l f K | x 4.l x l x l x ' l ' x Y :.' x 2.2.r.v.i j Z G K T l x l :.x 2.l :.x l l Y :.l l 2.i.i.K j l U k x ",
"~ j S x #.k | h S f l.p.K ~ j M x x ' x :.x x x x x x z x x x x l j ~ #.j l i.3.x x x x x x x x x ' x z x x x z 2.h X.j g ' #.x ",
"& , = & & & = , - 5 v a r & o = = > ; = ; > = > ; = = - ; - = = 6 ; , @ ; y f o., > ; ; = > ; = > - = - ; = - - ; o & = , < + & ",
"&   . o . = . . ; O =.@.; & o . . . & . . . . . . & . . . . . . . . * & & + h f = . . . . . . . . . . . & . . . . o . . . &   & ",
"X . . X . & . + . + z +.+ & X & . . . . . . . . . & . . . . . .   & . & . ; O.h = . . . . . . . . & . . . . . . . & o   + . . . ",
"& > = = - = & > & e s s t : X : = > = > > = > > = > = > = > = > 5 : ; & ; u g T , > = = = > > > = = = > > = > - , & = = = , - = ",
"D j x x z h x l x l j.p.g | h ! x x x h j x x j x j z j j x x j l j =.+.j n f.x.x #.h j h x j j x j z j j j x z l l =.j f [ h z ",
"K x ' l t.i.2.3.R ! l k ' | x ' x x R x x x x x x x x x Q x x [ 8.u.d d j o.x K x ' R x ' x x x x x x x [ x x [ -.u.x Q x ,.x x ",
", > + 9 F V w . o : , > > o o ; = > ; = > = = = > = > > > = > > X.s q > = : + ; > > > > > > > - > = > > = = > , ..v 0 X ; : # , ",
"&   & X D V ; . & . & . & . = & . . . & . . . & & . . . . . . & h h + . & & & O . . . . . . . . . . . . & . . & l Z o . & & . & ",
":   & 4 z Y 6 . o . ; ; . . . . & & + & & + & + & & . & & . & ; R +.; X & . &   . & & & . & & + & . & & + . & ; k :.3 O + * O & ",
"& o & + x g > . & . . . & & & . . . & . & . . . & . . & & . & - N h ; . & . & - & . . . . . . & . . & . & . & - x d & & . * X & "
};
